<svg width="150" height="150" viewBox="0 0 150 150" fill="none" xmlns="http://www.w3.org/2000/svg">
<path d="M29.9393 73.9393C29.3536 74.5251 29.3536 75.4749 29.9393 76.0607L39.4853 85.6066C40.0711 86.1924 41.0208 86.1924 41.6066 85.6066C42.1924 85.0208 42.1924 84.0711 41.6066 83.4853L33.1213 75L41.6066 66.5147C42.1924 65.9289 42.1924 64.9792 41.6066 64.3934C41.0208 63.8076 40.0711 63.8076 39.4853 64.3934L29.9393 73.9393ZM31 76.5H52V73.5H31V76.5Z" fill="#FF0000"/>
<path d="M73.9393 120.061C74.5251 120.646 75.4749 120.646 76.0607 120.061L85.6066 110.515C86.1924 109.929 86.1924 108.979 85.6066 108.393C85.0208 107.808 84.0711 107.808 83.4853 108.393L75 116.879L66.5147 108.393C65.9289 107.808 64.9792 107.808 64.3934 108.393C63.8076 108.979 63.8076 109.929 64.3934 110.515L73.9393 120.061ZM76.5 119V99H73.5V119H76.5Z" fill="#FF0000"/>
<path d="M120.061 76.0607C120.646 75.4749 120.646 74.5251 120.061 73.9393L110.515 64.3934C109.929 63.8076 108.979 63.8076 108.393 64.3934C107.808 64.9792 107.808 65.9289 108.393 66.5147L116.879 75L108.393 83.4853C107.808 84.0711 107.808 85.0208 108.393 85.6066C108.979 86.1924 109.929 86.1924 110.515 85.6066L120.061 76.0607ZM98 76.5L119 76.5L119 73.5L98 73.5L98 76.5Z" fill="#FF0000"/>
<path d="M76.0607 29.9393C75.4749 29.3536 74.5251 29.3536 73.9393 29.9393L64.3934 39.4853C63.8076 40.0711 63.8076 41.0208 64.3934 41.6066C64.9792 42.1924 65.9289 42.1924 66.5147 41.6066L75 33.1213L83.4853 41.6066C84.0711 42.1924 85.0208 42.1924 85.6066 41.6066C86.1924 41.0208 86.1924 40.0711 85.6066 39.4853L76.0607 29.9393ZM76.5 51V31H73.5V51H76.5Z" fill="#FF0000"/>
<circle cx="75" cy="75" r="23.5" stroke="#FF0000" stroke-width="3"/>
<path d="M0 75H10H20M150 75H140H130" stroke="#FF0000" stroke-width="3"/>
<path d="M10 113L18.6603 108M139.904 38L131.244 43" stroke="#FF0000" stroke-width="3"/>
<path d="M10 38L18.6603 43M139.904 113L131.244 108" stroke="#FF0000" stroke-width="3"/>
<path d="M37 139.904L42 131.244M112 10L107 18.6603" stroke="#FF0000" stroke-width="3"/>
<path d="M37 10L42 18.6603M112 139.904L107 131.244" stroke="#FF0000" stroke-width="3"/>
<path d="M75 150V140V130M75 0V10V20" stroke="#FF0000" stroke-width="3"/>
<path d="M77.002 69H74.1504V59.2344H70.8203V57.3398C71.6992 57.3008 72.3145 57.2422 72.666 57.1641C73.2259 57.0404 73.6816 56.793 74.0332 56.4219C74.2741 56.168 74.4564 55.8294 74.5801 55.4062C74.6517 55.1523 74.6875 54.9635 74.6875 54.8398H77.002V69Z" fill="#FF0000"/>
<path d="M89.3867 69.7207C89.0547 69.3236 88.5794 69.125 87.9609 69.125C87.1146 69.125 86.5384 69.4408 86.2324 70.0723C86.0566 70.4368 85.9525 71.0163 85.9199 71.8105H83.2148C83.2604 70.6061 83.4785 69.6328 83.8691 68.8906C84.6113 67.4779 85.9297 66.7715 87.8242 66.7715C89.3216 66.7715 90.513 67.1882 91.3984 68.0215C92.2839 68.8483 92.7266 69.9453 92.7266 71.3125C92.7266 72.3607 92.4141 73.2917 91.7891 74.1055C91.3789 74.6458 90.7051 75.248 89.7676 75.9121L88.6543 76.7031C87.9577 77.1979 87.4792 77.556 87.2188 77.7773C86.9648 77.9987 86.75 78.2559 86.5742 78.5488H92.7559V81H83.0586C83.0846 79.9844 83.3027 79.0566 83.7129 78.2168C84.11 77.2728 85.0475 76.2734 86.5254 75.2188C87.8079 74.3008 88.638 73.6432 89.0156 73.2461C89.5951 72.6276 89.8848 71.9505 89.8848 71.2148C89.8848 70.6159 89.7188 70.1178 89.3867 69.7207Z" fill="#FF0000"/>
<path d="M73.2617 82.6621C72.9492 83.0788 72.7995 83.6354 72.8125 84.332H70.2148C70.2409 83.6289 70.3613 82.9616 70.5762 82.3301C70.804 81.7767 71.1621 81.2656 71.6504 80.7969C72.015 80.4648 72.4479 80.2109 72.9492 80.0352C73.4505 79.8594 74.0658 79.7715 74.7949 79.7715C76.1491 79.7715 77.2396 80.123 78.0664 80.8262C78.8997 81.5228 79.3164 82.4603 79.3164 83.6387C79.3164 84.472 79.069 85.1751 78.5742 85.748C78.2617 86.1061 77.9362 86.3503 77.5977 86.4805C77.8516 86.4805 78.2161 86.6986 78.6914 87.1348C79.401 87.7923 79.7559 88.6908 79.7559 89.8301C79.7559 91.028 79.3392 92.0827 78.5059 92.9941C77.679 93.8991 76.4518 94.3516 74.8242 94.3516C72.819 94.3516 71.4258 93.6973 70.6445 92.3887C70.2344 91.6921 70.0065 90.7806 69.9609 89.6543H72.6953C72.6953 90.2207 72.7865 90.6895 72.9688 91.0605C73.3073 91.7441 73.9225 92.0859 74.8145 92.0859C75.3613 92.0859 75.8366 91.9004 76.2402 91.5293C76.6504 91.1517 76.8555 90.6113 76.8555 89.9082C76.8555 88.9772 76.4779 88.3555 75.7227 88.043C75.293 87.8672 74.6159 87.7793 73.6914 87.7793V85.7871C74.5964 85.7741 75.2279 85.6862 75.5859 85.5234C76.2044 85.25 76.5137 84.6966 76.5137 83.8633C76.5137 83.3229 76.3542 82.8835 76.0352 82.5449C75.7227 82.2064 75.2799 82.0371 74.707 82.0371C74.0495 82.0371 73.5677 82.2454 73.2617 82.6621Z" fill="#FF0000"/>
<path d="M65.8926 75.7754V77.9531H64.291V81H61.5664V77.9531H55.9609V75.5215L61.166 66.9277H64.291V75.7754H65.8926ZM58.0215 75.7754H61.5664V69.6621L58.0215 75.7754Z" fill="#FF0000"/>
</svg>
