<svg width="150" height="150" viewBox="0 0 150 150" fill="none" xmlns="http://www.w3.org/2000/svg">
<path d="M76.0607 29.9393C75.4749 29.3536 74.5251 29.3536 73.9393 29.9393L64.3934 39.4853C63.8076 40.0711 63.8076 41.0208 64.3934 41.6066C64.9792 42.1924 65.9289 42.1924 66.5147 41.6066L75 33.1213L83.4853 41.6066C84.0711 42.1924 85.0208 42.1924 85.6066 41.6066C86.1924 41.0208 86.1924 40.0711 85.6066 39.4853L76.0607 29.9393ZM73.5 31V75H76.5V31H73.5Z" fill="#FF0000"/>
<circle cx="75" cy="75" r="23.5" stroke="#FF0000" stroke-width="3"/>
<path d="M0 75H10H20M150 75H140H130" stroke="#FF0000" stroke-width="3"/>
<path d="M10 113L18.6603 108M139.904 38L131.244 43" stroke="#FF0000" stroke-width="3"/>
<path d="M10 38L18.6603 43M139.904 113L131.244 108" stroke="#FF0000" stroke-width="3"/>
<path d="M37 139.904L42 131.244M112 10L107 18.6603" stroke="#FF0000" stroke-width="3"/>
<path d="M37 10L42 18.6603M112 139.904L107 131.244" stroke="#FF0000" stroke-width="3"/>
<path d="M75 150V140V130M75 0V10V20" stroke="#FF0000" stroke-width="3"/>
</svg>
