<svg width="331" height="357" viewBox="0 0 331 357" fill="none" xmlns="http://www.w3.org/2000/svg">
<path d="M3.68489 171.722C3.68489 170.093 3.93556 168.62 4.43689 167.304C4.93823 165.957 5.65889 164.813 6.5989 163.873C7.5389 162.902 8.6669 162.165 9.98289 161.664C11.3302 161.131 12.8186 160.865 14.4479 160.865C16.1086 160.865 17.5656 161.116 18.8189 161.617C20.1036 162.087 21.1689 162.729 22.0149 163.544C22.8922 164.359 23.5502 165.33 23.9889 166.458C24.4276 167.586 24.6469 168.777 24.6469 170.03C24.6469 171.503 24.3962 172.803 23.8949 173.931C23.4249 175.059 22.7826 176.062 21.9679 176.939C21.1846 177.816 20.2759 178.6 19.2419 179.289C18.2392 179.978 17.2052 180.636 16.1399 181.263C15.0746 181.858 14.0249 182.438 12.9909 183.002C11.9569 183.566 11.0326 184.161 10.2179 184.788C9.68523 185.195 9.16823 185.634 8.6669 186.104C8.16556 186.543 7.71123 187.028 7.3039 187.561C6.89656 188.094 6.56756 188.689 6.31689 189.347C6.06623 189.974 5.92523 190.679 5.89389 191.462H24.3649V194H2.69789C2.72923 192.402 2.90156 190.961 3.21489 189.676C3.52823 188.391 4.21756 187.138 5.28289 185.916C6.44223 184.6 7.63289 183.472 8.85489 182.532C10.1082 181.592 11.3302 180.762 12.5209 180.041C13.7116 179.289 14.8396 178.615 15.9049 178.02C16.9702 177.393 17.9102 176.72 18.7249 175.999C19.5396 175.278 20.1819 174.464 20.6519 173.555C21.1219 172.646 21.3569 171.534 21.3569 170.218C21.3569 169.153 21.1689 168.197 20.7929 167.351C20.4169 166.505 19.8999 165.784 19.2419 165.189C18.5839 164.594 17.8162 164.155 16.9389 163.873C16.0616 163.56 15.1059 163.403 14.0719 163.403C12.9752 163.403 11.9726 163.638 11.0639 164.108C10.1866 164.547 9.41889 165.142 8.76089 165.894C8.13423 166.646 7.64856 167.523 7.3039 168.526C6.95923 169.529 6.81823 170.594 6.88089 171.722H3.68489Z" fill="#FF0000"/>
<path d="M162.829 327.576C164.239 327.576 165.524 327.498 166.683 327.341C167.842 327.153 168.829 326.824 169.644 326.354C170.49 325.853 171.148 325.195 171.618 324.38C172.088 323.565 172.323 322.516 172.323 321.231C172.323 320.197 172.135 319.32 171.759 318.599C171.383 317.847 170.866 317.236 170.208 316.766C169.581 316.296 168.829 315.951 167.952 315.732C167.106 315.513 166.213 315.403 165.273 315.403C164.208 315.403 163.236 315.575 162.359 315.92C161.513 316.265 160.777 316.766 160.15 317.424C159.523 318.051 159.038 318.803 158.693 319.68C158.348 320.526 158.176 321.466 158.176 322.5H155.168C155.168 320.996 155.419 319.649 155.92 318.458C156.453 317.236 157.267 316.108 158.364 315.074C159.398 314.134 160.557 313.539 161.842 313.288C163.158 313.006 164.505 312.865 165.884 312.865C167.2 312.865 168.422 313.037 169.55 313.382C170.709 313.695 171.712 314.197 172.558 314.886C173.404 315.544 174.078 316.39 174.579 317.424C175.08 318.458 175.331 319.664 175.331 321.043C175.331 322.766 174.939 324.255 174.156 325.508C173.404 326.761 172.229 327.733 170.631 328.422C171.822 328.798 172.793 329.299 173.545 329.926C174.328 330.521 174.939 331.195 175.378 331.947C175.817 332.668 176.114 333.435 176.271 334.25C176.428 335.065 176.506 335.848 176.506 336.6C176.506 337.979 176.271 339.263 175.801 340.454C175.331 341.645 174.642 342.694 173.733 343.603C172.824 344.512 171.696 345.248 170.349 345.812C169.033 346.345 167.529 346.627 165.837 346.658C163.926 346.658 162.265 346.486 160.855 346.141C159.445 345.796 158.27 345.232 157.33 344.449C156.39 343.634 155.654 342.585 155.121 341.3C154.588 339.984 154.228 338.355 154.04 336.412H157.048C157.048 338.95 157.8 340.877 159.304 342.193C160.839 343.478 162.829 344.12 165.273 344.12C166.464 344.12 167.576 343.916 168.61 343.509C169.644 343.102 170.521 342.553 171.242 341.864C171.994 341.175 172.558 340.376 172.934 339.467C173.341 338.558 173.529 337.618 173.498 336.647C173.435 335.3 173.122 334.187 172.558 333.31C171.994 332.401 171.226 331.696 170.255 331.195C169.315 330.662 168.203 330.318 166.918 330.161C165.633 329.973 164.27 329.926 162.829 330.02V327.576Z" fill="#FF0000"/>
<path d="M321.268 185.822H306.134V183.237L321.55 161.194H324.276V183.284H328.882V185.822H324.276V194H321.268V185.822ZM309.095 183.284H321.268V165.706L309.095 183.284Z" fill="#FF0000"/>
<path d="M166.636 18.372H158.082V16.398C159.335 16.304 160.463 16.1787 161.466 16.022C162.5 15.8653 163.393 15.5677 164.145 15.129C164.928 14.6903 165.571 14.0637 166.072 13.249C166.605 12.403 166.996 11.275 167.247 9.865H169.644V43H166.636V18.372Z" fill="#FF0000"/>
<circle cx="166" cy="178" r="65.5" stroke="#FF0000" stroke-width="3"/>
<path d="M47.9393 176.939C47.3536 177.525 47.3536 178.475 47.9393 179.061L57.4853 188.607C58.0711 189.192 59.0208 189.192 59.6066 188.607C60.1924 188.021 60.1924 187.071 59.6066 186.485L51.1213 178L59.6066 169.515C60.1924 168.929 60.1924 167.979 59.6066 167.393C59.0208 166.808 58.0711 166.808 57.4853 167.393L47.9393 176.939ZM283.061 179.061C283.646 178.475 283.646 177.525 283.061 176.939L273.515 167.393C272.929 166.808 271.979 166.808 271.393 167.393C270.808 167.979 270.808 168.929 271.393 169.515L279.879 178L271.393 186.485C270.808 187.071 270.808 188.021 271.393 188.607C271.979 189.192 272.929 189.192 273.515 188.607L283.061 179.061ZM49 179.5H282V176.5H49V179.5Z" fill="#FF0000"/>
<path d="M167.061 60.9393C166.475 60.3536 165.525 60.3536 164.939 60.9393L155.393 70.4853C154.808 71.0711 154.808 72.0208 155.393 72.6066C155.979 73.1924 156.929 73.1924 157.515 72.6066L166 64.1213L174.485 72.6066C175.071 73.1924 176.021 73.1924 176.607 72.6066C177.192 72.0208 177.192 71.0711 176.607 70.4853L167.061 60.9393ZM164.939 296.061C165.525 296.646 166.475 296.646 167.061 296.061L176.607 286.515C177.192 285.929 177.192 284.979 176.607 284.393C176.021 283.808 175.071 283.808 174.485 284.393L166 292.879L157.515 284.393C156.929 283.808 155.979 283.808 155.393 284.393C154.808 284.979 154.808 285.929 155.393 286.515L164.939 296.061ZM164.5 62L164.5 295L167.5 295L167.5 62L164.5 62Z" fill="#FF0000"/>
</svg>
