<svg width="150" height="150" viewBox="0 0 150 150" fill="none" xmlns="http://www.w3.org/2000/svg">
<path d="M29.9393 73.9393C29.3536 74.5251 29.3536 75.4749 29.9393 76.0607L39.4853 85.6066C40.0711 86.1924 41.0208 86.1924 41.6066 85.6066C42.1924 85.0208 42.1924 84.0711 41.6066 83.4853L33.1213 75L41.6066 66.5147C42.1924 65.9289 42.1924 64.9792 41.6066 64.3934C41.0208 63.8076 40.0711 63.8076 39.4853 64.3934L29.9393 73.9393ZM31 76.5H75V73.5H31V76.5Z" fill="#FF0000"/>
<path d="M73.9393 120.061C74.5251 120.646 75.4749 120.646 76.0607 120.061L85.6066 110.515C86.1924 109.929 86.1924 108.979 85.6066 108.393C85.0208 107.808 84.0711 107.808 83.4853 108.393L75 116.879L66.5147 108.393C65.9289 107.808 64.9792 107.808 64.3934 108.393C63.8076 108.979 63.8076 109.929 64.3934 110.515L73.9393 120.061ZM76.5 119V75H73.5V119H76.5Z" fill="#FF0000"/>
<path d="M120.061 76.0607C120.646 75.4749 120.646 74.5251 120.061 73.9393L110.515 64.3934C109.929 63.8076 108.979 63.8076 108.393 64.3934C107.808 64.9792 107.808 65.9289 108.393 66.5147L116.879 75L108.393 83.4853C107.808 84.0711 107.808 85.0208 108.393 85.6066C108.979 86.1924 109.929 86.1924 110.515 85.6066L120.061 76.0607ZM75 76.5H119V73.5H75V76.5Z" fill="#FF0000"/>
<path d="M76.0607 29.9393C75.4749 29.3536 74.5251 29.3536 73.9393 29.9393L64.3934 39.4853C63.8076 40.0711 63.8076 41.0208 64.3934 41.6066C64.9792 42.1924 65.9289 42.1924 66.5147 41.6066L75 33.1213L83.4853 41.6066C84.0711 42.1924 85.0208 42.1924 85.6066 41.6066C86.1924 41.0208 86.1924 40.0711 85.6066 39.4853L76.0607 29.9393ZM76.5 75V31H73.5V75H76.5Z" fill="#FF0000"/>
<circle cx="75" cy="75" r="23.5" stroke="#FF0000" stroke-width="3"/>
<path d="M0 75H10H20M150 75H140H130" stroke="#FF0000" stroke-width="3"/>
<path d="M10 113L18.6603 108M139.904 38L131.244 43" stroke="#FF0000" stroke-width="3"/>
<path d="M10 38L18.6603 43M139.904 113L131.244 108" stroke="#FF0000" stroke-width="3"/>
<path d="M37 139.904L42 131.244M112 10L107 18.6603" stroke="#FF0000" stroke-width="3"/>
<path d="M37 10L42 18.6603M112 139.904L107 131.244" stroke="#FF0000" stroke-width="3"/>
<path d="M75 150V140V130M75 0V10V20" stroke="#FF0000" stroke-width="3"/>
</svg>
