<svg width="91" height="91" viewBox="0 0 91 91" fill="none" xmlns="http://www.w3.org/2000/svg">
<circle cx="49.2391" cy="41.7175" r="23.4162" transform="rotate(40.4253 49.2391 41.7175)" stroke="#FF0000" stroke-width="3"/>
<path d="M78.613 52.8399C79.0406 52.1303 78.812 51.2085 78.1024 50.7809L66.5392 43.8136C65.8297 43.3861 64.9078 43.6147 64.4803 44.3243C64.0527 45.0338 64.2814 45.9556 64.9909 46.3832L75.2693 52.5764L69.0761 62.8547C68.6486 63.5643 68.8772 64.4861 69.5868 64.9137C70.2964 65.3412 71.2182 65.1126 71.6457 64.403L78.613 52.8399ZM27.5216 30.1216C21.7679 31.2635 15.8889 35.3326 13.257 40.2905C11.9209 42.8075 11.3742 45.6561 12.2598 48.4755C13.1447 51.2922 15.3767 53.8175 19.071 55.86L20.5225 53.2345C17.2839 51.444 15.7104 49.4496 15.1219 47.5764C14.5344 45.7059 14.8466 43.6943 15.9068 41.6971C18.0675 37.6268 23.1298 34.0517 28.1056 33.0642L27.5216 30.1216ZM19.071 55.86C28.201 60.9078 41.1469 60.6733 52.4569 59.0833C63.8373 57.4834 74.0209 54.4314 77.6893 53.5216L76.9672 50.6098C73.1313 51.5612 63.2154 54.5413 52.0392 56.1125C40.7926 57.6937 28.7249 57.7694 20.5225 53.2345L19.071 55.86Z" fill="#FF0000"/>
</svg>
