<svg width="65" height="173" viewBox="0 0 65 173" fill="none" xmlns="http://www.w3.org/2000/svg">
<circle cx="32.3634" cy="32.3634" r="23.4684" transform="rotate(21.4246 32.3634 32.3634)" stroke="#FF0000" stroke-width="3"/>
<path d="M21.4062 172.026C21.9731 172.631 22.9223 172.661 23.5264 172.094L33.3708 162.856C33.9749 162.289 34.005 161.34 33.4381 160.736C32.8713 160.132 31.922 160.101 31.3179 160.668L22.5674 168.88L14.3559 160.129C13.789 159.525 12.8397 159.495 12.2356 160.062C11.6315 160.629 11.6014 161.578 12.1683 162.182L21.4062 172.026ZM23.9992 171.048C25.6672 118.56 29.0167 55.7451 32.1286 37.5142C32.5248 35.1932 32.8869 33.8005 33.1633 33.2248C33.2279 33.0902 33.2384 33.1095 33.1669 33.1825C33.0947 33.2561 32.767 33.5474 32.2286 33.4938C31.7305 33.4443 31.491 33.1379 31.4721 33.1136C31.4383 33.0703 31.4674 33.0943 31.5341 33.2637C31.8161 33.9794 32.1535 35.6261 32.4938 38.4985C32.827 41.311 33.1484 45.1512 33.4528 50.1371C34.6708 70.0865 35.6 108.073 36 171.01L39 170.99C38.6 108.056 37.6708 69.9951 36.4472 49.9542C36.1412 44.9425 35.8157 41.0387 35.473 38.1456C35.1373 35.3124 34.7698 33.292 34.3252 32.1638C34.2104 31.8723 34.0564 31.5493 33.8384 31.2696C33.6353 31.0089 33.2103 30.5767 32.5257 30.5086C31.8006 30.4364 31.2853 30.8164 31.0243 31.0826C30.7642 31.3481 30.5849 31.6638 30.4589 31.9262C29.973 32.9382 29.5585 34.7415 29.1714 37.0095C26.0167 55.491 22.6661 118.547 21.0008 170.952L23.9992 171.048Z" fill="#FF0000"/>
</svg>
