<svg width="150" height="152" viewBox="0 0 150 152" fill="none" xmlns="http://www.w3.org/2000/svg">
<circle cx="75" cy="75" r="23.5" stroke="#FF0000" stroke-width="3"/>
<path d="M0 75H10H20M150 75H140H130" stroke="#FF0000" stroke-width="3"/>
<path d="M10 113L18.6603 108M139.904 38L131.244 43" stroke="#FF0000" stroke-width="3"/>
<path d="M10 38L18.6603 43M139.904 113L131.244 108" stroke="#FF0000" stroke-width="3"/>
<path d="M37 139.904L42 131.244M112 10L107 18.6603" stroke="#FF0000" stroke-width="3"/>
<path d="M37 10L42 18.6603M112 139.904L107 131.244" stroke="#FF0000" stroke-width="3"/>
<path d="M75 0V10V20" stroke="#FF0000" stroke-width="3"/>
<path d="M62.8759 150.993C63.4245 151.614 64.3724 151.673 64.9932 151.124L75.1098 142.185C75.7306 141.637 75.7892 140.689 75.2407 140.068C74.6921 139.447 73.7442 139.388 73.1234 139.937L64.1309 147.883L56.1851 138.89C55.6366 138.269 54.6887 138.211 54.0679 138.759C53.4471 139.308 53.3885 140.256 53.937 140.877L62.8759 150.993ZM64 150L65.4971 150.093C66.9959 125.842 68.8483 107.165 70.8296 94.4384C71.8216 88.0671 72.8384 83.2371 73.8435 79.9599C74.348 78.3149 74.8302 77.1261 75.2711 76.3458C75.7638 75.4738 76.0149 75.4517 75.8838 75.4854C75.5035 75.5833 75.4563 75.2396 75.821 75.7285C76.1688 76.1946 76.5965 77.0745 77.0568 78.5017C77.9661 81.3208 78.8559 85.7957 79.6804 92.0379C81.3256 104.494 82.6746 123.69 83.5007 150.047L85 150L86.4993 149.953C85.6721 123.562 84.3194 104.249 82.6546 91.6451C81.8241 85.3575 80.9068 80.6651 79.9119 77.5808C79.4202 76.0563 78.8715 74.8005 78.2256 73.9346C77.5965 73.0913 76.5382 72.2193 75.1362 72.5801C73.9834 72.8767 73.2023 73.9088 72.6592 74.87C72.0642 75.923 71.507 77.3464 70.9753 79.0803C69.9079 82.5609 68.8651 87.5555 67.8654 93.9769C65.8634 106.836 64.0041 125.617 62.5029 149.907L64 150Z" fill="#FF0000"/>
</svg>
