<svg width="65" height="168" viewBox="0 0 65 168" fill="none" xmlns="http://www.w3.org/2000/svg">
<circle cx="32.3634" cy="32.3634" r="23.4684" transform="rotate(21.4246 32.3634 32.3634)" stroke="#FF0000" stroke-width="3"/>
<path d="M33.0607 24.9393C32.4749 24.3536 31.5251 24.3536 30.9393 24.9393L21.3934 34.4853C20.8076 35.0711 20.8076 36.0208 21.3934 36.6066C21.9792 37.1924 22.9289 37.1924 23.5147 36.6066L32 28.1213L40.4853 36.6066C41.0711 37.1924 42.0208 37.1924 42.6066 36.6066C43.1924 36.0208 43.1924 35.0711 42.6066 34.4853L33.0607 24.9393ZM30.9393 163.061C31.5251 163.646 32.4749 163.646 33.0607 163.061L42.6066 153.515C43.1924 152.929 43.1924 151.979 42.6066 151.393C42.0208 150.808 41.0711 150.808 40.4853 151.393L32 159.879L23.5147 151.393C22.9289 150.808 21.9792 150.808 21.3934 151.393C20.8076 151.979 20.8076 152.929 21.3934 153.515L30.9393 163.061ZM30.5 26L30.5 162L33.5 162L33.5 26L30.5 26Z" fill="#FF0000"/>
</svg>
