<svg width="203" height="243" viewBox="0 0 203 243" fill="none" xmlns="http://www.w3.org/2000/svg">
<circle cx="111.847" cy="68.847" r="38.5" transform="rotate(21.4246 111.847 68.847)" fill="black" stroke="#FF0000" stroke-width="3"/>
<circle cx="148.197" cy="103.744" r="38.5" transform="rotate(30.2491 148.197 103.744)" fill="black" stroke="#FF0000" stroke-width="3"/>
<circle cx="103.576" cy="124.924" r="18.5" transform="rotate(21.4246 103.576 124.924)" fill="black" stroke="#FF0000" stroke-width="3"/>
<circle cx="139.847" cy="142.847" r="38.5" transform="rotate(21.4246 139.847 142.847)" fill="black" stroke="#FF0000" stroke-width="3"/>
<circle cx="51.9009" cy="128.847" r="38.5" transform="rotate(21.4246 51.9009 128.847)" fill="black" stroke="#FF0000" stroke-width="3"/>
<path d="M17 85.3553C36.5262 65.8291 68.1845 65.8291 87.7107 85.3553" stroke="#FF0000" stroke-width="3"/>
<path d="M1.99996 71.4975C29.3367 44.1608 73.6582 44.1608 100.995 71.4975" stroke="#FF0000" stroke-width="3"/>
<circle cx="87.847" cy="190.847" r="38.5" transform="rotate(21.4246 87.847 190.847)" fill="black" stroke="#FF0000" stroke-width="3"/>
<path d="M18 174.64C37.5262 194.166 69.1845 194.166 88.7107 174.64" stroke="#FF0000" stroke-width="3"/>
<path d="M2.99996 188.497C30.3367 215.834 74.6582 215.834 101.995 188.497" stroke="#FF0000" stroke-width="3"/>
</svg>
