<svg width="203" height="272" viewBox="0 0 203 272" fill="none" xmlns="http://www.w3.org/2000/svg">
<circle cx="111.847" cy="71.847" r="38.5" transform="rotate(21.4246 111.847 71.847)" fill="black" stroke="#FF0000" stroke-width="3"/>
<circle cx="148.144" cy="103.744" r="38.5" transform="rotate(30.2491 148.144 103.744)" fill="black" stroke="#FF0000" stroke-width="3"/>
<circle cx="103.522" cy="124.924" r="18.5" transform="rotate(21.4246 103.522 124.924)" fill="black" stroke="#FF0000" stroke-width="3"/>
<circle cx="139.793" cy="142.847" r="38.5" transform="rotate(21.4246 139.793 142.847)" fill="black" stroke="#FF0000" stroke-width="3"/>
<circle cx="51.847" cy="128.847" r="38.5" transform="rotate(21.4246 51.847 128.847)" fill="black" stroke="#FF0000" stroke-width="3"/>
<path d="M54 146.355C73.5262 126.829 105.184 126.829 124.711 146.355" stroke="#FF0000" stroke-width="3"/>
<path d="M39 132.497C66.3367 105.161 110.658 105.161 137.995 132.497" stroke="#FF0000" stroke-width="3"/>
<circle cx="87.793" cy="190.847" r="38.5" transform="rotate(21.4246 87.793 190.847)" fill="black" stroke="#FF0000" stroke-width="3"/>
<path d="M52 235.64C71.5262 255.166 103.184 255.166 122.711 235.64" stroke="#FF0000" stroke-width="3"/>
<path d="M37 249.497C64.3367 276.834 108.658 276.834 135.995 249.497" stroke="#FF0000" stroke-width="3"/>
</svg>
