<svg width="201" height="223" viewBox="0 0 201 223" fill="none" xmlns="http://www.w3.org/2000/svg">
<circle cx="103.901" cy="122.847" r="38.5" transform="rotate(21.4246 103.901 122.847)" fill="black" stroke="#FF0000" stroke-width="3"/>
<circle cx="75.901" cy="51.847" r="38.5" transform="rotate(21.4246 75.901 51.847)" fill="black" stroke="#FF0000" stroke-width="3"/>
<circle cx="112.198" cy="89.7439" r="38.5" transform="rotate(30.2491 112.198 89.7439)" fill="black" stroke="#FF0000" stroke-width="3"/>
<circle cx="67.5763" cy="104.924" r="18.5" transform="rotate(21.4246 67.5763 104.924)" fill="black" stroke="#FF0000" stroke-width="3"/>
<circle cx="51.847" cy="170.847" r="38.5" transform="rotate(21.4246 51.847 170.847)" fill="black" stroke="#FF0000" stroke-width="3"/>
<circle cx="103.645" cy="124.041" r="38.5" transform="rotate(-56.3207 103.645 124.041)" fill="black" stroke="#FF0000" stroke-width="3"/>
<path d="M53.0057 147.568C38.069 124.342 44.7887 93.4048 68.0146 78.4681" stroke="#FF0000" stroke-width="3"/>
<path d="M36.2797 159.285C15.3683 126.768 24.7759 83.4567 57.2922 62.5453" stroke="#FF0000" stroke-width="3"/>
<path d="M139.388 166.33C162.614 151.394 169.334 120.457 154.397 97.231" stroke="#FF0000" stroke-width="3"/>
<path d="M149.747 183.93C182.263 163.019 191.67 119.707 170.759 87.1908" stroke="#FF0000" stroke-width="3"/>
</svg>
