<svg width="168" height="284" viewBox="0 0 168 284" fill="none" xmlns="http://www.w3.org/2000/svg">
<circle cx="101.717" cy="122.717" r="39.9426" transform="rotate(21.4246 101.717 122.717)" fill="black" stroke="#FF0000" stroke-width="3"/>
<path d="M88.9701 113.56C88.9701 111.48 89.2901 109.6 89.9301 107.92C90.5701 106.2 91.4901 104.74 92.6901 103.54C93.8901 102.3 95.3301 101.36 97.0101 100.72C98.7301 100.04 100.63 99.7 102.71 99.7C104.83 99.7 106.69 100.02 108.29 100.66C109.93 101.26 111.29 102.08 112.37 103.12C113.49 104.16 114.33 105.4 114.89 106.84C115.45 108.28 115.73 109.8 115.73 111.4C115.73 113.28 115.41 114.94 114.77 116.38C114.17 117.82 113.35 119.1 112.31 120.22C111.31 121.34 110.15 122.34 108.83 123.22C107.55 124.1 106.23 124.94 104.87 125.74C103.51 126.5 102.17 127.24 100.85 127.96C99.5301 128.68 98.3501 129.44 97.3101 130.24C96.6301 130.76 95.9701 131.32 95.3301 131.92C94.6901 132.48 94.1101 133.1 93.5901 133.78C93.0701 134.46 92.6501 135.22 92.3301 136.06C92.0101 136.86 91.8301 137.76 91.7901 138.76H115.37V142H87.7101C87.7501 139.96 87.9701 138.12 88.3701 136.48C88.7701 134.84 89.6501 133.24 91.0101 131.68C92.4901 130 94.0101 128.56 95.5701 127.36C97.1701 126.16 98.7301 125.1 100.25 124.18C101.77 123.22 103.21 122.36 104.57 121.6C105.93 120.8 107.13 119.94 108.17 119.02C109.21 118.1 110.03 117.06 110.63 115.9C111.23 114.74 111.53 113.32 111.53 111.64C111.53 110.28 111.29 109.06 110.81 107.98C110.33 106.9 109.67 105.98 108.83 105.22C107.99 104.46 107.01 103.9 105.89 103.54C104.77 103.14 103.55 102.94 102.23 102.94C100.83 102.94 99.5501 103.24 98.3901 103.84C97.2701 104.4 96.2901 105.16 95.4501 106.12C94.6501 107.08 94.0301 108.2 93.5901 109.48C93.1501 110.76 92.9701 112.12 93.0501 113.56H88.9701Z" fill="#FF0000"/>
<path d="M51.1597 84.465C63.9969 60.016 94.2233 50.6027 118.672 63.4399" stroke="#FF0000" stroke-width="3"/>
<path d="M32.7176 75.694C50.6896 41.4654 93.0066 28.2868 127.235 46.2589" stroke="#FF0000" stroke-width="3"/>
<circle cx="53.7169" cy="147.717" r="39.9426" transform="rotate(21.4246 53.7169 147.717)" fill="black" stroke="#FF0000" stroke-width="3"/>
<path d="M52.9501 136.56H42.0301V134.04C43.6301 133.92 45.0701 133.76 46.3501 133.56C47.6701 133.36 48.8101 132.98 49.7701 132.42C50.7701 131.86 51.5901 131.06 52.2301 130.02C52.9101 128.94 53.4101 127.5 53.7301 125.7H56.7901V168H52.9501V136.56Z" fill="#FF0000"/>
<circle cx="97.4044" cy="170.404" r="23.5" transform="rotate(21.4246 97.4044 170.404)" fill="black" stroke="#FF0000" stroke-width="3"/>
<circle cx="110.717" cy="229.717" r="39.9426" transform="rotate(21.4246 110.717 229.717)" fill="black" stroke="#FF0000" stroke-width="3"/>
<path d="M107.09 226.48C108.89 226.48 110.53 226.38 112.01 226.18C113.49 225.94 114.75 225.52 115.79 224.92C116.87 224.28 117.71 223.44 118.31 222.4C118.91 221.36 119.21 220.02 119.21 218.38C119.21 217.06 118.97 215.94 118.49 215.02C118.01 214.06 117.35 213.28 116.51 212.68C115.71 212.08 114.75 211.64 113.63 211.36C112.55 211.08 111.41 210.94 110.21 210.94C108.85 210.94 107.61 211.16 106.49 211.6C105.41 212.04 104.47 212.68 103.67 213.52C102.87 214.32 102.25 215.28 101.81 216.4C101.37 217.48 101.15 218.68 101.15 220H97.3101C97.3101 218.08 97.6301 216.36 98.2701 214.84C98.9501 213.28 99.9901 211.84 101.39 210.52C102.71 209.32 104.19 208.56 105.83 208.24C107.51 207.88 109.23 207.7 110.99 207.7C112.67 207.7 114.23 207.92 115.67 208.36C117.15 208.76 118.43 209.4 119.51 210.28C120.59 211.12 121.45 212.2 122.09 213.52C122.73 214.84 123.05 216.38 123.05 218.14C123.05 220.34 122.55 222.24 121.55 223.84C120.59 225.44 119.09 226.68 117.05 227.56C118.57 228.04 119.81 228.68 120.77 229.48C121.77 230.24 122.55 231.1 123.11 232.06C123.67 232.98 124.05 233.96 124.25 235C124.45 236.04 124.55 237.04 124.55 238C124.55 239.76 124.25 241.4 123.65 242.92C123.05 244.44 122.17 245.78 121.01 246.94C119.85 248.1 118.41 249.04 116.69 249.76C115.01 250.44 113.09 250.8 110.93 250.84C108.49 250.84 106.37 250.62 104.57 250.18C102.77 249.74 101.27 249.02 100.07 248.02C98.8701 246.98 97.9301 245.64 97.2501 244C96.5701 242.32 96.1101 240.24 95.8701 237.76H99.7101C99.7101 241 100.67 243.46 102.59 245.14C104.55 246.78 107.09 247.6 110.21 247.6C111.73 247.6 113.15 247.34 114.47 246.82C115.79 246.3 116.91 245.6 117.83 244.72C118.79 243.84 119.51 242.82 119.99 241.66C120.51 240.5 120.75 239.3 120.71 238.06C120.63 236.34 120.23 234.92 119.51 233.8C118.79 232.64 117.81 231.74 116.57 231.1C115.37 230.42 113.95 229.98 112.31 229.78C110.67 229.54 108.93 229.48 107.09 229.6V226.48Z" fill="#FF0000"/>
</svg>
