<svg width="180" height="259" viewBox="0 0 180 259" fill="none" xmlns="http://www.w3.org/2000/svg">
<circle cx="74.7931" cy="51.847" r="38.5" transform="rotate(21.4246 74.7931 51.847)" fill="black" stroke="#FF0000" stroke-width="3"/>
<circle cx="125.144" cy="85.7439" r="38.5" transform="rotate(30.2491 125.144 85.7439)" fill="black" stroke="#FF0000" stroke-width="3"/>
<circle cx="68.5223" cy="112.924" r="18.5" transform="rotate(21.4246 68.5223 112.924)" fill="black" stroke="#FF0000" stroke-width="3"/>
<circle cx="104.793" cy="130.847" r="38.5" transform="rotate(21.4246 104.793 130.847)" fill="#FF0000" stroke="black" stroke-width="3"/>
<path d="M70 86.3553C89.5263 66.8291 121.185 66.8291 140.711 86.3553" stroke="#FF0000" stroke-width="3"/>
<path d="M55 72.4975C82.3367 45.1608 126.658 45.1608 153.995 72.4975" stroke="#FF0000" stroke-width="3"/>
<path d="M48 56.5685C79.2419 25.3266 129.895 25.3266 161.137 56.5685" stroke="#FF0000" stroke-width="3"/>
<circle cx="52.7931" cy="178.847" r="38.5" transform="rotate(21.4246 52.7931 178.847)" fill="black" stroke="#FF0000" stroke-width="3"/>
<path d="M70 172.64C89.5263 192.166 121.185 192.166 140.711 172.64" stroke="#FF0000" stroke-width="3"/>
<path d="M55 186.497C82.3367 213.834 126.658 213.834 153.995 186.497" stroke="#FF0000" stroke-width="3"/>
<path d="M48 202.426C79.2419 233.668 129.895 233.668 161.137 202.426" stroke="#FF0000" stroke-width="3"/>
</svg>
