<svg width="203" height="243" viewBox="0 0 203 243" fill="none" xmlns="http://www.w3.org/2000/svg">
<circle cx="109.793" cy="63.847" r="38.5" transform="rotate(21.4246 109.793 63.847)" fill="black" stroke="#FF0000" stroke-width="3"/>
<circle cx="160.144" cy="97.7439" r="38.5" transform="rotate(30.2491 160.144 97.7439)" fill="black" stroke="#FF0000" stroke-width="3"/>
<circle cx="103.522" cy="124.924" r="18.5" transform="rotate(21.4246 103.522 124.924)" fill="black" stroke="#FF0000" stroke-width="3"/>
<circle cx="139.793" cy="142.847" r="38.5" transform="rotate(21.4246 139.793 142.847)" fill="#FF0000" stroke="#FF0000" stroke-width="3"/>
<circle cx="51.847" cy="128.847" r="38.5" transform="rotate(21.4246 51.847 128.847)" fill="black" stroke="#FF0000" stroke-width="3"/>
<path d="M105 98.3553C124.526 78.8291 156.185 78.8291 175.711 98.3553" stroke="#FF0000" stroke-width="3"/>
<path d="M90 84.4975C117.337 57.1608 161.658 57.1608 188.995 84.4975" stroke="#FF0000" stroke-width="3"/>
<path d="M83 68.5685C114.242 37.3266 164.895 37.3266 196.137 68.5685" stroke="#FF0000" stroke-width="3"/>
<circle cx="87.7931" cy="190.847" r="38.5" transform="rotate(21.4246 87.7931 190.847)" fill="black" stroke="#FF0000" stroke-width="3"/>
<path d="M105 184.64C124.526 204.166 156.185 204.166 175.711 184.64" stroke="#FF0000" stroke-width="3"/>
<path d="M90 198.497C117.337 225.834 161.658 225.834 188.995 198.497" stroke="#FF0000" stroke-width="3"/>
<path d="M83 214.426C114.242 245.668 164.895 245.668 196.137 214.426" stroke="#FF0000" stroke-width="3"/>
</svg>
