<svg width="173" height="196" viewBox="0 0 173 196" fill="none" xmlns="http://www.w3.org/2000/svg">
<path d="M49.6812 194.715C50.0759 195.443 50.9863 195.714 51.7147 195.319L63.5839 188.887C64.3123 188.492 64.5828 187.582 64.1881 186.853C63.7934 186.125 62.883 185.855 62.1546 186.249L51.6041 191.967L45.8869 181.416C45.4922 180.688 44.5817 180.417 43.8534 180.812C43.125 181.207 42.8545 182.117 43.2492 182.845L49.6812 194.715ZM52.4379 194.427L93.4379 56.4272L90.5621 55.5728L49.5621 193.573L52.4379 194.427Z" fill="#FF0000"/>
<path d="M164 56L18 56" stroke="#FF0000" stroke-width="3"/>
<circle cx="74.4043" cy="32.4044" r="23.5" transform="rotate(21.4246 74.4043 32.4044)" fill="black" stroke="#FF0000" stroke-width="3"/>
<circle cx="118.717" cy="71.7169" r="39.9426" transform="rotate(21.4246 118.717 71.7169)" fill="#FF0000" stroke="black" stroke-width="3"/>
<circle cx="53.7169" cy="101.717" r="39.9426" transform="rotate(21.4246 53.7169 101.717)" fill="#FF0000" stroke="black" stroke-width="3"/>
</svg>
