<svg width="108" height="108" viewBox="0 0 108 108" fill="none" xmlns="http://www.w3.org/2000/svg">
<path d="M40.9701 46.56C40.9701 44.48 41.2901 42.6 41.9301 40.92C42.5701 39.2 43.4901 37.74 44.6901 36.54C45.8901 35.3 47.3301 34.36 49.0101 33.72C50.7301 33.04 52.6301 32.7 54.7101 32.7C56.8301 32.7 58.6901 33.02 60.2901 33.66C61.9301 34.26 63.2901 35.08 64.3701 36.12C65.4901 37.16 66.3301 38.4 66.8901 39.84C67.4501 41.28 67.7301 42.8 67.7301 44.4C67.7301 46.28 67.4101 47.94 66.7701 49.38C66.1701 50.82 65.3501 52.1 64.3101 53.22C63.3101 54.34 62.1501 55.34 60.8301 56.22C59.5501 57.1 58.2301 57.94 56.8701 58.74C55.5101 59.5 54.1701 60.24 52.8501 60.96C51.5301 61.68 50.3501 62.44 49.3101 63.24C48.6301 63.76 47.9701 64.32 47.3301 64.92C46.6901 65.48 46.1101 66.1 45.5901 66.78C45.0701 67.46 44.6501 68.22 44.3301 69.06C44.0101 69.86 43.8301 70.76 43.7901 71.76H67.3701V75H39.7101C39.7501 72.96 39.9701 71.12 40.3701 69.48C40.7701 67.84 41.6501 66.24 43.0101 64.68C44.4901 63 46.0101 61.56 47.5701 60.36C49.1701 59.16 50.7301 58.1 52.2501 57.18C53.7701 56.22 55.2101 55.36 56.5701 54.6C57.9301 53.8 59.1301 52.94 60.1701 52.02C61.2101 51.1 62.0301 50.06 62.6301 48.9C63.2301 47.74 63.5301 46.32 63.5301 44.64C63.5301 43.28 63.2901 42.06 62.8101 40.98C62.3301 39.9 61.6701 38.98 60.8301 38.22C59.9901 37.46 59.0101 36.9 57.8901 36.54C56.7701 36.14 55.5501 35.94 54.2301 35.94C52.8301 35.94 51.5501 36.24 50.3901 36.84C49.2701 37.4 48.2901 38.16 47.4501 39.12C46.6501 40.08 46.0301 41.2 45.5901 42.48C45.1501 43.76 44.9701 45.12 45.0501 46.56H40.9701Z" fill="#FF0000"/>
<circle cx="53.7169" cy="53.7169" r="39.9426" transform="rotate(21.4246 53.7169 53.7169)" stroke="#FF0000" stroke-width="3"/>
</svg>
