<svg width="135" height="318" viewBox="0 0 135 318" fill="none" xmlns="http://www.w3.org/2000/svg">
<circle cx="66.4043" cy="32.4044" r="23.5" transform="rotate(21.4246 66.4043 32.4044)" stroke="#FF0000" stroke-width="3"/>
<path d="M70.2175 37.972C69.1507 38.9632 67.7808 39.4651 66.1077 39.4778C64.0374 39.4934 62.4048 38.8417 61.2099 37.5226C60.015 36.197 59.4087 34.3721 59.3911 32.0479C59.3721 29.535 60.0313 27.5931 61.3686 26.2222C62.5315 25.0285 64.0178 24.4248 65.8277 24.4111C68.2495 24.3928 70.0263 25.1736 71.158 26.7537C71.7833 27.6409 72.122 28.5335 72.1744 29.4316L69.1667 29.4544C68.9662 28.7658 68.7116 28.2468 68.4029 27.8976C67.8514 27.2767 67.0385 26.9704 65.9643 26.9785C64.8706 26.9868 64.0113 27.436 63.3865 28.3262C62.7617 29.2098 62.4553 30.4589 62.4676 32.0735C62.4798 33.688 62.821 34.8964 63.4911 35.6986C64.1677 36.4943 65.0203 36.8883 66.0489 36.8805C67.1036 36.8725 67.905 36.5214 68.4532 35.8271C68.7563 35.4537 69.006 34.8952 69.2022 34.1515L72.1807 34.129C71.9321 35.6999 71.2777 36.9809 70.2175 37.972Z" fill="#FF0000"/>
<line x1="66.5" y1="77" x2="66.5" y2="179" stroke="#FF0000" stroke-width="3"/>
<path d="M114 128H16" stroke="#FF0000" stroke-width="3"/>
<path d="M51.375 233.375L55.3333 231L58.5 231.792L61.6667 234.958L63.25 241.292V246.833L60.875 251.583V254.75L52.9583 257.125L50.5833 250.792L49 243.667L51.375 233.375Z" fill="#FF0000"/>
<path d="M60.875 257.917L53.75 260.292V264.25L55.3333 268.208L59.2917 269.792L61.6667 269L63.25 266.625V262.667L60.875 257.917Z" fill="#FF0000"/>
<path d="M86.7499 239.979L83.1541 237.084L79.9088 237.435L76.3384 240.138L73.9027 246.195L73.1439 251.684L74.8461 256.715L74.4125 259.851L81.9293 263.288L85.1492 257.34L87.6933 250.499L86.7499 239.979Z" fill="#FF0000"/>
<path d="M73.9788 262.988L80.7115 266.317L80.1695 270.238L78.0591 273.942L73.9212 274.968L71.677 273.859L70.4338 271.289L70.9758 267.368L73.9788 262.988Z" fill="#FF0000"/>
<circle cx="67.5" cy="250.5" r="50.5763" transform="rotate(21.4246 67.5 250.5)" stroke="#FF0000" stroke-width="3"/>
</svg>
