<svg width="135" height="302" viewBox="0 0 135 302" fill="none" xmlns="http://www.w3.org/2000/svg">
<circle cx="68.4043" cy="57.4044" r="23.5" transform="rotate(21.4246 68.4043 57.4044)" stroke="#FF0000" stroke-width="3"/>
<path d="M72.2175 62.972C71.1507 63.9632 69.7808 64.4651 68.1077 64.4778C66.0374 64.4934 64.4048 63.8417 63.2099 62.5226C62.015 61.197 61.4087 59.3721 61.3911 57.0479C61.3721 54.535 62.0313 52.5931 63.3686 51.2222C64.5315 50.0285 66.0178 49.4248 67.8277 49.4111C70.2495 49.3928 72.0263 50.1736 73.158 51.7537C73.7833 52.6409 74.122 53.5335 74.1744 54.4316L71.1667 54.4544C70.9662 53.7658 70.7116 53.2468 70.4029 52.8976C69.8514 52.2767 69.0385 51.9704 67.9643 51.9785C66.8706 51.9868 66.0113 52.436 65.3865 53.3262C64.7617 54.2098 64.4553 55.4589 64.4676 57.0735C64.4798 58.688 64.821 59.8964 65.4911 60.6986C66.1677 61.4943 67.0203 61.8883 68.0489 61.8805C69.1036 61.8725 69.905 61.5214 70.4532 60.8271C70.7563 60.4537 71.006 59.8952 71.2022 59.1515L74.1807 59.129C73.9321 60.6999 73.2777 61.9809 72.2175 62.972Z" fill="#FF0000"/>
<line x1="68.5" y1="82" x2="68.5" y2="184" stroke="#FF0000" stroke-width="3"/>
<path d="M116 133H18" stroke="#FF0000" stroke-width="3"/>
<path d="M51.375 217.375L55.3333 215L58.5 215.792L61.6667 218.958L63.25 225.292V230.833L60.875 235.583V238.75L52.9583 241.125L50.5833 234.792L49 227.667L51.375 217.375Z" fill="#FF0000"/>
<path d="M60.875 241.917L53.75 244.292V248.25L55.3333 252.208L59.2917 253.792L61.6667 253L63.25 250.625V246.667L60.875 241.917Z" fill="#FF0000"/>
<path d="M86.7499 223.979L83.1541 221.084L79.9088 221.435L76.3384 224.138L73.9027 230.195L73.1439 235.684L74.8461 240.715L74.4125 243.851L81.9293 247.288L85.1492 241.34L87.6933 234.499L86.7499 223.979Z" fill="#FF0000"/>
<path d="M73.9788 246.988L80.7115 250.317L80.1695 254.238L78.0591 257.942L73.9212 258.968L71.677 257.859L70.4338 255.289L70.9758 251.368L73.9788 246.988Z" fill="#FF0000"/>
<circle cx="67.5" cy="234.5" r="50.5763" transform="rotate(21.4246 67.5 234.5)" stroke="#FF0000" stroke-width="3"/>
</svg>
