<svg width="108" height="254" viewBox="0 0 108 254" fill="none" xmlns="http://www.w3.org/2000/svg">
<circle cx="54.4044" cy="127.404" r="23.5" transform="rotate(21.4246 54.4044 127.404)" stroke="#FF0000" stroke-width="3"/>
<path d="M58.2175 132.972C57.1507 133.963 55.7808 134.465 54.1077 134.478C52.0374 134.493 50.4048 133.842 49.2099 132.523C48.015 131.197 47.4087 129.372 47.3911 127.048C47.3721 124.535 48.0313 122.593 49.3686 121.222C50.5315 120.029 52.0178 119.425 53.8277 119.411C56.2495 119.393 58.0263 120.174 59.158 121.754C59.7833 122.641 60.122 123.534 60.1744 124.432L57.1667 124.454C56.9662 123.766 56.7116 123.247 56.4029 122.898C55.8514 122.277 55.0385 121.97 53.9643 121.979C52.8706 121.987 52.0113 122.436 51.3865 123.326C50.7617 124.21 50.4553 125.459 50.4676 127.073C50.4798 128.688 50.821 129.896 51.4911 130.699C52.1677 131.494 53.0203 131.888 54.0489 131.88C55.1036 131.873 55.905 131.521 56.4532 130.827C56.7563 130.454 57.006 129.895 57.2022 129.151L60.1807 129.129C59.9321 130.7 59.2777 131.981 58.2175 132.972Z" fill="#FF0000"/>
<path d="M9.25469 72.5095C34.2482 47.5159 74.7708 47.5159 99.7644 72.5095" stroke="#FF0000" stroke-width="3"/>
<path d="M1.99997 52.3822C30.9299 23.4523 77.8345 23.4523 106.764 52.3822" stroke="#FF0000" stroke-width="3"/>
<path d="M20.5095 92.637C39.3576 73.7889 69.9164 73.7889 88.7644 92.637" stroke="#FF0000" stroke-width="3"/>
<path d="M99.5097 181.255C74.5162 206.248 33.9936 206.248 9.00005 181.255" stroke="#FF0000" stroke-width="3"/>
<path d="M106.764 201.382C77.8345 230.312 30.9299 230.312 1.99997 201.382" stroke="#FF0000" stroke-width="3"/>
<path d="M88.2549 161.127C69.4068 179.975 38.8481 179.975 20 161.127" stroke="#FF0000" stroke-width="3"/>
</svg>
