<svg width="150" height="150" viewBox="0 0 150 150" fill="none" xmlns="http://www.w3.org/2000/svg">
<circle cx="75" cy="75" r="23.5" stroke="#FF0000" stroke-width="3"/>
<path d="M0 75H10H40M150 75H140H110" stroke="#FF0000" stroke-width="3"/>
<path d="M10 113L45 92.7927M139.904 38L105.263 58" stroke="#FF0000" stroke-width="3"/>
<path d="M10 38L44.5 57.9186M139.904 113L105 92.8483" stroke="#FF0000" stroke-width="3"/>
<path d="M37 139.904L57.1517 105M112 10L92.0814 44.5" stroke="#FF0000" stroke-width="3"/>
<path d="M36.9999 10.0001L57.2071 45.0001M112 139.904L92.137 105.5" stroke="#FF0000" stroke-width="3"/>
<path d="M75 150V140V110M75 0V10L75 40.5" stroke="#FF0000" stroke-width="3"/>
<path d="M75.522 80.462C71.98 80.462 70 78.13 70 74.698C70 71.288 72.244 69 75.544 69C77.436 69 79.372 69.77 80.34 71.794L77.722 72.74C77.348 71.838 76.578 71.442 75.698 71.442C74.422 71.442 73.19 72.322 73.19 74.698C73.19 77.14 74.444 78.02 75.698 78.02C76.666 78.02 77.348 77.58 77.744 76.92L80.318 77.844C79.24 79.736 77.282 80.462 75.522 80.462Z" fill="#FF0000"/>
</svg>
