<svg width="150" height="150" viewBox="0 0 150 150" fill="none" xmlns="http://www.w3.org/2000/svg">
<circle cx="75" cy="75" r="23.5" stroke="#FF0000" stroke-width="3"/>
<path d="M0 75H10H20M150 75H140H130" stroke="#FF0000" stroke-width="3"/>
<path d="M10 113L18.6603 108M139.904 38L131.244 43" stroke="#FF0000" stroke-width="3"/>
<path d="M10 38L18.6603 43M139.904 113L131.244 108" stroke="#FF0000" stroke-width="3"/>
<path d="M37 139.904L42 131.244M112 10L107 18.6603" stroke="#FF0000" stroke-width="3"/>
<path d="M37 10L42 18.6603M112 139.904L107 131.244" stroke="#FF0000" stroke-width="3"/>
<path d="M75 150V140V130M75 0V10V20" stroke="#FF0000" stroke-width="3"/>
<rect x="50.5" y="51.5" width="48" height="48" stroke="#FF0000" stroke-width="3"/>
<circle cx="75.5" cy="74.5" r="39" stroke="#FF0000" stroke-width="3"/>
<rect x="34.5" y="35.5" width="80" height="80" stroke="#FF0000" stroke-width="3"/>
<path d="M64.2955 79.156C62.9395 79.156 61.8355 78.616 61.4035 77.632L62.8675 77.104C63.0115 77.62 63.6355 77.908 64.3195 77.908C64.9195 77.908 65.4595 77.692 65.4595 77.272C65.4595 76.984 65.2195 76.804 64.4995 76.672L63.5275 76.504C62.3995 76.288 61.6195 75.748 61.6195 74.764C61.6195 73.54 62.8915 72.892 64.2835 72.892C65.4115 72.892 66.4675 73.264 66.9115 74.248L65.4595 74.776C65.2795 74.332 64.8355 74.128 64.2355 74.128C63.5995 74.128 63.2395 74.356 63.2395 74.68C63.2395 74.968 63.4555 75.112 64.0075 75.208L65.0155 75.4C66.4195 75.664 67.0915 76.108 67.0915 77.164C67.0915 78.472 65.8315 79.156 64.2955 79.156ZM70.3167 79C68.9007 79 68.4327 78.724 68.4327 77.344V74.344H67.4487V73.048H68.4327V71.56H70.1247V73.048H71.4087V74.344H70.1247V76.924C70.1247 77.5 70.2927 77.608 70.8687 77.608H71.4087V79H70.3167ZM74.1801 79.144C73.0401 79.144 72.1161 78.484 72.1161 77.404C72.1161 76 73.7001 75.448 76.1361 75.268V75.088C76.1361 74.392 75.7521 74.056 75.0321 74.056C74.4921 74.056 74.0721 74.308 73.9521 74.8L72.5121 74.296C72.8841 73.48 73.8201 72.892 75.1161 72.892C76.8201 72.892 77.7561 73.588 77.7561 75.364V76.684C77.7561 77.5 77.8521 78.472 77.9601 79H76.3881L76.1721 78.268C75.7401 78.88 75.0561 79.144 74.1801 79.144ZM74.7921 77.968C75.5601 77.968 76.1361 77.644 76.1361 76.552V76.312C74.7081 76.408 73.8801 76.66 73.8801 77.284C73.8801 77.692 74.2521 77.968 74.7921 77.968ZM79.1329 79V73.048H80.4649L80.7889 74.14C81.1609 73.216 81.8089 72.856 82.7329 72.892V74.596C81.4369 74.464 80.8249 74.908 80.8249 76.072V79H79.1329ZM86.3011 79C84.8851 79 84.4171 78.724 84.4171 77.344V74.344H83.4331V73.048H84.4171V71.56H86.1091V73.048H87.3931V74.344H86.1091V76.924C86.1091 77.5 86.2771 77.608 86.8531 77.608H87.3931V79H86.3011Z" fill="#FF0000"/>
</svg>
