<svg width="150" height="185" viewBox="0 0 150 185" fill="none" xmlns="http://www.w3.org/2000/svg">
<circle cx="75" cy="75" r="23.5" stroke="#FF0000" stroke-width="3"/>
<path d="M0 75H10H20M150 75H140H130" stroke="#FF0000" stroke-width="3"/>
<path d="M10 113L18.6603 108M139.904 38L131.244 43" stroke="#FF0000" stroke-width="3"/>
<path d="M10 38L18.6603 43M139.904 113L131.244 108" stroke="#FF0000" stroke-width="3"/>
<path d="M37 139.904L42 131.244M112 10L107 18.6603" stroke="#FF0000" stroke-width="3"/>
<path d="M37 10L42 18.6603M112 139.904L107 131.244" stroke="#FF0000" stroke-width="3"/>
<path d="M75 150V140V130M75 0V10V20" stroke="#FF0000" stroke-width="3"/>
<path d="M76.0607 73.9393C75.4749 73.3536 74.5251 73.3536 73.9393 73.9393L64.3934 83.4853C63.8076 84.0711 63.8076 85.0208 64.3934 85.6066C64.9792 86.1924 65.9289 86.1924 66.5147 85.6066L75 77.1213L83.4853 85.6066C84.0711 86.1924 85.0208 86.1924 85.6066 85.6066C86.1924 85.0208 86.1924 84.0711 85.6066 83.4853L76.0607 73.9393ZM76.5 185L76.5 75L73.5 75L73.5 185L76.5 185Z" fill="#FF0000"/>
</svg>
