<svg width="150" height="150" viewBox="0 0 150 150" fill="none" xmlns="http://www.w3.org/2000/svg">
<circle cx="75" cy="75" r="23.5" stroke="#FF0000" stroke-width="3"/>
<path d="M0 75H10H20M150 75H140H130" stroke="#FF0000" stroke-width="3"/>
<path d="M10 113L18.6603 108M139.904 38L131.244 43" stroke="#FF0000" stroke-width="3"/>
<path d="M10 38L18.6603 43M139.904 113L131.244 108" stroke="#FF0000" stroke-width="3"/>
<path d="M37 139.904L42 131.244M112 10L107 18.6603" stroke="#FF0000" stroke-width="3"/>
<path d="M37 10L42 18.6603M112 139.904L107 131.244" stroke="#FF0000" stroke-width="3"/>
<path d="M75 0V10V20" stroke="#FF0000" stroke-width="3"/>
<path d="M76.0607 111.939C75.4749 111.354 74.5251 111.354 73.9393 111.939L64.3934 121.485C63.8076 122.071 63.8076 123.021 64.3934 123.607C64.9792 124.192 65.9289 124.192 66.5147 123.607L75 115.121L83.4853 123.607C84.0711 124.192 85.0208 124.192 85.6066 123.607C86.1924 123.021 86.1924 122.071 85.6066 121.485L76.0607 111.939ZM75 150L76.5 150L76.5 113L75 113L73.5 113L73.5 150L75 150Z" fill="#FF0000"/>
</svg>
