<svg width="150" height="152" viewBox="0 0 150 152" fill="none" xmlns="http://www.w3.org/2000/svg">
<circle cx="75" cy="75" r="23.5" stroke="#FF0000" stroke-width="3"/>
<path d="M0 75H10H20M150 75H140H130" stroke="#FF0000" stroke-width="3"/>
<path d="M10 113L18.6603 108M139.904 38L131.244 43" stroke="#FF0000" stroke-width="3"/>
<path d="M10 38L18.6603 43M139.904 113L131.244 108" stroke="#FF0000" stroke-width="3"/>
<path d="M37 139.904L42 131.244M112 10L107 18.6603" stroke="#FF0000" stroke-width="3"/>
<path d="M37 10L42 18.6603M112 139.904L107 131.244" stroke="#FF0000" stroke-width="3"/>
<path d="M75 0V10V20" stroke="#FF0000" stroke-width="3"/>
<path d="M76.0607 151.061C75.4749 151.646 74.5251 151.646 73.9393 151.061L64.3934 141.515C63.8076 140.929 63.8076 139.979 64.3934 139.393C64.9792 138.808 65.9289 138.808 66.5147 139.393L75 147.879L83.4853 139.393C84.0711 138.808 85.0208 138.808 85.6066 139.393C86.1924 139.979 86.1924 140.929 85.6066 141.515L76.0607 151.061ZM75 113L76.5 113L76.5 150L75 150L73.5 150L73.5 113L75 113Z" fill="#FF0000"/>
</svg>
