<svg width="174" height="174" viewBox="0 0 174 174" fill="none" xmlns="http://www.w3.org/2000/svg">
<path d="M83.0901 80.48C84.8901 80.48 86.5301 80.38 88.0101 80.18C89.4901 79.94 90.7501 79.52 91.7901 78.92C92.8701 78.28 93.7101 77.44 94.3101 76.4C94.9101 75.36 95.2101 74.02 95.2101 72.38C95.2101 71.06 94.9701 69.94 94.4901 69.02C94.0101 68.06 93.3501 67.28 92.5101 66.68C91.7101 66.08 90.7501 65.64 89.6301 65.36C88.5501 65.08 87.4101 64.94 86.2101 64.94C84.8501 64.94 83.6101 65.16 82.4901 65.6C81.4101 66.04 80.4701 66.68 79.6701 67.52C78.8701 68.32 78.2501 69.28 77.8101 70.4C77.3701 71.48 77.1501 72.68 77.1501 74H73.3101C73.3101 72.08 73.6301 70.36 74.2701 68.84C74.9501 67.28 75.9901 65.84 77.3901 64.52C78.7101 63.32 80.1901 62.56 81.8301 62.24C83.5101 61.88 85.2301 61.7 86.9901 61.7C88.6701 61.7 90.2301 61.92 91.6701 62.36C93.1501 62.76 94.4301 63.4 95.5101 64.28C96.5901 65.12 97.4501 66.2 98.0901 67.52C98.7301 68.84 99.0501 70.38 99.0501 72.14C99.0501 74.34 98.5501 76.24 97.5501 77.84C96.5901 79.44 95.0901 80.68 93.0501 81.56C94.5701 82.04 95.8101 82.68 96.7701 83.48C97.7701 84.24 98.5501 85.1 99.1101 86.06C99.6701 86.98 100.05 87.96 100.25 89C100.45 90.04 100.55 91.04 100.55 92C100.55 93.76 100.25 95.4 99.6501 96.92C99.0501 98.44 98.1701 99.78 97.0101 100.94C95.8501 102.1 94.4101 103.04 92.6901 103.76C91.0101 104.44 89.0901 104.8 86.9301 104.84C84.4901 104.84 82.3701 104.62 80.5701 104.18C78.7701 103.74 77.2701 103.02 76.0701 102.02C74.8701 100.98 73.9301 99.64 73.2501 98C72.5701 96.32 72.1101 94.24 71.8701 91.76H75.7101C75.7101 95 76.6701 97.46 78.5901 99.14C80.5501 100.78 83.0901 101.6 86.2101 101.6C87.7301 101.6 89.1501 101.34 90.4701 100.82C91.7901 100.3 92.9101 99.6 93.8301 98.72C94.7901 97.84 95.5101 96.82 95.9901 95.66C96.5101 94.5 96.7501 93.3 96.7101 92.06C96.6301 90.34 96.2301 88.92 95.5101 87.8C94.7901 86.64 93.8101 85.74 92.5701 85.1C91.3701 84.42 89.9501 83.98 88.3101 83.78C86.6701 83.54 84.9301 83.48 83.0901 83.6V80.48Z" fill="#FF0000"/>
<circle cx="86.8437" cy="86.8437" r="65.5" transform="rotate(21.4246 86.8437 86.8437)" stroke="#FF0000" stroke-width="3"/>
</svg>
