<svg width="174" height="174" viewBox="0 0 174 174" fill="none" xmlns="http://www.w3.org/2000/svg">
<path d="M76.84 96.9C77.24 99.78 78.38 101.94 80.26 103.38C82.18 104.78 84.52 105.48 87.28 105.48C88.84 105.48 90.24 105.2 91.48 104.64C92.76 104.08 93.84 103.32 94.72 102.36C95.6 101.36 96.26 100.22 96.7 98.94C97.18 97.62 97.42 96.2 97.42 94.68C97.42 93.12 97.16 91.68 96.64 90.36C96.16 89.04 95.46 87.9 94.54 86.94C93.66 85.98 92.56 85.24 91.24 84.72C89.96 84.2 88.52 83.94 86.92 83.94C85 83.94 83.28 84.3 81.76 85.02C80.24 85.7 78.9 86.8 77.74 88.32L74.56 87.9L77.98 66H98.98V69.24H81.22L78.58 83.46C79.42 82.94 80.18 82.5 80.86 82.14C81.58 81.78 82.3 81.5 83.02 81.3C83.74 81.06 84.48 80.9 85.24 80.82C86.04 80.74 86.92 80.7 87.88 80.7C89.8 80.7 91.58 81.02 93.22 81.66C94.86 82.3 96.28 83.22 97.48 84.42C98.68 85.62 99.6 87.1 100.24 88.86C100.92 90.58 101.26 92.52 101.26 94.68C101.26 96.92 100.88 98.92 100.12 100.68C99.4 102.4 98.42 103.86 97.18 105.06C95.94 106.26 94.5 107.18 92.86 107.82C91.26 108.42 89.6 108.72 87.88 108.72C85.88 108.72 84 108.52 82.24 108.12C80.52 107.72 79 107.06 77.68 106.14C76.36 105.18 75.28 103.96 74.44 102.48C73.64 100.96 73.16 99.1 73 96.9H76.84Z" fill="#FF0000"/>
<circle cx="86.8437" cy="86.8437" r="65.5" transform="rotate(21.4246 86.8437 86.8437)" stroke="#FF0000" stroke-width="3"/>
</svg>
