<svg width="270" height="261" viewBox="0 0 270 261" fill="none" xmlns="http://www.w3.org/2000/svg">
<circle cx="182.844" cy="86.8437" r="65.5" transform="rotate(21.4246 182.844 86.8437)" stroke="#FF0000" stroke-width="3"/>
<path d="M179.09 82.48C180.89 82.48 182.53 82.38 184.01 82.18C185.49 81.94 186.75 81.52 187.79 80.92C188.87 80.28 189.71 79.44 190.31 78.4C190.91 77.36 191.21 76.02 191.21 74.38C191.21 73.06 190.97 71.94 190.49 71.02C190.01 70.06 189.35 69.28 188.51 68.68C187.71 68.08 186.75 67.64 185.63 67.36C184.55 67.08 183.41 66.94 182.21 66.94C180.85 66.94 179.61 67.16 178.49 67.6C177.41 68.04 176.47 68.68 175.67 69.52C174.87 70.32 174.25 71.28 173.81 72.4C173.37 73.48 173.15 74.68 173.15 76H169.31C169.31 74.08 169.63 72.36 170.27 70.84C170.95 69.28 171.99 67.84 173.39 66.52C174.71 65.32 176.19 64.56 177.83 64.24C179.51 63.88 181.23 63.7 182.99 63.7C184.67 63.7 186.23 63.92 187.67 64.36C189.15 64.76 190.43 65.4 191.51 66.28C192.59 67.12 193.45 68.2 194.09 69.52C194.73 70.84 195.05 72.38 195.05 74.14C195.05 76.34 194.55 78.24 193.55 79.84C192.59 81.44 191.09 82.68 189.05 83.56C190.57 84.04 191.81 84.68 192.77 85.48C193.77 86.24 194.55 87.1 195.11 88.06C195.67 88.98 196.05 89.96 196.25 91C196.45 92.04 196.55 93.04 196.55 94C196.55 95.76 196.25 97.4 195.65 98.92C195.05 100.44 194.17 101.78 193.01 102.94C191.85 104.1 190.41 105.04 188.69 105.76C187.01 106.44 185.09 106.8 182.93 106.84C180.49 106.84 178.37 106.62 176.57 106.18C174.77 105.74 173.27 105.02 172.07 104.02C170.87 102.98 169.93 101.64 169.25 100C168.57 98.32 168.11 96.24 167.87 93.76H171.71C171.71 97 172.67 99.46 174.59 101.14C176.55 102.78 179.09 103.6 182.21 103.6C183.73 103.6 185.15 103.34 186.47 102.82C187.79 102.3 188.91 101.6 189.83 100.72C190.79 99.84 191.51 98.82 191.99 97.66C192.51 96.5 192.75 95.3 192.71 94.06C192.63 92.34 192.23 90.92 191.51 89.8C190.79 88.64 189.81 87.74 188.57 87.1C187.37 86.42 185.95 85.98 184.31 85.78C182.67 85.54 180.93 85.48 179.09 85.6V82.48Z" fill="#FF0000"/>
<circle cx="86.8437" cy="86.8437" r="65.5" transform="rotate(21.4246 86.8437 86.8437)" stroke="#FF0000" stroke-width="3"/>
<path d="M73.9701 77.56C73.9701 75.48 74.2901 73.6 74.9301 71.92C75.5701 70.2 76.4901 68.74 77.6901 67.54C78.8901 66.3 80.3301 65.36 82.0101 64.72C83.7301 64.04 85.6301 63.7 87.7101 63.7C89.8301 63.7 91.6901 64.02 93.2901 64.66C94.9301 65.26 96.2901 66.08 97.3701 67.12C98.4901 68.16 99.3301 69.4 99.8901 70.84C100.45 72.28 100.73 73.8 100.73 75.4C100.73 77.28 100.41 78.94 99.7701 80.38C99.1701 81.82 98.3501 83.1 97.3101 84.22C96.3101 85.34 95.1501 86.34 93.8301 87.22C92.5501 88.1 91.2301 88.94 89.8701 89.74C88.5101 90.5 87.1701 91.24 85.8501 91.96C84.5301 92.68 83.3501 93.44 82.3101 94.24C81.6301 94.76 80.9701 95.32 80.3301 95.92C79.6901 96.48 79.1101 97.1 78.5901 97.78C78.0701 98.46 77.6501 99.22 77.3301 100.06C77.0101 100.86 76.8301 101.76 76.7901 102.76H100.37V106H72.7101C72.7501 103.96 72.9701 102.12 73.3701 100.48C73.7701 98.84 74.6501 97.24 76.0101 95.68C77.4901 94 79.0101 92.56 80.5701 91.36C82.1701 90.16 83.7301 89.1 85.2501 88.18C86.7701 87.22 88.2101 86.36 89.5701 85.6C90.9301 84.8 92.1301 83.94 93.1701 83.02C94.2101 82.1 95.0301 81.06 95.6301 79.9C96.2301 78.74 96.5301 77.32 96.5301 75.64C96.5301 74.28 96.2901 73.06 95.8101 71.98C95.3301 70.9 94.6701 69.98 93.8301 69.22C92.9901 68.46 92.0101 67.9 90.8901 67.54C89.7701 67.14 88.5501 66.94 87.2301 66.94C85.8301 66.94 84.5501 67.24 83.3901 67.84C82.2701 68.4 81.2901 69.16 80.4501 70.12C79.6501 71.08 79.0301 72.2 78.5901 73.48C78.1501 74.76 77.9701 76.12 78.0501 77.56H73.9701Z" fill="#FF0000"/>
<circle cx="135.844" cy="173.844" r="65.5" transform="rotate(21.4246 135.844 173.844)" stroke="#FF0000" stroke-width="3"/>
<path d="M136.95 161.56H126.03V159.04C127.63 158.92 129.07 158.76 130.35 158.56C131.67 158.36 132.81 157.98 133.77 157.42C134.77 156.86 135.59 156.06 136.23 155.02C136.91 153.94 137.41 152.5 137.73 150.7H140.79V193H136.95V161.56Z" fill="#FF0000"/>
</svg>
