<svg width="174" height="174" viewBox="0 0 174 174" fill="none" xmlns="http://www.w3.org/2000/svg">
<path d="M73.9701 76.56C73.9701 74.48 74.2901 72.6 74.9301 70.92C75.5701 69.2 76.4901 67.74 77.6901 66.54C78.8901 65.3 80.3301 64.36 82.0101 63.72C83.7301 63.04 85.6301 62.7 87.7101 62.7C89.8301 62.7 91.6901 63.02 93.2901 63.66C94.9301 64.26 96.2901 65.08 97.3701 66.12C98.4901 67.16 99.3301 68.4 99.8901 69.84C100.45 71.28 100.73 72.8 100.73 74.4C100.73 76.28 100.41 77.94 99.7701 79.38C99.1701 80.82 98.3501 82.1 97.3101 83.22C96.3101 84.34 95.1501 85.34 93.8301 86.22C92.5501 87.1 91.2301 87.94 89.8701 88.74C88.5101 89.5 87.1701 90.24 85.8501 90.96C84.5301 91.68 83.3501 92.44 82.3101 93.24C81.6301 93.76 80.9701 94.32 80.3301 94.92C79.6901 95.48 79.1101 96.1 78.5901 96.78C78.0701 97.46 77.6501 98.22 77.3301 99.06C77.0101 99.86 76.8301 100.76 76.7901 101.76H100.37V105H72.7101C72.7501 102.96 72.9701 101.12 73.3701 99.48C73.7701 97.84 74.6501 96.24 76.0101 94.68C77.4901 93 79.0101 91.56 80.5701 90.36C82.1701 89.16 83.7301 88.1 85.2501 87.18C86.7701 86.22 88.2101 85.36 89.5701 84.6C90.9301 83.8 92.1301 82.94 93.1701 82.02C94.2101 81.1 95.0301 80.06 95.6301 78.9C96.2301 77.74 96.5301 76.32 96.5301 74.64C96.5301 73.28 96.2901 72.06 95.8101 70.98C95.3301 69.9 94.6701 68.98 93.8301 68.22C92.9901 67.46 92.0101 66.9 90.8901 66.54C89.7701 66.14 88.5501 65.94 87.2301 65.94C85.8301 65.94 84.5501 66.24 83.3901 66.84C82.2701 67.4 81.2901 68.16 80.4501 69.12C79.6501 70.08 79.0301 71.2 78.5901 72.48C78.1501 73.76 77.9701 75.12 78.0501 76.56H73.9701Z" fill="#FF0000"/>
<circle cx="86.8437" cy="86.8437" r="65.5" transform="rotate(21.4246 86.8437 86.8437)" stroke="#FF0000" stroke-width="3"/>
</svg>
