<svg width="174" height="174" viewBox="0 0 174 174" fill="none" xmlns="http://www.w3.org/2000/svg">
<g filter="url(#filter0_i_471_498)">
<path d="M20 87C20 73.7486 23.9295 60.7949 31.2915 49.7768C38.6536 38.7587 49.1176 30.1711 61.3602 25.1001C73.6029 20.029 87.0743 18.7022 100.071 21.2874C113.068 23.8726 125.006 30.2537 134.376 39.6238C143.746 48.9939 150.127 60.9322 152.713 73.9289C155.298 86.9256 153.971 100.397 148.9 112.64C143.829 124.882 135.241 135.346 124.223 142.708C113.205 150.071 100.251 154 87 154L87 87L20 87Z" fill="white"/>
</g>
<g filter="url(#filter1_i_471_498)">
<path d="M87 20C100.251 20 113.205 23.9295 124.223 31.2915C135.241 38.6536 143.829 49.1175 148.9 61.3602C153.971 73.6028 155.298 87.0743 152.713 100.071C150.127 113.068 143.746 125.006 134.376 134.376C125.006 143.746 113.068 150.127 100.071 152.713C87.0744 155.298 73.6029 153.971 61.3603 148.9C49.1176 143.829 38.6537 135.241 31.2916 124.223C23.9295 113.205 20 100.251 20 87.0001L87 87L87 20Z" fill="white"/>
</g>
<g filter="url(#filter2_i_471_498)">
<path d="M20 87C20 95.7986 21.733 104.511 25.1001 112.64C28.4671 120.769 33.4023 128.155 39.6238 134.376C45.8454 140.598 53.2314 145.533 61.3602 148.9C69.489 152.267 78.2014 154 87 154L87 87L20 87Z" fill="white"/>
</g>
<g filter="url(#filter3_i_471_498)">
<path d="M154 87C154 78.2014 152.267 69.489 148.9 61.3602C145.533 53.2314 140.598 45.8454 134.376 39.6238C128.155 33.4023 120.769 28.4671 112.64 25.1001C104.511 21.733 95.7986 20 87 20L87 87L154 87Z" fill="white"/>
</g>
<g filter="url(#filter4_i_471_498)">
<path d="M154 87C154 78.2014 152.267 69.489 148.9 61.3602C145.533 53.2314 140.598 45.8454 134.376 39.6238L87 87L154 87Z" fill="white"/>
</g>
<defs>
<filter id="filter0_i_471_498" x="20" y="20" width="134" height="134" filterUnits="userSpaceOnUse" color-interpolation-filters="sRGB">
<feFlood flood-opacity="0" result="BackgroundImageFix"/>
<feBlend mode="normal" in="SourceGraphic" in2="BackgroundImageFix" result="shape"/>
<feColorMatrix in="SourceAlpha" type="matrix" values="0 0 0 0 0 0 0 0 0 0 0 0 0 0 0 0 0 0 127 0" result="hardAlpha"/>
<feMorphology radius="14" operator="erode" in="SourceAlpha" result="effect1_innerShadow_471_498"/>
<feOffset/>
<feGaussianBlur stdDeviation="17.5"/>
<feComposite in2="hardAlpha" operator="arithmetic" k2="-1" k3="1"/>
<feColorMatrix type="matrix" values="0 0 0 0 0.38024 0 0 0 0 0.421557 0 0 0 0 1 0 0 0 1 0"/>
<feBlend mode="normal" in2="shape" result="effect1_innerShadow_471_498"/>
</filter>
<filter id="filter1_i_471_498" x="20" y="20" width="134" height="134" filterUnits="userSpaceOnUse" color-interpolation-filters="sRGB">
<feFlood flood-opacity="0" result="BackgroundImageFix"/>
<feBlend mode="normal" in="SourceGraphic" in2="BackgroundImageFix" result="shape"/>
<feColorMatrix in="SourceAlpha" type="matrix" values="0 0 0 0 0 0 0 0 0 0 0 0 0 0 0 0 0 0 127 0" result="hardAlpha"/>
<feMorphology radius="14" operator="erode" in="SourceAlpha" result="effect1_innerShadow_471_498"/>
<feOffset/>
<feGaussianBlur stdDeviation="17.5"/>
<feComposite in2="hardAlpha" operator="arithmetic" k2="-1" k3="1"/>
<feColorMatrix type="matrix" values="0 0 0 0 0.38024 0 0 0 0 0.421557 0 0 0 0 1 0 0 0 1 0"/>
<feBlend mode="normal" in2="shape" result="effect1_innerShadow_471_498"/>
</filter>
<filter id="filter2_i_471_498" x="20" y="87" width="67" height="67" filterUnits="userSpaceOnUse" color-interpolation-filters="sRGB">
<feFlood flood-opacity="0" result="BackgroundImageFix"/>
<feBlend mode="normal" in="SourceGraphic" in2="BackgroundImageFix" result="shape"/>
<feColorMatrix in="SourceAlpha" type="matrix" values="0 0 0 0 0 0 0 0 0 0 0 0 0 0 0 0 0 0 127 0" result="hardAlpha"/>
<feMorphology radius="14" operator="erode" in="SourceAlpha" result="effect1_innerShadow_471_498"/>
<feOffset/>
<feGaussianBlur stdDeviation="17.5"/>
<feComposite in2="hardAlpha" operator="arithmetic" k2="-1" k3="1"/>
<feColorMatrix type="matrix" values="0 0 0 0 1 0 0 0 0 0 0 0 0 0 0 0 0 0 1 0"/>
<feBlend mode="normal" in2="shape" result="effect1_innerShadow_471_498"/>
</filter>
<filter id="filter3_i_471_498" x="87" y="20" width="67" height="67" filterUnits="userSpaceOnUse" color-interpolation-filters="sRGB">
<feFlood flood-opacity="0" result="BackgroundImageFix"/>
<feBlend mode="normal" in="SourceGraphic" in2="BackgroundImageFix" result="shape"/>
<feColorMatrix in="SourceAlpha" type="matrix" values="0 0 0 0 0 0 0 0 0 0 0 0 0 0 0 0 0 0 127 0" result="hardAlpha"/>
<feMorphology radius="14" operator="erode" in="SourceAlpha" result="effect1_innerShadow_471_498"/>
<feOffset/>
<feGaussianBlur stdDeviation="17.5"/>
<feComposite in2="hardAlpha" operator="arithmetic" k2="-1" k3="1"/>
<feColorMatrix type="matrix" values="0 0 0 0 1 0 0 0 0 0 0 0 0 0 0 0 0 0 1 0"/>
<feBlend mode="normal" in2="shape" result="effect1_innerShadow_471_498"/>
</filter>
<filter id="filter4_i_471_498" x="87" y="39.6238" width="67" height="47.3762" filterUnits="userSpaceOnUse" color-interpolation-filters="sRGB">
<feFlood flood-opacity="0" result="BackgroundImageFix"/>
<feBlend mode="normal" in="SourceGraphic" in2="BackgroundImageFix" result="shape"/>
<feColorMatrix in="SourceAlpha" type="matrix" values="0 0 0 0 0 0 0 0 0 0 0 0 0 0 0 0 0 0 127 0" result="hardAlpha"/>
<feMorphology radius="4" operator="erode" in="SourceAlpha" result="effect1_innerShadow_471_498"/>
<feOffset/>
<feGaussianBlur stdDeviation="4.45"/>
<feComposite in2="hardAlpha" operator="arithmetic" k2="-1" k3="1"/>
<feColorMatrix type="matrix" values="0 0 0 0 1 0 0 0 0 1 0 0 0 0 0 0 0 0 1 0"/>
<feBlend mode="normal" in2="shape" result="effect1_innerShadow_471_498"/>
</filter>
</defs>
</svg>
