<svg width="270" height="261" viewBox="0 0 270 261" fill="none" xmlns="http://www.w3.org/2000/svg">
<g filter="url(#filter0_f_451_282)">
<g filter="url(#filter1_i_451_282)">
<path d="M158.974 147.873C192.649 161.087 230.66 144.5 243.873 110.825C257.087 77.1502 240.5 39.1394 206.825 25.9256C173.15 12.7119 135.139 29.2989 121.926 62.9739C108.712 96.6488 125.299 134.66 158.974 147.873Z" fill="white"/>
</g>
<path d="M158.974 147.873C192.649 161.087 230.66 144.5 243.873 110.825C257.087 77.1502 240.5 39.1394 206.825 25.9256C173.15 12.7119 135.139 29.2989 121.926 62.9739C108.712 96.6488 125.299 134.66 158.974 147.873Z" stroke="#616BFF" stroke-width="3"/>
<g filter="url(#filter2_i_451_282)">
<path d="M61.9739 147.873C95.6488 161.087 133.66 144.5 146.873 110.825C160.087 77.1502 143.5 39.1394 109.825 25.9256C76.1501 12.7119 38.1393 29.2989 24.9256 62.9739C11.7118 96.6488 28.2989 134.66 61.9739 147.873Z" fill="white"/>
</g>
<path d="M61.9739 147.873C95.6488 161.087 133.66 144.5 146.873 110.825C160.087 77.1502 143.5 39.1394 109.825 25.9256C76.1501 12.7119 38.1393 29.2989 24.9256 62.9739C11.7118 96.6488 28.2989 134.66 61.9739 147.873Z" stroke="#FF0000" stroke-width="3"/>
<g filter="url(#filter3_i_451_282)">
<path d="M111.974 234.873C145.649 248.087 183.66 231.5 196.873 197.825C210.087 164.15 193.5 126.139 159.825 112.926C126.15 99.7119 88.1393 116.299 74.9256 149.974C61.7118 183.649 78.2989 221.66 111.974 234.873Z" fill="white"/>
</g>
<path d="M111.974 234.873C145.649 248.087 183.66 231.5 196.873 197.825C210.087 164.15 193.5 126.139 159.825 112.926C126.15 99.7119 88.1393 116.299 74.9256 149.974C61.7118 183.649 78.2989 221.66 111.974 234.873Z" stroke="#616BFF" stroke-width="3"/>
</g>
<defs>
<filter id="filter0_f_451_282" x="-11.4" y="-11.4" width="292.487" height="283.487" filterUnits="userSpaceOnUse" color-interpolation-filters="sRGB">
<feFlood flood-opacity="0" result="BackgroundImageFix"/>
<feBlend mode="normal" in="SourceGraphic" in2="BackgroundImageFix" result="shape"/>
<feGaussianBlur stdDeviation="0" result="effect1_foregroundBlur_451_282"/>
</filter>
<filter id="filter1_i_451_282" x="115.881" y="19.8813" width="134.036" height="134.036" filterUnits="userSpaceOnUse" color-interpolation-filters="sRGB">
<feFlood flood-opacity="0" result="BackgroundImageFix"/>
<feBlend mode="normal" in="SourceGraphic" in2="BackgroundImageFix" result="shape"/>
<feColorMatrix in="SourceAlpha" type="matrix" values="0 0 0 0 0 0 0 0 0 0 0 0 0 0 0 0 0 0 127 0" result="hardAlpha"/>
<feMorphology radius="14" operator="erode" in="SourceAlpha" result="effect1_innerShadow_451_282"/>
<feOffset/>
<feGaussianBlur stdDeviation="17.5"/>
<feComposite in2="hardAlpha" operator="arithmetic" k2="-1" k3="1"/>
<feColorMatrix type="matrix" values="0 0 0 0 0.38024 0 0 0 0 0.421557 0 0 0 0 1 0 0 0 1 0"/>
<feBlend mode="normal" in2="shape" result="effect1_innerShadow_451_282"/>
</filter>
<filter id="filter2_i_451_282" x="18.8815" y="19.8813" width="134.036" height="134.036" filterUnits="userSpaceOnUse" color-interpolation-filters="sRGB">
<feFlood flood-opacity="0" result="BackgroundImageFix"/>
<feBlend mode="normal" in="SourceGraphic" in2="BackgroundImageFix" result="shape"/>
<feColorMatrix in="SourceAlpha" type="matrix" values="0 0 0 0 0 0 0 0 0 0 0 0 0 0 0 0 0 0 127 0" result="hardAlpha"/>
<feMorphology radius="14" operator="erode" in="SourceAlpha" result="effect1_innerShadow_451_282"/>
<feOffset/>
<feGaussianBlur stdDeviation="17.5"/>
<feComposite in2="hardAlpha" operator="arithmetic" k2="-1" k3="1"/>
<feColorMatrix type="matrix" values="0 0 0 0 1 0 0 0 0 0 0 0 0 0 0 0 0 0 1 0"/>
<feBlend mode="normal" in2="shape" result="effect1_innerShadow_451_282"/>
</filter>
<filter id="filter3_i_451_282" x="68.8815" y="106.882" width="134.036" height="134.036" filterUnits="userSpaceOnUse" color-interpolation-filters="sRGB">
<feFlood flood-opacity="0" result="BackgroundImageFix"/>
<feBlend mode="normal" in="SourceGraphic" in2="BackgroundImageFix" result="shape"/>
<feColorMatrix in="SourceAlpha" type="matrix" values="0 0 0 0 0 0 0 0 0 0 0 0 0 0 0 0 0 0 127 0" result="hardAlpha"/>
<feMorphology radius="14" operator="erode" in="SourceAlpha" result="effect1_innerShadow_451_282"/>
<feOffset/>
<feGaussianBlur stdDeviation="17.5"/>
<feComposite in2="hardAlpha" operator="arithmetic" k2="-1" k3="1"/>
<feColorMatrix type="matrix" values="0 0 0 0 0.38024 0 0 0 0 0.421557 0 0 0 0 1 0 0 0 1 0"/>
<feBlend mode="normal" in2="shape" result="effect1_innerShadow_451_282"/>
</filter>
</defs>
</svg>
