<svg width="174" height="174" viewBox="0 0 174 174" fill="none" xmlns="http://www.w3.org/2000/svg">
<g filter="url(#filter0_i_451_333)">
<circle cx="87" cy="87" r="45" fill="white"/>
</g>
<g filter="url(#filter1_i_451_333)">
<path d="M42 87C42 78.0998 44.6392 69.3996 49.5839 61.9993C54.5285 54.5991 61.5566 48.8314 69.7792 45.4254C78.0019 42.0195 87.0499 41.1283 95.7791 42.8647C104.508 44.601 112.526 48.8868 118.82 55.1802C125.113 61.4735 129.399 69.4918 131.135 78.2209C132.872 86.9501 131.981 95.9981 128.575 104.221C125.169 112.443 119.401 119.471 112.001 124.416C104.6 129.361 95.9002 132 87 132L87 87L42 87Z" fill="white"/>
</g>
<g filter="url(#filter2_i_451_333)">
<path d="M132 87C132 81.0905 130.836 75.2389 128.575 69.7792C126.313 64.3196 122.998 59.3588 118.82 55.1802C114.641 51.0016 109.68 47.6869 104.221 45.4254C98.7611 43.164 92.9095 42 87 42L87 87H132Z" fill="white"/>
</g>
<circle cx="87" cy="87" r="44.5" stroke="url(#paint0_linear_451_333)"/>
<defs>
<filter id="filter0_i_451_333" x="42" y="42" width="90" height="90" filterUnits="userSpaceOnUse" color-interpolation-filters="sRGB">
<feFlood flood-opacity="0" result="BackgroundImageFix"/>
<feBlend mode="normal" in="SourceGraphic" in2="BackgroundImageFix" result="shape"/>
<feColorMatrix in="SourceAlpha" type="matrix" values="0 0 0 0 0 0 0 0 0 0 0 0 0 0 0 0 0 0 127 0" result="hardAlpha"/>
<feMorphology radius="15" operator="erode" in="SourceAlpha" result="effect1_innerShadow_451_333"/>
<feOffset/>
<feGaussianBlur stdDeviation="20.5"/>
<feComposite in2="hardAlpha" operator="arithmetic" k2="-1" k3="1"/>
<feColorMatrix type="matrix" values="0 0 0 0 1 0 0 0 0 0 0 0 0 0 0 0 0 0 1 0"/>
<feBlend mode="normal" in2="shape" result="effect1_innerShadow_451_333"/>
</filter>
<filter id="filter1_i_451_333" x="42" y="42" width="90" height="90" filterUnits="userSpaceOnUse" color-interpolation-filters="sRGB">
<feFlood flood-opacity="0" result="BackgroundImageFix"/>
<feBlend mode="normal" in="SourceGraphic" in2="BackgroundImageFix" result="shape"/>
<feColorMatrix in="SourceAlpha" type="matrix" values="0 0 0 0 0 0 0 0 0 0 0 0 0 0 0 0 0 0 127 0" result="hardAlpha"/>
<feMorphology radius="16" operator="erode" in="SourceAlpha" result="effect1_innerShadow_451_333"/>
<feOffset/>
<feGaussianBlur stdDeviation="10.2"/>
<feComposite in2="hardAlpha" operator="arithmetic" k2="-1" k3="1"/>
<feColorMatrix type="matrix" values="0 0 0 0 0.38024 0 0 0 0 0.421557 0 0 0 0 1 0 0 0 1 0"/>
<feBlend mode="normal" in2="shape" result="effect1_innerShadow_451_333"/>
</filter>
<filter id="filter2_i_451_333" x="87" y="42" width="45" height="45" filterUnits="userSpaceOnUse" color-interpolation-filters="sRGB">
<feFlood flood-opacity="0" result="BackgroundImageFix"/>
<feBlend mode="normal" in="SourceGraphic" in2="BackgroundImageFix" result="shape"/>
<feColorMatrix in="SourceAlpha" type="matrix" values="0 0 0 0 0 0 0 0 0 0 0 0 0 0 0 0 0 0 127 0" result="hardAlpha"/>
<feMorphology radius="4" operator="erode" in="SourceAlpha" result="effect1_innerShadow_451_333"/>
<feOffset/>
<feGaussianBlur stdDeviation="4.45"/>
<feComposite in2="hardAlpha" operator="arithmetic" k2="-1" k3="1"/>
<feColorMatrix type="matrix" values="0 0 0 0 1 0 0 0 0 1 0 0 0 0 0 0 0 0 1 0"/>
<feBlend mode="normal" in2="shape" result="effect1_innerShadow_451_333"/>
</filter>
<linearGradient id="paint0_linear_451_333" x1="128" y1="69" x2="48" y2="107" gradientUnits="userSpaceOnUse">
<stop stop-color="#FF0000"/>
<stop offset="1" stop-color="#616BFF"/>
</linearGradient>
</defs>
</svg>
