<svg width="270" height="261" viewBox="0 0 270 261" fill="none" xmlns="http://www.w3.org/2000/svg">
<circle cx="182.844" cy="86.8437" r="65.5" transform="rotate(21.4246 182.844 86.8437)" fill="black" stroke="#FF0000" stroke-width="3"/>
<path d="M179.09 82.48C180.89 82.48 182.53 82.38 184.01 82.18C185.49 81.94 186.75 81.52 187.79 80.92C188.87 80.28 189.71 79.44 190.31 78.4C190.91 77.36 191.21 76.02 191.21 74.38C191.21 73.06 190.97 71.94 190.49 71.02C190.01 70.06 189.35 69.28 188.51 68.68C187.71 68.08 186.75 67.64 185.63 67.36C184.55 67.08 183.41 66.94 182.21 66.94C180.85 66.94 179.61 67.16 178.49 67.6C177.41 68.04 176.47 68.68 175.67 69.52C174.87 70.32 174.25 71.28 173.81 72.4C173.37 73.48 173.15 74.68 173.15 76H169.31C169.31 74.08 169.63 72.36 170.27 70.84C170.95 69.28 171.99 67.84 173.39 66.52C174.71 65.32 176.19 64.56 177.83 64.24C179.51 63.88 181.23 63.7 182.99 63.7C184.67 63.7 186.23 63.92 187.67 64.36C189.15 64.76 190.43 65.4 191.51 66.28C192.59 67.12 193.45 68.2 194.09 69.52C194.73 70.84 195.05 72.38 195.05 74.14C195.05 76.34 194.55 78.24 193.55 79.84C192.59 81.44 191.09 82.68 189.05 83.56C190.57 84.04 191.81 84.68 192.77 85.48C193.77 86.24 194.55 87.1 195.11 88.06C195.67 88.98 196.05 89.96 196.25 91C196.45 92.04 196.55 93.04 196.55 94C196.55 95.76 196.25 97.4 195.65 98.92C195.05 100.44 194.17 101.78 193.01 102.94C191.85 104.1 190.41 105.04 188.69 105.76C187.01 106.44 185.09 106.8 182.93 106.84C180.49 106.84 178.37 106.62 176.57 106.18C174.77 105.74 173.27 105.02 172.07 104.02C170.87 102.98 169.93 101.64 169.25 100C168.57 98.32 168.11 96.24 167.87 93.76H171.71C171.71 97 172.67 99.46 174.59 101.14C176.55 102.78 179.09 103.6 182.21 103.6C183.73 103.6 185.15 103.34 186.47 102.82C187.79 102.3 188.91 101.6 189.83 100.72C190.79 99.84 191.51 98.82 191.99 97.66C192.51 96.5 192.75 95.3 192.71 94.06C192.63 92.34 192.23 90.92 191.51 89.8C190.79 88.64 189.81 87.74 188.57 87.1C187.37 86.42 185.95 85.98 184.31 85.78C182.67 85.54 180.93 85.48 179.09 85.6V82.48Z" fill="#FF0000"/>
<circle cx="86.8437" cy="86.8437" r="65.5" transform="rotate(21.4246 86.8437 86.8437)" fill="black" stroke="#FF0000" stroke-width="3"/>
<path d="M87.9501 74.56H77.0301V72.04C78.6301 71.92 80.0701 71.76 81.3501 71.56C82.6701 71.36 83.8101 70.98 84.7701 70.42C85.7701 69.86 86.5901 69.06 87.2301 68.02C87.9101 66.94 88.4101 65.5 88.7301 63.7H91.7901V106H87.9501V74.56Z" fill="#FF0000"/>
<circle cx="135.844" cy="173.844" r="65.5" transform="rotate(21.4246 135.844 173.844)" fill="black" stroke="#FF0000" stroke-width="3"/>
<path d="M122.97 164.56C122.97 162.48 123.29 160.6 123.93 158.92C124.57 157.2 125.49 155.74 126.69 154.54C127.89 153.3 129.33 152.36 131.01 151.72C132.73 151.04 134.63 150.7 136.71 150.7C138.83 150.7 140.69 151.02 142.29 151.66C143.93 152.26 145.29 153.08 146.37 154.12C147.49 155.16 148.33 156.4 148.89 157.84C149.45 159.28 149.73 160.8 149.73 162.4C149.73 164.28 149.41 165.94 148.77 167.38C148.17 168.82 147.35 170.1 146.31 171.22C145.31 172.34 144.15 173.34 142.83 174.22C141.55 175.1 140.23 175.94 138.87 176.74C137.51 177.5 136.17 178.24 134.85 178.96C133.53 179.68 132.35 180.44 131.31 181.24C130.63 181.76 129.97 182.32 129.33 182.92C128.69 183.48 128.11 184.1 127.59 184.78C127.07 185.46 126.65 186.22 126.33 187.06C126.01 187.86 125.83 188.76 125.79 189.76H149.37V193H121.71C121.75 190.96 121.97 189.12 122.37 187.48C122.77 185.84 123.65 184.24 125.01 182.68C126.49 181 128.01 179.56 129.57 178.36C131.17 177.16 132.73 176.1 134.25 175.18C135.77 174.22 137.21 173.36 138.57 172.6C139.93 171.8 141.13 170.94 142.17 170.02C143.21 169.1 144.03 168.06 144.63 166.9C145.23 165.74 145.53 164.32 145.53 162.64C145.53 161.28 145.29 160.06 144.81 158.98C144.33 157.9 143.67 156.98 142.83 156.22C141.99 155.46 141.01 154.9 139.89 154.54C138.77 154.14 137.55 153.94 136.23 153.94C134.83 153.94 133.55 154.24 132.39 154.84C131.27 155.4 130.29 156.16 129.45 157.12C128.65 158.08 128.03 159.2 127.59 160.48C127.15 161.76 126.97 163.12 127.05 164.56H122.97Z" fill="#FF0000"/>
</svg>
