<svg width="174" height="174" viewBox="0 0 174 174" fill="none" xmlns="http://www.w3.org/2000/svg">
<path d="M96.76 75.38C96.32 73.22 95.44 71.5 94.12 70.22C92.8 68.9 91 68.24 88.72 68.24C86.12 68.24 84.06 68.86 82.54 70.1C81.06 71.34 79.92 72.92 79.12 74.84C78.32 76.72 77.78 78.78 77.5 81.02C77.22 83.26 77 85.38 76.84 87.38C77.44 86.58 78.06 85.78 78.7 84.98C79.38 84.18 80.14 83.48 80.98 82.88C81.82 82.24 82.8 81.74 83.92 81.38C85.04 80.98 86.38 80.78 87.94 80.78C92.22 80.78 95.52 82 97.84 84.44C100.2 86.84 101.38 90.16 101.38 94.4C101.38 98.68 100.2 102.04 97.84 104.48C95.48 106.92 92.14 108.14 87.82 108.14C85.7 108.14 83.74 107.8 81.94 107.12C80.14 106.4 78.58 105.24 77.26 103.64C75.94 102.04 74.9 99.96 74.14 97.4C73.38 94.8 73 91.64 73 87.92C73 85.4 73.22 82.8 73.66 80.12C74.1 77.4 74.88 74.92 76 72.68C77.16 70.44 78.72 68.6 80.68 67.16C82.68 65.72 85.24 65 88.36 65C91.72 65 94.52 65.88 96.76 67.64C99 69.4 100.32 71.98 100.72 75.38H96.76ZM87.82 84.02C86.34 84.02 85 84.3 83.8 84.86C82.64 85.42 81.64 86.18 80.8 87.14C80 88.1 79.38 89.22 78.94 90.5C78.5 91.74 78.28 93.08 78.28 94.52C78.28 95.72 78.44 96.94 78.76 98.18C79.12 99.38 79.68 100.48 80.44 101.48C81.24 102.48 82.24 103.3 83.44 103.94C84.64 104.58 86.12 104.9 87.88 104.9C89.68 104.9 91.18 104.6 92.38 104C93.62 103.36 94.62 102.54 95.38 101.54C96.14 100.5 96.68 99.36 97 98.12C97.36 96.84 97.54 95.56 97.54 94.28C97.54 91 96.74 88.48 95.14 86.72C93.58 84.92 91.14 84.02 87.82 84.02Z" fill="#FF0000"/>
<circle cx="86.8437" cy="86.8437" r="65.5" transform="rotate(21.4246 86.8437 86.8437)" stroke="#FF0000" stroke-width="3"/>
</svg>
