<svg width="134" height="134" viewBox="0 0 134 134" fill="none" xmlns="http://www.w3.org/2000/svg">
<path d="M132.5 67C132.5 103.175 103.174 132.5 66.9998 132.5C57.9103 132.5 53.6815 130.223 51.8407 126.912C49.8989 123.42 50.205 118.172 51.8342 111.218C52.774 107.207 54.0818 102.879 55.4859 98.2318C56.5087 94.8469 57.5826 91.293 58.6025 87.5694C60.99 78.8526 63 69.4504 63 60C63 45.59 58.2763 33.1402 54.6512 23.586C53.5451 20.6706 52.5413 18.0249 51.8051 15.6754C51.006 13.1248 50.5331 10.9818 50.4982 9.19835C50.4639 7.44552 50.8529 6.13931 51.688 5.12462C52.5415 4.08752 54.0154 3.1666 56.5192 2.51158C59.0238 1.85635 62.4356 1.5 66.9998 1.5C103.174 1.5 132.5 30.8253 132.5 67Z" fill="black" stroke="#FF0000" stroke-width="3"/>
</svg>
