<svg width="134" height="134" viewBox="0 0 134 134" fill="none" xmlns="http://www.w3.org/2000/svg">
<circle cx="67" cy="67" r="65.5" fill="black" stroke="#FF0000" stroke-width="3"/>
<path d="M65.402 74.446C65.3707 72.7227 65.4803 71.156 65.731 69.746C66.013 68.336 66.765 66.9887 67.987 65.704C68.6763 64.9833 69.397 64.2783 70.149 63.589C70.901 62.8997 71.5903 62.2103 72.217 61.521C72.8437 60.8003 73.3607 60.064 73.768 59.312C74.2067 58.56 74.426 57.7453 74.426 56.868C74.426 56.022 74.2537 55.2387 73.909 54.518C73.5957 53.766 73.1257 53.1237 72.499 52.591C71.8723 52.027 71.1047 51.5883 70.196 51.275C69.2873 50.9617 68.2533 50.805 67.094 50.805C65.9347 50.805 64.9007 51.0087 63.992 51.416C63.0833 51.8233 62.3157 52.3873 61.689 53.108C61.0937 53.8287 60.6393 54.6747 60.326 55.646C60.0127 56.586 59.8717 57.62 59.903 58.748H57.036C56.9107 57.1813 57.083 55.7557 57.553 54.471C58.023 53.1863 58.7123 52.0897 59.621 51.181C60.561 50.241 61.6733 49.5203 62.958 49.019C64.2427 48.5177 65.6527 48.267 67.188 48.267C68.786 48.267 70.2117 48.4863 71.465 48.925C72.7497 49.3323 73.8307 49.9277 74.708 50.711C75.5853 51.463 76.259 52.3873 76.729 53.484C77.199 54.5807 77.434 55.787 77.434 57.103C77.434 58.4817 77.1207 59.6723 76.494 60.675C75.8987 61.6463 75.1623 62.555 74.285 63.401C73.4077 64.247 72.499 65.1087 71.559 65.986C70.619 66.832 69.8043 67.7877 69.115 68.853C68.5823 69.6677 68.2847 70.5763 68.222 71.579C68.1593 72.5503 68.128 73.506 68.128 74.446H65.402ZM65.12 83V78.864H68.551V83H65.12Z" fill="#FF0000"/>
</svg>
