<svg width="134" height="135" viewBox="0 0 134 135" fill="none" xmlns="http://www.w3.org/2000/svg">
<path d="M57 67.9999C57 77.5528 59.9352 86.5904 63.669 94.7063C66.3859 100.612 69.5742 106.122 72.3912 110.991C73.4307 112.787 74.4196 114.496 75.3156 116.106C76.997 119.126 78.3437 121.777 79.159 124.062C79.985 126.376 80.1811 128.09 79.8368 129.335C79.526 130.459 78.6948 131.472 76.7155 132.241C74.6758 133.033 71.5587 133.5 67 133.5C58.2572 133.5 51.7671 129.782 46.8635 123.571C41.9103 117.297 38.5677 108.458 36.3389 98.3045C31.9929 78.5051 31.9968 54.2963 31.9997 35.9064C31.9998 35.4337 31.9999 34.9648 31.9999 34.5C31.9999 34.0255 31.9998 33.5581 31.9997 33.0975C31.9983 24.533 31.9973 18.3463 32.4906 13.8173C33.0124 9.02698 34.0543 6.5092 35.8341 5.02613C37.668 3.49785 40.613 2.77823 45.7588 2.52898C49.0873 2.36775 53.1346 2.40424 58.13 2.44926C60.8034 2.47336 63.7483 2.49991 67 2.49991C71.5587 2.49991 74.6758 2.9668 76.7155 3.75928C78.6948 4.52831 79.526 5.54082 79.8368 6.66493C80.1811 7.90986 79.985 9.62357 79.159 11.9383C78.3437 14.2226 76.997 16.874 75.3156 19.8941C74.4196 21.5035 73.4307 23.2126 72.3912 25.0091C69.5742 29.8777 66.3859 35.3881 63.669 41.2936C59.9352 49.4094 57 58.447 57 67.9999Z" fill="black" stroke="#FF0000" stroke-width="3"/>
</svg>
