<svg width="134" height="134" viewBox="0 0 134 134" fill="none" xmlns="http://www.w3.org/2000/svg">
<path d="M57 67C57 76.5529 59.9352 85.5905 63.669 93.7064C66.3858 99.6118 69.5742 105.122 72.3912 109.991C73.4307 111.787 74.4196 113.496 75.3156 115.106C76.997 118.126 78.3437 120.777 79.1589 123.062C79.985 125.376 80.1811 127.09 79.8368 128.335C79.5259 129.459 78.6947 130.472 76.7155 131.241C74.6758 132.033 71.5587 132.5 67 132.5C30.8253 132.5 1.5 103.175 1.5 67C1.5 30.8253 30.8253 1.5 67 1.5C71.5587 1.5 74.6758 1.96689 76.7155 2.75938C78.6947 3.5284 79.5259 4.54091 79.8368 5.66502C80.1811 6.90995 79.985 8.62366 79.1589 10.9384C78.3437 13.2227 76.997 15.8741 75.3156 18.8942C74.4196 20.5035 73.4307 22.2127 72.3912 24.0092C69.5742 28.8778 66.3858 34.3882 63.669 40.2936C59.9352 48.4095 57 57.4471 57 67Z" fill="black" stroke="#FF0000" stroke-width="3"/>
</svg>
