<svg width="153" height="134" viewBox="0 0 153 134" fill="none" xmlns="http://www.w3.org/2000/svg">
<path d="M75.9989 67.0004C75.9989 76.1196 74.1689 81.265 71.2613 84.1187C68.372 86.9544 64.0647 87.8729 58.1881 87.6279C53.3472 87.426 47.7338 86.4546 41.4081 85.36C40.0547 85.1258 38.6687 84.8859 37.2507 84.6468C29.2649 83.2999 20.3817 82.0005 11.0001 82.0005C6.89078 82.0005 4.34329 81.8351 2.94886 81.5503C3.86312 80.8576 5.4376 79.9411 7.63241 78.757C8.57105 78.2505 9.61156 77.7007 10.7278 77.1108C12.6685 76.0853 14.838 74.9388 17.0988 73.6895C24.2528 69.7361 32.6825 64.5623 39.334 57.9907C45.99 51.4147 50.9987 43.3034 50.9987 33.5005C50.9987 24.3936 52.6354 18.4818 55.4312 14.6302C58.1912 10.8278 62.2473 8.80875 67.6357 7.85093C73.0692 6.88509 79.6891 7.02801 87.3881 7.43505C89.07 7.52397 90.8013 7.62532 92.5779 7.72932C98.8761 8.098 105.744 8.5 113 8.5C117.646 8.5 120.254 8.87569 121.483 9.42843C121.862 9.59895 121.986 9.73013 122.019 9.77644C122.019 9.82592 122.001 10.0164 121.768 10.4161C121.128 11.5143 119.547 13.0469 117.078 15.067C115.318 16.5078 113.223 18.106 110.901 19.8777C110.034 20.5389 109.136 21.2243 108.212 21.9347C101.457 27.1251 93.4362 33.5529 87.1038 41.0465C80.7757 48.535 75.9989 57.2457 75.9989 67.0004ZM122.029 9.79455C122.029 9.79465 122.027 9.79173 122.025 9.78546C122.028 9.79134 122.03 9.79446 122.029 9.79455Z" fill="black" stroke="#FF0000" stroke-width="3"/>
</svg>
