<svg width="223" height="261" viewBox="0 0 223 261" fill="none" xmlns="http://www.w3.org/2000/svg">
<circle cx="86.8437" cy="86.8437" r="65.5" transform="rotate(21.4246 86.8437 86.8437)" fill="black" stroke="#FF0000" stroke-width="3"/>
<path d="M87.9501 74.56H77.0301V72.04C78.6301 71.92 80.0701 71.76 81.3501 71.56C82.6701 71.36 83.8101 70.98 84.7701 70.42C85.7701 69.86 86.5901 69.06 87.2301 68.02C87.9101 66.94 88.4101 65.5 88.7301 63.7H91.7901V106H87.9501V74.56Z" fill="#FF0000"/>
<circle cx="135.844" cy="173.844" r="65.5" transform="rotate(21.4246 135.844 173.844)" fill="black" stroke="#FF0000" stroke-width="3"/>
<path d="M122.97 164.56C122.97 162.48 123.29 160.6 123.93 158.92C124.57 157.2 125.49 155.74 126.69 154.54C127.89 153.3 129.33 152.36 131.01 151.72C132.73 151.04 134.63 150.7 136.71 150.7C138.83 150.7 140.69 151.02 142.29 151.66C143.93 152.26 145.29 153.08 146.37 154.12C147.49 155.16 148.33 156.4 148.89 157.84C149.45 159.28 149.73 160.8 149.73 162.4C149.73 164.28 149.41 165.94 148.77 167.38C148.17 168.82 147.35 170.1 146.31 171.22C145.31 172.34 144.15 173.34 142.83 174.22C141.55 175.1 140.23 175.94 138.87 176.74C137.51 177.5 136.17 178.24 134.85 178.96C133.53 179.68 132.35 180.44 131.31 181.24C130.63 181.76 129.97 182.32 129.33 182.92C128.69 183.48 128.11 184.1 127.59 184.78C127.07 185.46 126.65 186.22 126.33 187.06C126.01 187.86 125.83 188.76 125.79 189.76H149.37V193H121.71C121.75 190.96 121.97 189.12 122.37 187.48C122.77 185.84 123.65 184.24 125.01 182.68C126.49 181 128.01 179.56 129.57 178.36C131.17 177.16 132.73 176.1 134.25 175.18C135.77 174.22 137.21 173.36 138.57 172.6C139.93 171.8 141.13 170.94 142.17 170.02C143.21 169.1 144.03 168.06 144.63 166.9C145.23 165.74 145.53 164.32 145.53 162.64C145.53 161.28 145.29 160.06 144.81 158.98C144.33 157.9 143.67 156.98 142.83 156.22C141.99 155.46 141.01 154.9 139.89 154.54C138.77 154.14 137.55 153.94 136.23 153.94C134.83 153.94 133.55 154.24 132.39 154.84C131.27 155.4 130.29 156.16 129.45 157.12C128.65 158.08 128.03 159.2 127.59 160.48C127.15 161.76 126.97 163.12 127.05 164.56H122.97Z" fill="#FF0000"/>
</svg>
