<svg width="174" height="174" viewBox="0 0 174 174" fill="none" xmlns="http://www.w3.org/2000/svg">
<circle cx="86.8437" cy="86.8437" r="65.5" transform="rotate(21.4246 86.8437 86.8437)" fill="black" stroke="#FF0000" stroke-width="3"/>
<path d="M83.0901 82.48C84.8901 82.48 86.5301 82.38 88.0101 82.18C89.4901 81.94 90.7501 81.52 91.7901 80.92C92.8701 80.28 93.7101 79.44 94.3101 78.4C94.9101 77.36 95.2101 76.02 95.2101 74.38C95.2101 73.06 94.9701 71.94 94.4901 71.02C94.0101 70.06 93.3501 69.28 92.5101 68.68C91.7101 68.08 90.7501 67.64 89.6301 67.36C88.5501 67.08 87.4101 66.94 86.2101 66.94C84.8501 66.94 83.6101 67.16 82.4901 67.6C81.4101 68.04 80.4701 68.68 79.6701 69.52C78.8701 70.32 78.2501 71.28 77.8101 72.4C77.3701 73.48 77.1501 74.68 77.1501 76H73.3101C73.3101 74.08 73.6301 72.36 74.2701 70.84C74.9501 69.28 75.9901 67.84 77.3901 66.52C78.7101 65.32 80.1901 64.56 81.8301 64.24C83.5101 63.88 85.2301 63.7 86.9901 63.7C88.6701 63.7 90.2301 63.92 91.6701 64.36C93.1501 64.76 94.4301 65.4 95.5101 66.28C96.5901 67.12 97.4501 68.2 98.0901 69.52C98.7301 70.84 99.0501 72.38 99.0501 74.14C99.0501 76.34 98.5501 78.24 97.5501 79.84C96.5901 81.44 95.0901 82.68 93.0501 83.56C94.5701 84.04 95.8101 84.68 96.7701 85.48C97.7701 86.24 98.5501 87.1 99.1101 88.06C99.6701 88.98 100.05 89.96 100.25 91C100.45 92.04 100.55 93.04 100.55 94C100.55 95.76 100.25 97.4 99.6501 98.92C99.0501 100.44 98.1701 101.78 97.0101 102.94C95.8501 104.1 94.4101 105.04 92.6901 105.76C91.0101 106.44 89.0901 106.8 86.9301 106.84C84.4901 106.84 82.3701 106.62 80.5701 106.18C78.7701 105.74 77.2701 105.02 76.0701 104.02C74.8701 102.98 73.9301 101.64 73.2501 100C72.5701 98.32 72.1101 96.24 71.8701 93.76H75.7101C75.7101 97 76.6701 99.46 78.5901 101.14C80.5501 102.78 83.0901 103.6 86.2101 103.6C87.7301 103.6 89.1501 103.34 90.4701 102.82C91.7901 102.3 92.9101 101.6 93.8301 100.72C94.7901 99.84 95.5101 98.82 95.9901 97.66C96.5101 96.5 96.7501 95.3 96.7101 94.06C96.6301 92.34 96.2301 90.92 95.5101 89.8C94.7901 88.64 93.8101 87.74 92.5701 87.1C91.3701 86.42 89.9501 85.98 88.3101 85.78C86.6701 85.54 84.9301 85.48 83.0901 85.6V82.48Z" fill="#FF0000"/>
</svg>
