<svg width="187" height="279" viewBox="0 0 187 279" fill="none" xmlns="http://www.w3.org/2000/svg">
<circle cx="82.9488" cy="195.949" r="62.495" transform="rotate(21.4246 82.9488 195.949)" fill="#FF0000" fill-opacity="0.2" stroke="#FF0000" stroke-width="3"/>
<circle cx="82.7168" cy="195.717" r="39.9426" transform="rotate(21.4246 82.7168 195.717)" stroke="#FF0000" stroke-width="3"/>
<path d="M57 8L57 266" stroke="#FF0000" stroke-width="3"/>
<path d="M92 9L92 267" stroke="#FF0000" stroke-width="3"/>
<path d="M127 9L127 267" stroke="#FF0000" stroke-width="3"/>
<path d="M162 8L162 266" stroke="#FF0000" stroke-width="3"/>
<path d="M173 22L19 22" stroke="#FF0000" stroke-width="3"/>
<path d="M173 51L19 51" stroke="#FF0000" stroke-width="3"/>
<path d="M173 80L19 80" stroke="#FF0000" stroke-width="3"/>
<path d="M173 109L19 109" stroke="#FF0000" stroke-width="3"/>
<path d="M173 138L19 138" stroke="#FF0000" stroke-width="3"/>
<path d="M173 167L19 167" stroke="#FF0000" stroke-width="3"/>
<path d="M173 196L19 196" stroke="#FF0000" stroke-width="3"/>
<path d="M173 225L19 225" stroke="#FF0000" stroke-width="3"/>
<path d="M173 254L19 254" stroke="#FF0000" stroke-width="3"/>
<circle cx="124.568" cy="61.5683" r="46" transform="rotate(21.4246 124.568 61.5683)" fill="#FF0000" fill-opacity="0.2" stroke="#FF0000" stroke-width="3"/>
<circle cx="124.363" cy="61.363" r="23.5" stroke="#FF0000" stroke-width="3"/>
</svg>
