<svg width="150" height="150" viewBox="0 0 150 150" fill="none" xmlns="http://www.w3.org/2000/svg">
<circle cx="74.5" cy="75.5" r="40" stroke="#FF0000" stroke-width="3"/>
<path d="M0 75H10H20M150 75H140H130" stroke="#FF0000" stroke-width="3"/>
<path d="M10 113L28.1865 102.5M139.904 38L122.583 48" stroke="#FF0000" stroke-width="3"/>
<path d="M10 38L27.3205 48M139.904 113L122.5 102.952" stroke="#FF0000" stroke-width="3"/>
<path d="M37 139.904L47.3368 122M112 10L102 27.3205" stroke="#FF0000" stroke-width="3"/>
<path d="M36.9999 10L47.3923 28M112 139.904L102 122.584" stroke="#FF0000" stroke-width="3"/>
<path d="M75 150V140V130M75 0V10L75 22.5" stroke="#FF0000" stroke-width="3"/>
<path d="M55.7918 82.286C53.3058 82.286 51.2818 81.296 50.4898 79.492L53.1738 78.524C53.4378 79.47 54.5818 79.998 55.8358 79.998C56.9358 79.998 57.9258 79.602 57.9258 78.832C57.9258 78.304 57.4858 77.974 56.1658 77.732L54.3838 77.424C52.3158 77.028 50.8858 76.038 50.8858 74.234C50.8858 71.99 53.2178 70.802 55.7698 70.802C57.8378 70.802 59.7738 71.484 60.5878 73.288L57.9258 74.256C57.5958 73.442 56.7818 73.068 55.6818 73.068C54.5158 73.068 53.8558 73.486 53.8558 74.08C53.8558 74.608 54.2518 74.872 55.2638 75.048L57.1118 75.4C59.6858 75.884 60.9178 76.698 60.9178 78.634C60.9178 81.032 58.6078 82.286 55.7918 82.286ZM66.8306 82C64.2346 82 63.3766 81.494 63.3766 78.964V73.464H61.5726V71.088H63.3766V68.36H66.4786V71.088H68.8326V73.464H66.4786V78.194C66.4786 79.25 66.7866 79.448 67.8426 79.448H68.8326V82H66.8306ZM73.9136 82.264C71.8236 82.264 70.1296 81.054 70.1296 79.074C70.1296 76.5 73.0336 75.488 77.4996 75.158V74.828C77.4996 73.552 76.7956 72.936 75.4756 72.936C74.4856 72.936 73.7156 73.398 73.4956 74.3L70.8556 73.376C71.5376 71.88 73.2536 70.802 75.6296 70.802C78.7536 70.802 80.4696 72.078 80.4696 75.334V77.754C80.4696 79.25 80.6456 81.032 80.8436 82H77.9616L77.5656 80.658C76.7736 81.78 75.5196 82.264 73.9136 82.264ZM75.0356 80.108C76.4436 80.108 77.4996 79.514 77.4996 77.512V77.072C74.8816 77.248 73.3636 77.71 73.3636 78.854C73.3636 79.602 74.0456 80.108 75.0356 80.108ZM82.9937 82V71.088H85.4357L86.0297 73.09C86.7117 71.396 87.8997 70.736 89.5937 70.802V73.926C87.2177 73.684 86.0957 74.498 86.0957 76.632V82H82.9937ZM96.1353 82C93.5393 82 92.6813 81.494 92.6813 78.964V73.464H90.8773V71.088H92.6813V68.36H95.7833V71.088H98.1373V73.464H95.7833V78.194C95.7833 79.25 96.0913 79.448 97.1473 79.448H98.1373V82H96.1353Z" fill="#FF0000"/>
</svg>
