<svg width="148" height="148" viewBox="0 0 148 148" fill="none" xmlns="http://www.w3.org/2000/svg">
<circle cx="74" cy="74" r="72.5" stroke="#FF0000" stroke-width="3"/>
<path d="M29.823 80.286C27.337 80.286 25.313 79.296 24.521 77.492L27.205 76.524C27.469 77.47 28.613 77.998 29.867 77.998C30.967 77.998 31.957 77.602 31.957 76.832C31.957 76.304 31.517 75.974 30.197 75.732L28.415 75.424C26.347 75.028 24.917 74.038 24.917 72.234C24.917 69.99 27.249 68.802 29.801 68.802C31.869 68.802 33.805 69.484 34.619 71.288L31.957 72.256C31.627 71.442 30.813 71.068 29.713 71.068C28.547 71.068 27.887 71.486 27.887 72.08C27.887 72.608 28.283 72.872 29.295 73.048L31.143 73.4C33.717 73.884 34.949 74.698 34.949 76.634C34.949 79.032 32.639 80.286 29.823 80.286ZM40.8618 80C38.2658 80 37.4078 79.494 37.4078 76.964V71.464H35.6038V69.088H37.4078V66.36H40.5098V69.088H42.8638V71.464H40.5098V76.194C40.5098 77.25 40.8178 77.448 41.8738 77.448H42.8638V80H40.8618ZM47.9448 80.264C45.8548 80.264 44.1608 79.054 44.1608 77.074C44.1608 74.5 47.0648 73.488 51.5308 73.158V72.828C51.5308 71.552 50.8268 70.936 49.5068 70.936C48.5168 70.936 47.7468 71.398 47.5268 72.3L44.8868 71.376C45.5688 69.88 47.2848 68.802 49.6608 68.802C52.7848 68.802 54.5008 70.078 54.5008 73.334V75.754C54.5008 77.25 54.6768 79.032 54.8748 80H51.9928L51.5968 78.658C50.8048 79.78 49.5508 80.264 47.9448 80.264ZM49.0668 78.108C50.4748 78.108 51.5308 77.514 51.5308 75.512V75.072C48.9128 75.248 47.3948 75.71 47.3948 76.854C47.3948 77.602 48.0768 78.108 49.0668 78.108ZM57.025 80V69.088H59.467L60.061 71.09C60.743 69.396 61.931 68.736 63.625 68.802V71.926C61.249 71.684 60.127 72.498 60.127 74.632V80H57.025ZM70.1665 80C67.5705 80 66.7125 79.494 66.7125 76.964V71.464H64.9085V69.088H66.7125V66.36H69.8145V69.088H72.1685V71.464H69.8145V76.194C69.8145 77.25 70.1225 77.448 71.1785 77.448H72.1685V80H70.1665ZM74.1695 83.564V69.088H76.8315L77.2715 70.628C77.9755 69.418 79.3835 68.802 80.6375 68.802C83.4095 68.802 85.4335 71.002 85.4335 74.544C85.4335 78.13 83.4095 80.264 80.6375 80.264C79.3835 80.264 77.9755 79.626 77.2715 78.416V83.564H74.1695ZM79.6695 77.822C81.0555 77.822 82.1775 76.678 82.1775 74.544C82.1775 72.454 81.0555 71.244 79.6695 71.244C78.2615 71.244 77.1395 72.19 77.1395 74.5C77.1395 76.788 78.2615 77.822 79.6695 77.822ZM92.4219 80.264C89.4739 80.264 86.7239 78.482 86.7239 74.522C86.7239 70.584 89.4739 68.802 92.4219 68.802C95.3919 68.802 98.1199 70.584 98.1199 74.522C98.1199 78.482 95.3919 80.264 92.4219 80.264ZM92.4219 77.822C93.8079 77.822 94.9519 76.942 94.9519 74.522C94.9519 72.124 93.8079 71.244 92.4219 71.244C91.0579 71.244 89.9139 72.124 89.9139 74.522C89.9139 76.942 91.0579 77.822 92.4219 77.822ZM100.748 80V71.442H98.9659V69.088H103.872V80H100.748ZM102.134 67.24C101.078 67.24 100.242 66.404 100.242 65.348C100.242 64.314 101.078 63.478 102.134 63.478C103.168 63.478 104.004 64.314 104.004 65.348C104.004 66.404 103.168 67.24 102.134 67.24ZM106.375 80V69.088H109.059L109.477 70.562C109.983 69.726 111.171 68.802 112.865 68.802C115.659 68.802 116.539 70.43 116.539 73.312V80H113.437V74.104C113.437 72.542 113.327 71.244 111.633 71.244C110.181 71.244 109.477 72.3 109.477 74.346V80H106.375ZM123.104 80C120.508 80 119.65 79.494 119.65 76.964V71.464H117.846V69.088H119.65V66.36H122.752V69.088H125.106V71.464H122.752V76.194C122.752 77.25 123.06 77.448 124.116 77.448H125.106V80H123.104Z" fill="#FF0000"/>
</svg>
