<svg width="108" height="254" viewBox="0 0 108 254" fill="none" xmlns="http://www.w3.org/2000/svg">
<path d="M36.375 106.375L40.3333 104L43.5 104.792L46.6667 107.958L48.25 114.292V119.833L45.875 124.583V127.75L37.9583 130.125L35.5833 123.792L34 116.667L36.375 106.375Z" fill="#FF0000"/>
<path d="M45.875 130.917L38.75 133.292V137.25L40.3333 141.208L44.2917 142.792L46.6667 142L48.25 139.625V135.667L45.875 130.917Z" fill="#FF0000"/>
<path d="M71.7498 117.979L68.1539 115.084L64.9087 115.435L61.3382 118.138L58.9026 124.195L58.1438 129.684L59.846 134.715L59.4123 137.852L66.9292 141.288L70.1491 135.34L72.6931 128.499L71.7498 117.979Z" fill="#FF0000"/>
<path d="M58.9787 140.988L65.7114 144.317L65.1694 148.238L63.0589 151.942L58.9211 152.968L56.6768 151.859L55.4336 149.289L55.9757 145.368L58.9787 140.988Z" fill="#FF0000"/>
<circle cx="54.5" cy="127.5" r="50.5763" transform="rotate(21.4246 54.5 127.5)" stroke="#FF0000" stroke-width="3"/>
<path d="M9.25469 72.5095C34.2482 47.5159 74.7708 47.5159 99.7644 72.5095" stroke="#FF0000" stroke-width="3"/>
<path d="M1.99997 52.3822C30.9299 23.4523 77.8345 23.4523 106.764 52.3822" stroke="#FF0000" stroke-width="3"/>
<path d="M99.5097 181.255C74.5162 206.248 33.9936 206.248 9.00005 181.255" stroke="#FF0000" stroke-width="3"/>
<path d="M106.764 201.382C77.8345 230.312 30.9299 230.312 1.99997 201.382" stroke="#FF0000" stroke-width="3"/>
</svg>
