<svg width="331" height="357" viewBox="0 0 331 357" fill="none" xmlns="http://www.w3.org/2000/svg">
<path d="M5.98789 186.715C6.33256 188.501 7.02189 189.848 8.05589 190.757C9.12123 191.666 10.5782 192.12 12.4269 192.12C14.4009 192.12 15.9676 191.634 17.1269 190.663C18.3176 189.692 19.2262 188.47 19.8529 186.997C20.5109 185.524 20.9496 183.942 21.1689 182.25C21.4196 180.527 21.5762 178.913 21.6389 177.409L21.5449 177.315C20.5422 179.007 19.2889 180.292 17.7849 181.169C16.3122 182.046 14.5889 182.485 12.6149 182.485C11.0482 182.485 9.63823 182.234 8.3849 181.733C7.13156 181.232 6.05056 180.511 5.14189 179.571C4.26456 178.631 3.57523 177.503 3.07389 176.187C2.60389 174.871 2.36889 173.414 2.36889 171.816C2.36889 170.249 2.58823 168.808 3.02689 167.492C3.46556 166.145 4.12356 164.985 5.00089 164.014C5.87823 163.011 6.97489 162.244 8.2909 161.711C9.63823 161.147 11.2206 160.865 13.0379 160.865C15.2626 160.865 17.1112 161.304 18.5839 162.181C20.0879 163.058 21.2786 164.249 22.1559 165.753C23.0646 167.257 23.7069 169.027 24.0829 171.064C24.4589 173.101 24.6469 175.278 24.6469 177.597C24.6469 180.417 24.3492 182.892 23.7539 185.023C23.1586 187.122 22.3126 188.893 21.2159 190.334C20.1506 191.775 18.8816 192.856 17.4089 193.577C15.9362 194.298 14.3226 194.658 12.5679 194.658C11.2832 194.658 10.0769 194.501 8.94889 194.188C7.8209 193.875 6.83389 193.389 5.98789 192.731C5.14189 192.073 4.45256 191.243 3.91989 190.24C3.38723 189.237 3.05823 188.062 2.93289 186.715H5.98789ZM13.0379 163.403C10.4999 163.466 8.58856 164.249 7.3039 165.753C6.01923 167.257 5.37689 169.309 5.37689 171.91C5.37689 174.448 6.03489 176.422 7.35089 177.832C8.69823 179.242 10.5939 179.947 13.0379 179.947C14.1972 179.947 15.2312 179.728 16.1399 179.289C17.0799 178.85 17.8632 178.255 18.4899 177.503C19.1479 176.751 19.6336 175.889 19.9469 174.918C20.2916 173.915 20.4639 172.85 20.4639 171.722C20.4639 169.278 19.8059 167.304 18.4899 165.8C17.1739 164.265 15.3566 163.466 13.0379 163.403Z" fill="#FF0000"/>
<path d="M172.981 320.996C172.636 319.304 171.947 317.957 170.913 316.954C169.879 315.92 168.469 315.403 166.683 315.403C164.646 315.403 163.033 315.889 161.842 316.86C160.683 317.831 159.79 319.069 159.163 320.573C158.536 322.046 158.113 323.659 157.894 325.414C157.675 327.169 157.502 328.829 157.377 330.396C157.847 329.769 158.333 329.143 158.834 328.516C159.367 327.889 159.962 327.341 160.62 326.871C161.278 326.37 162.046 325.978 162.923 325.696C163.8 325.383 164.85 325.226 166.072 325.226C169.425 325.226 172.01 326.182 173.827 328.093C175.676 329.973 176.6 332.574 176.6 335.895C176.6 339.248 175.676 341.88 173.827 343.791C171.978 345.702 169.362 346.658 165.978 346.658C164.317 346.658 162.782 346.392 161.372 345.859C159.962 345.295 158.74 344.386 157.706 343.133C156.672 341.88 155.857 340.25 155.262 338.245C154.667 336.208 154.369 333.733 154.369 330.819C154.369 328.845 154.541 326.808 154.886 324.709C155.231 322.578 155.842 320.636 156.719 318.881C157.628 317.126 158.85 315.685 160.385 314.557C161.952 313.429 163.957 312.865 166.401 312.865C169.033 312.865 171.226 313.554 172.981 314.933C174.736 316.312 175.77 318.333 176.083 320.996H172.981ZM165.978 327.764C164.819 327.764 163.769 327.983 162.829 328.422C161.92 328.861 161.137 329.456 160.479 330.208C159.852 330.96 159.367 331.837 159.022 332.84C158.677 333.811 158.505 334.861 158.505 335.989C158.505 336.929 158.63 337.885 158.881 338.856C159.163 339.796 159.602 340.658 160.197 341.441C160.824 342.224 161.607 342.867 162.547 343.368C163.487 343.869 164.646 344.12 166.025 344.12C167.435 344.12 168.61 343.885 169.55 343.415C170.521 342.914 171.305 342.271 171.9 341.488C172.495 340.673 172.918 339.78 173.169 338.809C173.451 337.806 173.592 336.804 173.592 335.801C173.592 333.232 172.965 331.258 171.712 329.879C170.49 328.469 168.579 327.764 165.978 327.764Z" fill="#FF0000"/>
<path d="M314.829 175.576C316.239 175.576 317.524 175.498 318.683 175.341C319.842 175.153 320.829 174.824 321.644 174.354C322.49 173.853 323.148 173.195 323.618 172.38C324.088 171.565 324.323 170.516 324.323 169.231C324.323 168.197 324.135 167.32 323.759 166.599C323.383 165.847 322.866 165.236 322.208 164.766C321.581 164.296 320.829 163.951 319.952 163.732C319.106 163.513 318.213 163.403 317.273 163.403C316.208 163.403 315.236 163.575 314.359 163.92C313.513 164.265 312.777 164.766 312.15 165.424C311.523 166.051 311.038 166.803 310.693 167.68C310.348 168.526 310.176 169.466 310.176 170.5H307.168C307.168 168.996 307.419 167.649 307.92 166.458C308.453 165.236 309.267 164.108 310.364 163.074C311.398 162.134 312.557 161.539 313.842 161.288C315.158 161.006 316.505 160.865 317.884 160.865C319.2 160.865 320.422 161.037 321.55 161.382C322.709 161.695 323.712 162.197 324.558 162.886C325.404 163.544 326.078 164.39 326.579 165.424C327.08 166.458 327.331 167.664 327.331 169.043C327.331 170.766 326.939 172.255 326.156 173.508C325.404 174.761 324.229 175.733 322.631 176.422C323.822 176.798 324.793 177.299 325.545 177.926C326.328 178.521 326.939 179.195 327.378 179.947C327.817 180.668 328.114 181.435 328.271 182.25C328.428 183.065 328.506 183.848 328.506 184.6C328.506 185.979 328.271 187.263 327.801 188.454C327.331 189.645 326.642 190.694 325.733 191.603C324.824 192.512 323.696 193.248 322.349 193.812C321.033 194.345 319.529 194.627 317.837 194.658C315.926 194.658 314.265 194.486 312.855 194.141C311.445 193.796 310.27 193.232 309.33 192.449C308.39 191.634 307.654 190.585 307.121 189.3C306.588 187.984 306.228 186.355 306.04 184.412H309.048C309.048 186.95 309.8 188.877 311.304 190.193C312.839 191.478 314.829 192.12 317.273 192.12C318.464 192.12 319.576 191.916 320.61 191.509C321.644 191.102 322.521 190.553 323.242 189.864C323.994 189.175 324.558 188.376 324.934 187.467C325.341 186.558 325.529 185.618 325.498 184.647C325.435 183.3 325.122 182.187 324.558 181.31C323.994 180.401 323.226 179.696 322.255 179.195C321.315 178.662 320.203 178.318 318.918 178.161C317.633 177.973 316.27 177.926 314.829 178.02V175.576Z" fill="#FF0000"/>
<path d="M151.578 18.372H143.024V16.398C144.277 16.304 145.405 16.1787 146.408 16.022C147.442 15.8653 148.335 15.5677 149.087 15.129C149.87 14.6903 150.512 14.0637 151.014 13.249C151.546 12.403 151.938 11.275 152.189 9.865H154.586V43H151.578V18.372ZM166.743 20.722C166.743 19.0927 166.994 17.62 167.495 16.304C167.996 14.9567 168.717 13.813 169.657 12.873C170.597 11.9017 171.725 11.1653 173.041 10.664C174.388 10.1313 175.877 9.865 177.506 9.865C179.167 9.865 180.624 10.1157 181.877 10.617C183.162 11.087 184.227 11.7293 185.073 12.544C185.95 13.3587 186.608 14.33 187.047 15.458C187.486 16.586 187.705 17.7767 187.705 19.03C187.705 20.5027 187.454 21.803 186.953 22.931C186.483 24.059 185.841 25.0617 185.026 25.939C184.243 26.8163 183.334 27.5997 182.3 28.289C181.297 28.9783 180.263 29.6363 179.198 30.263C178.133 30.8583 177.083 31.438 176.049 32.002C175.015 32.566 174.091 33.1613 173.276 33.788C172.743 34.1953 172.226 34.634 171.725 35.104C171.224 35.5427 170.769 36.0283 170.362 36.561C169.955 37.0937 169.626 37.689 169.375 38.347C169.124 38.9737 168.983 39.6787 168.952 40.462H187.423V43H165.756C165.787 41.402 165.96 39.9607 166.273 38.676C166.586 37.3913 167.276 36.138 168.341 34.916C169.5 33.6 170.691 32.472 171.913 31.532C173.166 30.592 174.388 29.7617 175.579 29.041C176.77 28.289 177.898 27.6153 178.963 27.02C180.028 26.3933 180.968 25.7197 181.783 24.999C182.598 24.2783 183.24 23.4637 183.71 22.555C184.18 21.6463 184.415 20.534 184.415 19.218C184.415 18.1527 184.227 17.197 183.851 16.351C183.475 15.505 182.958 14.7843 182.3 14.189C181.642 13.5937 180.874 13.155 179.997 12.873C179.12 12.5597 178.164 12.403 177.13 12.403C176.033 12.403 175.031 12.638 174.122 13.108C173.245 13.5467 172.477 14.142 171.819 14.894C171.192 15.646 170.707 16.5233 170.362 17.526C170.017 18.5287 169.876 19.594 169.939 20.722H166.743Z" fill="#FF0000"/>
<circle cx="166" cy="178" r="65.5" stroke="#FF0000" stroke-width="3"/>
<path d="M167.061 59.9393C166.475 59.3536 165.525 59.3536 164.939 59.9393L155.393 69.4853C154.808 70.0711 154.808 71.0208 155.393 71.6066C155.979 72.1924 156.929 72.1924 157.515 71.6066L166 63.1213L174.485 71.6066C175.071 72.1924 176.021 72.1924 176.607 71.6066C177.192 71.0208 177.192 70.0711 176.607 69.4853L167.061 59.9393ZM164.5 61L164.5 178H167.5L167.5 61H164.5Z" fill="#FF0000"/>
</svg>
