<svg width="150" height="150" viewBox="0 0 150 150" fill="none" xmlns="http://www.w3.org/2000/svg">
<path d="M73.9393 120.061C74.5251 120.646 75.4749 120.646 76.0607 120.061L85.6066 110.515C86.1924 109.929 86.1924 108.979 85.6066 108.393C85.0208 107.808 84.0711 107.808 83.4853 108.393L75 116.879L66.5147 108.393C65.9289 107.808 64.9792 107.808 64.3934 108.393C63.8076 108.979 63.8076 109.929 64.3934 110.515L73.9393 120.061ZM76.5 119V75H73.5V119H76.5Z" fill="#FF0000"/>
<circle cx="75" cy="75" r="23.5" stroke="#FF0000" stroke-width="3"/>
<path d="M0 75H10H20M150 75H140H130" stroke="#FF0000" stroke-width="3"/>
<path d="M10 113L18.6603 108M139.904 38L131.244 43" stroke="#FF0000" stroke-width="3"/>
<path d="M10 38L18.6603 43M139.904 113L131.244 108" stroke="#FF0000" stroke-width="3"/>
<path d="M37 139.904L42 131.244M112 10L107 18.6603" stroke="#FF0000" stroke-width="3"/>
<path d="M37 10L42 18.6603M112 139.904L107 131.244" stroke="#FF0000" stroke-width="3"/>
<path d="M75 150V140V130M75 0V10V20" stroke="#FF0000" stroke-width="3"/>
</svg>
