<svg width="102" height="24" viewBox="0 0 102 24" fill="none" xmlns="http://www.w3.org/2000/svg">
<path d="M101.061 13.0607C101.646 12.4749 101.646 11.5251 101.061 10.9393L91.5147 1.3934C90.9289 0.807612 89.9792 0.807612 89.3934 1.3934C88.8076 1.97918 88.8076 2.92893 89.3934 3.51472L97.8787 12L89.3934 20.4853C88.8076 21.0711 88.8076 22.0208 89.3934 22.6066C89.9792 23.1924 90.9289 23.1924 91.5147 22.6066L101.061 13.0607ZM0.93934 10.9393C0.353553 11.5251 0.353553 12.4749 0.93934 13.0607L10.4853 22.6066C11.0711 23.1924 12.0208 23.1924 12.6066 22.6066C13.1924 22.0208 13.1924 21.0711 12.6066 20.4853L4.12132 12L12.6066 3.51472C13.1924 2.92893 13.1924 1.97918 12.6066 1.3934C12.0208 0.807612 11.0711 0.807612 10.4853 1.3934L0.93934 10.9393ZM100 12V10.5L2 10.5V12V13.5L100 13.5V12Z" fill="black"/>
</svg>
