<svg width="98" height="225" viewBox="0 0 98 225" fill="none" xmlns="http://www.w3.org/2000/svg">
<line x1="50.5" y1="65" x2="50.5" y2="167" stroke="#FF0000" stroke-width="3"/>
<path d="M98 116L-1.90735e-06 116" stroke="#FF0000" stroke-width="3"/>
<path d="M39.5732 14.0129L39.4772 14.0137L39.7053 44.1568L36.4413 44.1815L36.1799 9.62249L39.8758 9.59453L60.0716 39.6346L60.1676 39.6339L59.9393 9.44277L63.2032 9.41808L63.4646 43.9771L59.6727 44.0058L39.5732 14.0129Z" fill="#FF0000"/>
<path d="M41.4516 212.831C41.5912 214.366 41.9371 215.675 42.4894 216.759C43.0733 217.811 43.7998 218.669 44.6689 219.335C45.57 220 46.5977 220.488 47.7521 220.799C48.9062 221.079 50.1393 221.213 51.4512 221.203C52.9872 221.192 54.3137 220.99 55.4308 220.597C56.5478 220.205 57.4559 219.686 58.1551 219.041C58.854 218.363 59.3601 217.592 59.6736 216.725C60.019 215.859 60.1881 214.945 60.1809 213.985C60.1707 212.641 59.8585 211.556 59.2442 210.728C58.6299 209.901 57.8249 209.235 56.829 208.73C55.8649 208.194 54.7417 207.77 53.4593 207.46C52.2089 207.149 50.9107 206.855 49.5645 206.577C48.2502 206.267 46.9514 205.909 45.6683 205.503C44.4172 205.096 43.293 204.545 42.2957 203.848C41.3304 203.152 40.5396 202.261 39.9234 201.178C39.307 200.063 38.9923 198.657 38.9795 196.961C38.9705 195.777 39.2018 194.623 39.6733 193.5C40.1768 192.376 40.9053 191.378 41.8588 190.507C42.8442 189.636 44.071 188.938 45.539 188.415C47.0071 187.892 48.7011 187.623 50.6211 187.609C52.573 187.594 54.271 187.853 55.7151 188.386C57.1912 188.919 58.4128 189.662 59.3801 190.615C60.3471 191.535 61.0753 192.618 61.5647 193.862C62.0541 195.107 62.3042 196.433 62.3148 197.841L59.1949 197.864C59.185 196.552 58.9364 195.418 58.4491 194.462C57.9939 193.505 57.364 192.726 56.5594 192.124C55.7548 191.522 54.8395 191.081 53.8133 190.801C52.7872 190.52 51.7301 190.384 50.6421 190.393C48.9782 190.405 47.572 190.656 46.4237 191.145C45.3071 191.601 44.4156 192.2 43.7492 192.941C43.0828 193.682 42.625 194.501 42.3758 195.399C42.1266 196.297 42.0853 197.194 42.2521 198.088C42.4526 199.207 42.9073 200.099 43.6164 200.766C44.3255 201.433 45.1937 201.986 46.221 202.426C47.2482 202.835 48.3708 203.178 49.5889 203.457C50.8388 203.704 52.105 203.982 53.3874 204.292C54.6695 204.571 55.9041 204.913 57.0912 205.32C58.3104 205.727 59.3866 206.279 60.3199 206.976C61.2532 207.673 61.996 208.579 62.5485 209.695C63.1327 210.779 63.4311 212.153 63.4437 213.817C63.4679 217.016 62.3827 219.505 60.1881 221.281C57.9934 223.058 54.8962 223.961 50.8963 223.992C49.1044 224.005 47.4386 223.778 45.899 223.31C44.3597 222.873 43.0265 222.195 41.8995 221.276C40.7723 220.324 39.8835 219.163 39.2331 217.792C38.6144 216.388 38.298 214.743 38.2837 212.855L41.4516 212.831Z" fill="#FF0000"/>
</svg>
