<svg width="120" height="160" viewBox="0 0 120 160" fill="none" xmlns="http://www.w3.org/2000/svg">
<path d="M33.201 75.441L90.2214 75.7199M60.5304 46.5523L60.3937 105.152" stroke="#FF0000" stroke-width="3"/>
<path d="M60.4628 136.205C61.1724 136.199 61.748 136.117 62.1895 135.957C63.0271 135.651 63.4428 135.092 63.4366 134.278C63.433 133.803 63.2219 133.436 62.8033 133.179C62.3847 132.928 61.7287 132.709 60.8353 132.52L59.3094 132.19C57.8094 131.863 56.7715 131.503 56.1956 131.11C55.2206 130.453 54.7277 129.419 54.717 128.006C54.7073 126.717 55.1679 125.642 56.0989 124.782C57.03 123.922 58.4037 123.486 60.22 123.472C61.7369 123.46 63.0322 123.854 64.106 124.653C65.1863 125.446 65.7582 126.607 65.8219 128.137L62.9313 128.158C62.8727 127.293 62.4904 126.681 61.7846 126.321C61.314 126.084 60.7304 125.968 60.0338 125.973C59.2591 125.979 58.6418 126.14 58.182 126.456C57.7221 126.772 57.4943 127.21 57.4985 127.77C57.5024 128.284 57.7332 128.667 58.1908 128.917C58.4851 129.084 59.1115 129.278 60.0703 129.499L62.5552 130.075C63.6444 130.328 64.4673 130.67 65.024 131.102C65.8884 131.772 66.3255 132.749 66.3352 134.031C66.3452 135.346 65.8489 136.444 64.8464 137.324C63.8504 138.197 62.4344 138.641 60.5985 138.655C58.7236 138.669 57.2458 138.254 56.1652 137.409C55.0845 136.558 54.5385 135.384 54.5271 133.886L57.3981 133.865C57.4943 134.521 57.677 135.012 57.9464 135.335C58.4391 135.924 59.2779 136.214 60.4628 136.205Z" fill="#FF0000"/>
<path d="M66.0468 25.2459L63.0391 25.2686L57.083 15.0888L57.1604 25.3131L54.3577 25.3343L54.2488 10.9402L57.4031 10.9163L63.2113 20.9215L63.1353 10.873L65.938 10.8518L66.0468 25.2459Z" fill="#FF0000"/>
</svg>
