<svg width="568" height="161" viewBox="0 0 568 161" fill="none" xmlns="http://www.w3.org/2000/svg">
<g clip-path="url(#clip0_459_421)">
<path d="M257.5 83.94C257.93 84.25 258.45 84.44 259.02 84.44H259.09C258.51 84.43 257.96 84.25 257.5 83.94ZM257.5 83.94C257.93 84.25 258.45 84.44 259.02 84.44H259.09C258.51 84.43 257.96 84.25 257.5 83.94ZM257.5 83.94C257.93 84.25 258.45 84.44 259.02 84.44H259.09C258.51 84.43 257.96 84.25 257.5 83.94ZM257.5 83.94C257.93 84.25 258.45 84.44 259.02 84.44H259.09C258.51 84.43 257.96 84.25 257.5 83.94ZM257.5 83.94C257.93 84.25 258.45 84.44 259.02 84.44H259.09C258.51 84.43 257.96 84.25 257.5 83.94ZM257.5 83.94C257.93 84.25 258.45 84.44 259.02 84.44H259.09C258.51 84.43 257.96 84.25 257.5 83.94ZM257.5 83.94C257.93 84.25 258.45 84.44 259.02 84.44H259.09C258.51 84.43 257.96 84.25 257.5 83.94ZM257.5 83.94C257.93 84.25 258.45 84.44 259.02 84.44H259.09C258.51 84.43 257.96 84.25 257.5 83.94ZM257.5 83.94C257.93 84.25 258.45 84.44 259.02 84.44H259.09C258.51 84.43 257.96 84.25 257.5 83.94ZM257.5 83.94C257.93 84.25 258.45 84.44 259.02 84.44H259.09C258.51 84.43 257.96 84.25 257.5 83.94ZM257.5 83.94C257.93 84.25 258.45 84.44 259.02 84.44H259.09C258.51 84.43 257.96 84.25 257.5 83.94ZM257.5 83.94C257.93 84.25 258.45 84.44 259.02 84.44H259.09C258.51 84.43 257.96 84.25 257.5 83.94ZM257.5 83.94C257.93 84.25 258.45 84.44 259.02 84.44H259.09C258.51 84.43 257.96 84.25 257.5 83.94ZM257.5 83.94C257.93 84.25 258.45 84.44 259.02 84.44H259.09C258.51 84.43 257.96 84.25 257.5 83.94ZM257.5 83.94C257.93 84.25 258.45 84.44 259.02 84.44H259.09C258.51 84.43 257.96 84.25 257.5 83.94ZM257.5 83.94C257.93 84.25 258.45 84.44 259.02 84.44H259.09C258.51 84.43 257.96 84.25 257.5 83.94ZM257.5 83.94C257.93 84.25 258.45 84.44 259.02 84.44H259.09C258.51 84.43 257.96 84.25 257.5 83.94ZM257.5 83.94C257.93 84.25 258.45 84.44 259.02 84.44H259.09C258.51 84.43 257.96 84.25 257.5 83.94ZM257.5 83.94C257.93 84.25 258.45 84.44 259.02 84.44H259.09C258.51 84.43 257.96 84.25 257.5 83.94ZM257.5 83.94C257.93 84.25 258.45 84.44 259.02 84.44H259.09C258.51 84.43 257.96 84.25 257.5 83.94ZM257.5 83.94C257.93 84.25 258.45 84.44 259.02 84.44H259.09C258.51 84.43 257.96 84.25 257.5 83.94ZM257.5 83.94C257.93 84.25 258.45 84.44 259.02 84.44H259.09C258.51 84.43 257.96 84.25 257.5 83.94ZM257.5 83.94C257.93 84.25 258.45 84.44 259.02 84.44H259.09C258.51 84.43 257.96 84.25 257.5 83.94ZM257.5 83.94C257.93 84.25 258.45 84.44 259.02 84.44H259.09C258.51 84.43 257.96 84.25 257.5 83.94ZM257.5 83.94C257.93 84.25 258.45 84.44 259.02 84.44H259.09C258.51 84.43 257.96 84.25 257.5 83.94ZM257.5 83.94C257.93 84.25 258.45 84.44 259.02 84.44H259.09C258.51 84.43 257.96 84.25 257.5 83.94ZM257.5 83.94C257.93 84.25 258.45 84.44 259.02 84.44H259.09C258.51 84.43 257.96 84.25 257.5 83.94ZM257.5 83.94C257.93 84.25 258.45 84.44 259.02 84.44H259.09C258.51 84.43 257.96 84.25 257.5 83.94ZM257.5 83.94C257.93 84.25 258.45 84.44 259.02 84.44H259.09C258.51 84.43 257.96 84.25 257.5 83.94ZM257.5 83.94C257.93 84.25 258.45 84.44 259.02 84.44H259.09C258.51 84.43 257.96 84.25 257.5 83.94ZM257.5 83.94C257.93 84.25 258.45 84.44 259.02 84.44H259.09C258.51 84.43 257.96 84.25 257.5 83.94ZM257.5 83.94C257.93 84.25 258.45 84.44 259.02 84.44H259.09C258.51 84.43 257.96 84.25 257.5 83.94ZM257.5 83.94C257.93 84.25 258.45 84.44 259.02 84.44H259.09C258.51 84.43 257.96 84.25 257.5 83.94ZM257.5 83.94C257.93 84.25 258.45 84.44 259.02 84.44H259.09C258.51 84.43 257.96 84.25 257.5 83.94ZM257.5 83.94C257.93 84.25 258.45 84.44 259.02 84.44H259.09C258.51 84.43 257.96 84.25 257.5 83.94ZM257.5 83.94C257.93 84.25 258.45 84.44 259.02 84.44H259.09C258.51 84.43 257.96 84.25 257.5 83.94ZM257.5 83.94C257.93 84.25 258.45 84.44 259.02 84.44H259.09C258.51 84.43 257.96 84.25 257.5 83.94ZM257.5 83.94C257.93 84.25 258.45 84.44 259.02 84.44H259.09C258.51 84.43 257.96 84.25 257.5 83.94ZM257.5 83.94C257.93 84.25 258.45 84.44 259.02 84.44H259.09C258.51 84.43 257.96 84.25 257.5 83.94ZM257.5 83.94C257.93 84.25 258.45 84.44 259.02 84.44H259.09C258.51 84.43 257.96 84.25 257.5 83.94ZM257.5 83.94C257.93 84.25 258.45 84.44 259.02 84.44H259.09C258.51 84.43 257.96 84.25 257.5 83.94ZM257.5 83.94C257.93 84.25 258.45 84.44 259.02 84.44H259.09C258.51 84.43 257.96 84.25 257.5 83.94ZM257.5 83.94C257.93 84.25 258.45 84.44 259.02 84.44H259.09C258.51 84.43 257.96 84.25 257.5 83.94ZM257.5 83.94C257.93 84.25 258.45 84.44 259.02 84.44H259.09C258.51 84.43 257.96 84.25 257.5 83.94ZM257.5 83.94C257.93 84.25 258.45 84.44 259.02 84.44H259.09C258.51 84.43 257.96 84.25 257.5 83.94Z" fill="black"/>
<path d="M533.3 69.36C533.3 72.83 530.49 75.64 527.01 75.64C523.53 75.64 520.73 72.83 520.73 69.36C520.73 65.89 523.54 63.07 527.01 63.07C530.48 63.07 533.3 65.88 533.3 69.36Z" fill="black"/>
<path d="M321.45 28.29C321.45 31.76 318.64 34.57 315.15 34.57C311.66 34.57 308.87 31.76 308.87 28.29C308.87 24.82 311.68 22 315.15 22C318.62 22 321.45 24.81 321.45 28.29Z" fill="black"/>
<path d="M346.43 91.48V101.83H320.62V65.46H334.23V91.48H346.43Z" fill="black"/>
<path d="M519.94 93.9V101.83H350.97V65.46H517.55V73.39H439.05V78.28H484.64V87.88H439.05V93.9H519.94Z" fill="black"/>
<path d="M315.01 65.14V87.75C315.01 102.83 299.8 102.15 297.77 102.15C295.74 102.15 280.53 102.83 280.53 87.75V65.14H293.57V87.03C293.57 90.14 295.26 90.96 297.77 90.96C300.28 90.96 301.97 90.14 301.97 87.03V65.14H315.01Z" fill="black"/>
<path d="M278.07 116.83C278.07 120.3 275.26 123.11 271.78 123.11C268.3 123.11 265.5 120.3 265.5 116.83C265.5 113.36 268.31 110.54 271.78 110.54C275.25 110.54 278.07 113.35 278.07 116.83Z" fill="black"/>
<path d="M256.04 63.83C245.1 63.83 236.23 72.7 236.23 83.65C236.23 94.6 245.1 103.47 256.04 103.47C266.98 103.47 275.87 94.59 275.87 83.65C275.87 72.71 267 63.83 256.04 63.83ZM256.04 93.33C250.7 93.33 246.37 88.99 246.37 83.65C246.37 78.31 250.7 73.96 256.04 73.96C261.38 73.96 265.72 78.3 265.72 83.65C265.72 89 261.4 93.33 256.04 93.33Z" fill="black"/>
<path d="M261.65 81.81C261.65 83.17 260.62 84.29 259.3 84.43C259.24 84.44 259.19 84.44 259.13 84.44H259.09C258.51 84.43 257.96 84.25 257.5 83.94C257.44 83.9 257.37 83.85 257.31 83.8C257.3 83.79 257.29 83.78 257.28 83.78C257.21 83.72 257.14 83.66 257.08 83.59C256.95 83.44 256.84 83.29 256.74 83.12C256.71 83.07 256.68 83.02 256.66 82.96C256.62 82.89 256.59 82.82 256.57 82.75C256.52 82.65 256.49 82.54 256.47 82.43C256.44 82.32 256.42 82.21 256.41 82.1C256.4 82 256.39 81.91 256.39 81.81C256.39 80.36 257.58 79.19 259.02 79.19C260.46 79.19 261.65 80.36 261.65 81.81Z" fill="black"/>
<path d="M222.96 82.9C222.96 82.9 231.19 82.38 231.19 74.01C231.19 64.71 220.6 65.17 217.78 65.17H200.52V102.13H221.02C224.03 102.13 232.92 100.43 232.92 91.43C232.92 82.43 222.96 82.9 222.96 82.9ZM212.97 72.78H215.46C216.68 72.81 219.43 73.1 219.43 76.18C219.43 79.26 217.4 79.8 216.13 79.84H212.97V72.78ZM216.67 93.66H212.97V86.8H215.97C216.94 86.8 219.97 86.89 219.97 90.1C219.97 93.31 217.86 93.66 216.67 93.66Z" fill="black"/>
<path d="M201.76 48.83C201.76 52.3 198.95 55.11 195.46 55.11C191.97 55.11 189.18 52.3 189.18 48.83C189.18 45.36 191.99 42.54 195.46 42.54C198.93 42.54 201.76 45.35 201.76 48.83Z" fill="black"/>
<path d="M184.54 65.17H170.08L158.06 102.12H170.99L172.18 97.02H182.43L183.63 102.12H196.55L184.54 65.17ZM173.93 89.52L177.31 75.09L180.69 89.52H173.93Z" fill="black"/>
<path d="M143.19 85.53C143.19 85.53 152.36 84.4 152.36 75.87C152.36 65.48 140.08 65.17 137.53 65.17H116.16V102.12H129.78V87.69L138.82 102.12H156.11L143.19 85.53ZM133.3 81.32H129.7V73.61H133.07C133.65 73.61 137.6 73.88 137.6 77.47C137.6 81.06 133.92 81.32 133.3 81.32Z" fill="black"/>
<path d="M100.09 65.17H85.62L73.61 102.12H86.53L87.73 97.02H97.98L99.17 102.12H112.09L100.09 65.17ZM89.47 89.52L92.85 75.09L96.23 89.52H89.47Z" fill="black"/>
<path d="M58.87 64.74H37V102.56H51.82V89.84H58.87C61.59 89.84 75.23 90.15 75.23 77.05C75.23 63.95 58.87 64.74 58.87 64.74ZM56.66 81.74H51.82V73.59H56.66C57.52 73.59 61.58 73.59 61.58 77.66C61.58 81.73 56.66 81.74 56.66 81.74Z" fill="black"/>
<path d="M259.09 84.44H259.02C258.45 84.44 257.93 84.25 257.5 83.94C257.96 84.25 258.51 84.43 259.09 84.44Z" fill="white"/>
</g>
<defs>
<clipPath id="clip0_459_421">
<rect width="496.3" height="101.11" fill="white" transform="translate(37 22)"/>
</clipPath>
</defs>
</svg>
