<svg width="365" height="31" viewBox="0 0 365 31" fill="none" xmlns="http://www.w3.org/2000/svg">
<g style="mix-blend-mode:difference">
<path d="M162.164 15.709C162.48 15.9389 162.863 16.0799 163.282 16.0799H163.333C162.907 16.0724 162.502 15.9389 162.164 15.709ZM162.164 15.709C162.48 15.9389 162.863 16.0799 163.282 16.0799H163.333C162.907 16.0724 162.502 15.9389 162.164 15.709ZM162.164 15.709C162.48 15.9389 162.863 16.0799 163.282 16.0799H163.333C162.907 16.0724 162.502 15.9389 162.164 15.709ZM162.164 15.709C162.48 15.9389 162.863 16.0799 163.282 16.0799H163.333C162.907 16.0724 162.502 15.9389 162.164 15.709ZM162.164 15.709C162.48 15.9389 162.863 16.0799 163.282 16.0799H163.333C162.907 16.0724 162.502 15.9389 162.164 15.709ZM162.164 15.709C162.48 15.9389 162.863 16.0799 163.282 16.0799H163.333C162.907 16.0724 162.502 15.9389 162.164 15.709ZM162.164 15.709C162.48 15.9389 162.863 16.0799 163.282 16.0799H163.333C162.907 16.0724 162.502 15.9389 162.164 15.709ZM162.164 15.709C162.48 15.9389 162.863 16.0799 163.282 16.0799H163.333C162.907 16.0724 162.502 15.9389 162.164 15.709ZM162.164 15.709C162.48 15.9389 162.863 16.0799 163.282 16.0799H163.333C162.907 16.0724 162.502 15.9389 162.164 15.709ZM162.164 15.709C162.48 15.9389 162.863 16.0799 163.282 16.0799H163.333C162.907 16.0724 162.502 15.9389 162.164 15.709ZM162.164 15.709C162.48 15.9389 162.863 16.0799 163.282 16.0799H163.333C162.907 16.0724 162.502 15.9389 162.164 15.709ZM162.164 15.709C162.48 15.9389 162.863 16.0799 163.282 16.0799H163.333C162.907 16.0724 162.502 15.9389 162.164 15.709ZM162.164 15.709C162.48 15.9389 162.863 16.0799 163.282 16.0799H163.333C162.907 16.0724 162.502 15.9389 162.164 15.709ZM162.164 15.709C162.48 15.9389 162.863 16.0799 163.282 16.0799H163.333C162.907 16.0724 162.502 15.9389 162.164 15.709ZM162.164 15.709C162.48 15.9389 162.863 16.0799 163.282 16.0799H163.333C162.907 16.0724 162.502 15.9389 162.164 15.709ZM162.164 15.709C162.48 15.9389 162.863 16.0799 163.282 16.0799H163.333C162.907 16.0724 162.502 15.9389 162.164 15.709ZM162.164 15.709C162.48 15.9389 162.863 16.0799 163.282 16.0799H163.333C162.907 16.0724 162.502 15.9389 162.164 15.709ZM162.164 15.709C162.48 15.9389 162.863 16.0799 163.282 16.0799H163.333C162.907 16.0724 162.502 15.9389 162.164 15.709ZM162.164 15.709C162.48 15.9389 162.863 16.0799 163.282 16.0799H163.333C162.907 16.0724 162.502 15.9389 162.164 15.709ZM162.164 15.709C162.48 15.9389 162.863 16.0799 163.282 16.0799H163.333C162.907 16.0724 162.502 15.9389 162.164 15.709ZM162.164 15.709C162.48 15.9389 162.863 16.0799 163.282 16.0799H163.333C162.907 16.0724 162.502 15.9389 162.164 15.709ZM162.164 15.709C162.48 15.9389 162.863 16.0799 163.282 16.0799H163.333C162.907 16.0724 162.502 15.9389 162.164 15.709ZM162.164 15.709C162.48 15.9389 162.863 16.0799 163.282 16.0799H163.333C162.907 16.0724 162.502 15.9389 162.164 15.709ZM162.164 15.709C162.48 15.9389 162.863 16.0799 163.282 16.0799H163.333C162.907 16.0724 162.502 15.9389 162.164 15.709ZM162.164 15.709C162.48 15.9389 162.863 16.0799 163.282 16.0799H163.333C162.907 16.0724 162.502 15.9389 162.164 15.709ZM162.164 15.709C162.48 15.9389 162.863 16.0799 163.282 16.0799H163.333C162.907 16.0724 162.502 15.9389 162.164 15.709ZM162.164 15.709C162.48 15.9389 162.863 16.0799 163.282 16.0799H163.333C162.907 16.0724 162.502 15.9389 162.164 15.709ZM162.164 15.709C162.48 15.9389 162.863 16.0799 163.282 16.0799H163.333C162.907 16.0724 162.502 15.9389 162.164 15.709ZM162.164 15.709C162.48 15.9389 162.863 16.0799 163.282 16.0799H163.333C162.907 16.0724 162.502 15.9389 162.164 15.709ZM162.164 15.709C162.48 15.9389 162.863 16.0799 163.282 16.0799H163.333C162.907 16.0724 162.502 15.9389 162.164 15.709ZM162.164 15.709C162.48 15.9389 162.863 16.0799 163.282 16.0799H163.333C162.907 16.0724 162.502 15.9389 162.164 15.709ZM162.164 15.709C162.48 15.9389 162.863 16.0799 163.282 16.0799H163.333C162.907 16.0724 162.502 15.9389 162.164 15.709ZM162.164 15.709C162.48 15.9389 162.863 16.0799 163.282 16.0799H163.333C162.907 16.0724 162.502 15.9389 162.164 15.709ZM162.164 15.709C162.48 15.9389 162.863 16.0799 163.282 16.0799H163.333C162.907 16.0724 162.502 15.9389 162.164 15.709ZM162.164 15.709C162.48 15.9389 162.863 16.0799 163.282 16.0799H163.333C162.907 16.0724 162.502 15.9389 162.164 15.709ZM162.164 15.709C162.48 15.9389 162.863 16.0799 163.282 16.0799H163.333C162.907 16.0724 162.502 15.9389 162.164 15.709ZM162.164 15.709C162.48 15.9389 162.863 16.0799 163.282 16.0799H163.333C162.907 16.0724 162.502 15.9389 162.164 15.709ZM162.164 15.709C162.48 15.9389 162.863 16.0799 163.282 16.0799H163.333C162.907 16.0724 162.502 15.9389 162.164 15.709ZM162.164 15.709C162.48 15.9389 162.863 16.0799 163.282 16.0799H163.333C162.907 16.0724 162.502 15.9389 162.164 15.709ZM162.164 15.709C162.48 15.9389 162.863 16.0799 163.282 16.0799H163.333C162.907 16.0724 162.502 15.9389 162.164 15.709ZM162.164 15.709C162.48 15.9389 162.863 16.0799 163.282 16.0799H163.333C162.907 16.0724 162.502 15.9389 162.164 15.709ZM162.164 15.709C162.48 15.9389 162.863 16.0799 163.282 16.0799H163.333C162.907 16.0724 162.502 15.9389 162.164 15.709ZM162.164 15.709C162.48 15.9389 162.863 16.0799 163.282 16.0799H163.333C162.907 16.0724 162.502 15.9389 162.164 15.709ZM162.164 15.709C162.48 15.9389 162.863 16.0799 163.282 16.0799H163.333C162.907 16.0724 162.502 15.9389 162.164 15.709ZM162.164 15.709C162.48 15.9389 162.863 16.0799 163.282 16.0799H163.333C162.907 16.0724 162.502 15.9389 162.164 15.709Z" fill="white"/>
<path d="M365 4.89423C365 7.46816 362.934 9.55252 360.374 9.55252C357.815 9.55252 355.756 7.46816 355.756 4.89423C355.756 2.3203 357.822 0.228516 360.374 0.228516C362.926 0.228516 365 2.31288 365 4.89423Z" fill="white"/>
<path d="M227.568 21.3022V28.9795H208.586V2.00146H218.595V21.3022H227.568Z" fill="white"/>
<path d="M355.174 23.0973V28.9795H230.906V2.00146H353.416V7.88367H295.684V11.5109H329.213V18.6319H295.684V23.0973H355.174Z" fill="white"/>
<path d="M204.46 1.76416V18.5355C204.46 29.7213 193.274 29.2169 191.781 29.2169C190.288 29.2169 179.102 29.7213 179.102 18.5355V1.76416H188.692V18.0014C188.692 20.3083 189.935 20.9166 191.781 20.9166C193.627 20.9166 194.869 20.3083 194.869 18.0014V1.76416H204.46Z" fill="white"/>
<path d="M161.091 0.79248C153.045 0.79248 146.521 7.37195 146.521 15.4943C146.521 23.6166 153.045 30.1961 161.091 30.1961C169.136 30.1961 175.674 23.6092 175.674 15.4943C175.674 7.37937 169.151 0.79248 161.091 0.79248ZM161.091 22.6746C157.163 22.6746 153.979 19.4553 153.979 15.4943C153.979 11.5333 157.163 8.30657 161.091 8.30657C165.018 8.30657 168.21 11.5258 168.21 15.4943C168.21 19.4627 165.033 22.6746 161.091 22.6746Z" fill="white"/>
<path d="M165.218 14.129C165.218 15.1378 164.461 15.9686 163.49 16.0724C163.446 16.0798 163.409 16.0798 163.365 16.0798H163.335C162.909 16.0724 162.504 15.9389 162.166 15.7089C162.122 15.6793 162.07 15.6422 162.026 15.6051C162.019 15.5977 162.012 15.5903 162.004 15.5903C161.953 15.5457 161.901 15.5012 161.857 15.4493C161.761 15.3381 161.681 15.2268 161.607 15.1007C161.585 15.0636 161.563 15.0265 161.548 14.982C161.519 14.9301 161.497 14.8782 161.482 14.8262C161.445 14.7521 161.423 14.6705 161.408 14.5889C161.386 14.5073 161.372 14.4257 161.364 14.3441C161.357 14.2699 161.35 14.2032 161.35 14.129C161.35 13.0534 162.225 12.1855 163.284 12.1855C164.343 12.1855 165.218 13.0534 165.218 14.129Z" fill="white"/>
<path d="M136.763 14.938C136.763 14.938 142.816 14.5523 142.816 8.34367C142.816 1.44524 135.027 1.78646 132.953 1.78646H120.26V29.2021H135.336C137.55 29.2021 144.088 27.9411 144.088 21.2652C144.088 14.5893 136.763 14.938 136.763 14.938ZM129.416 7.4313H131.247C132.145 7.45355 134.167 7.66867 134.167 9.95331C134.167 12.2379 132.674 12.6385 131.74 12.6682H129.416V7.4313ZM132.137 22.9194H129.416V17.8309H131.622C132.336 17.8309 134.564 17.8976 134.564 20.2787C134.564 22.6598 133.012 22.9194 132.137 22.9194Z" fill="white"/>
<path d="M108.508 1.78613H97.8732L89.0332 29.1944H98.5425L99.4176 25.4114H106.956L107.838 29.1944H117.34L108.508 1.78613ZM100.705 19.8481L103.19 9.14446L105.676 19.8481H100.705Z" fill="white"/>
<path d="M78.0958 16.8885C78.0958 16.8885 84.8398 16.0503 84.8398 9.72303C84.8398 2.01608 75.8086 1.78613 73.9332 1.78613H58.2168V29.1944H68.2335V18.4907L74.8819 29.1944H87.5977L78.0958 16.8885ZM70.8223 13.7657H68.1747V8.04664H70.6531C71.0797 8.04664 73.9847 8.24692 73.9847 10.9099C73.9847 13.5728 71.2783 13.7657 70.8223 13.7657Z" fill="white"/>
<path d="M46.3983 1.78613H35.7565L26.9238 29.1944H36.4257L37.3083 25.4114H44.8466L45.7217 29.1944H55.2236L46.3983 1.78613ZM38.5879 19.8481L41.0737 9.14446L43.5595 19.8481H38.5879Z" fill="white"/>
<path d="M16.0841 1.46724H0V29.5208H10.8993V20.0856H16.0841C18.0845 20.0856 28.116 20.3155 28.116 10.5984C28.116 0.88124 16.0841 1.46724 16.0841 1.46724ZM14.4588 14.0773H10.8993V8.03187H14.4588C15.0913 8.03187 18.0772 8.03187 18.0772 11.0509C18.0772 14.0698 14.4588 14.0773 14.4588 14.0773Z" fill="white"/>
<path d="M163.333 16.0799H163.282C162.863 16.0799 162.48 15.9389 162.164 15.709C162.502 15.9389 162.907 16.0724 163.333 16.0799Z" fill="white"/>
</g>
</svg>
