<svg width="108" height="364" viewBox="0 0 108 364" fill="none" xmlns="http://www.w3.org/2000/svg">
<path d="M9.25469 72.5095C34.2482 47.5159 74.7708 47.5159 99.7644 72.5095" stroke="#FF0000" stroke-width="3"/>
<path d="M2.00009 52.3822C30.93 23.4523 77.8346 23.4523 106.765 52.3822" stroke="#FF0000" stroke-width="3"/>
<path d="M20.5095 92.637C39.3576 73.7889 69.9164 73.7889 88.7644 92.637" stroke="#FF0000" stroke-width="3"/>
<path d="M9.25469 291.255C34.2482 316.248 74.7708 316.248 99.7644 291.255" stroke="#FF0000" stroke-width="3"/>
<path d="M2.00009 311.382C30.93 340.312 77.8346 340.312 106.765 311.382" stroke="#FF0000" stroke-width="3"/>
<path d="M20.5095 271.127C39.3576 289.975 69.9164 289.975 88.7644 271.127" stroke="#FF0000" stroke-width="3"/>
<rect x="20.5" y="111.5" width="66.2039" height="141" rx="6.5" stroke="#FF0000" stroke-width="3"/>
<path d="M58 118.5H77C78.3807 118.5 79.5 119.619 79.5 121V177C79.5 178.381 78.3807 179.5 77 179.5H64C59.3056 179.5 55.5 175.694 55.5 171V121C55.5 119.619 56.6193 118.5 58 118.5Z" stroke="#FF0000" stroke-width="3"/>
<path d="M64 184.5H77C78.3807 184.5 79.5 185.619 79.5 187V243C79.5 244.381 78.3807 245.5 77 245.5H58C56.6193 245.5 55.5 244.381 55.5 243V193C55.5 188.306 59.3056 184.5 64 184.5Z" stroke="#FF0000" stroke-width="3"/>
<path d="M30 118.5H49C50.3807 118.5 51.5 119.619 51.5 121V171C51.5 175.694 47.6944 179.5 43 179.5H30C28.6193 179.5 27.5 178.381 27.5 177V121C27.5 119.619 28.6193 118.5 30 118.5Z" stroke="#FF0000" stroke-width="3"/>
<path d="M30 184.5H43C47.6944 184.5 51.5 188.306 51.5 193V243C51.5 244.381 50.3807 245.5 49 245.5H30C28.6193 245.5 27.5 244.381 27.5 243V187C27.5 185.619 28.6193 184.5 30 184.5Z" stroke="#FF0000" stroke-width="3"/>
</svg>
