<svg width="150" height="150" viewBox="0 0 150 150" fill="none" xmlns="http://www.w3.org/2000/svg">
<path d="M0 75H10H20M150 75H140H130" stroke="#FF0000" stroke-width="3"/>
<path d="M10 113L28.1865 102.5M139.904 38L122.583 48" stroke="#FF0000" stroke-width="3"/>
<path d="M10 38L27.3205 48M139.904 113L122.5 102.952" stroke="#FF0000" stroke-width="3"/>
<path d="M37 139.904L47.3368 122M112 10L102 27.3205" stroke="#FF0000" stroke-width="3"/>
<path d="M36.9999 10L47.3923 28M112 139.904L102 122.584" stroke="#FF0000" stroke-width="3"/>
<path d="M75 150V140V130M75 0V10L75 22.5" stroke="#FF0000" stroke-width="3"/>
<rect x="56.5" y="40.5" width="36" height="70" rx="3.5" stroke="#FF0000" stroke-width="3"/>
<path d="M73.7623 82.264C71.1883 82.264 69.0103 81.164 68.1743 78.876L71.0123 77.864C71.3863 79.316 72.5083 79.932 73.8283 79.932C75.3023 79.932 76.2703 79.14 76.2703 77.776C76.2703 76.082 74.7083 75.51 72.6183 75.51H72.0683V73.288H72.6183C74.7303 73.288 76.0503 72.496 76.0503 71.176C76.0503 69.988 74.9283 69.372 73.6743 69.372C72.4863 69.372 71.4523 69.922 71.1663 71.286L68.3283 70.274C69.1423 68.052 71.3863 67.04 73.8503 67.04C76.5123 67.04 79.1963 68.228 79.1963 70.934C79.1963 72.606 78.1843 73.728 76.7543 74.3C78.6023 74.894 79.4603 76.258 79.4603 77.732C79.4603 80.768 76.7323 82.264 73.7623 82.264Z" fill="#FF0000"/>
</svg>
