<svg width="94" height="310" viewBox="0 0 94 310" fill="none" xmlns="http://www.w3.org/2000/svg">
<path d="M2.00005 45.2548C26.9936 20.2613 67.5162 20.2613 92.5097 45.2548" stroke="#FF0000" stroke-width="3"/>
<path d="M13.2549 65.3824C32.1029 46.5343 62.6617 46.5343 81.5098 65.3824" stroke="#FF0000" stroke-width="3"/>
<path d="M2.00005 264C26.9936 288.994 67.5162 288.994 92.5097 264" stroke="#FF0000" stroke-width="3"/>
<path d="M13.2549 243.873C32.1029 262.721 62.6617 262.721 81.5098 243.873" stroke="#FF0000" stroke-width="3"/>
<rect x="13.2454" y="84.2454" width="66.2039" height="141" rx="6.5" stroke="#FF0000" stroke-width="3"/>
<path d="M44.5315 149.595C43.7973 150.656 43.1838 151.748 42.691 152.871C42.3005 153.753 41.9506 154.83 41.6412 156.102C41.3318 157.374 41.1801 158.417 41.1863 159.23L38.2957 159.252C38.3612 156.713 39.1745 154.066 40.7358 151.314C41.745 149.607 42.5922 148.415 43.2772 147.74L36.2168 147.793L36.237 145.293L46.2367 145.217L46.2532 147.395C45.8396 147.808 45.2657 148.542 44.5315 149.595ZM55.4841 148.966C56.3214 149.493 56.8068 150.408 56.9404 151.709L54.1573 151.73C54.1155 151.372 54.0124 151.09 53.8481 150.882C53.5393 150.507 53.017 150.322 52.2814 150.328C51.6759 150.332 51.2437 150.43 50.9847 150.621C50.7323 150.812 50.607 151.034 50.6089 151.288C50.6113 151.607 50.7498 151.837 51.0243 151.978C51.2989 152.126 52.2676 152.376 53.9304 152.728C55.0391 152.98 55.8722 153.367 56.4295 153.89C56.9804 154.42 57.2589 155.085 57.265 155.886C57.2729 156.941 56.8856 157.806 56.1029 158.483C55.3267 159.153 54.1183 159.494 52.4778 159.506C50.8046 159.519 49.565 159.177 48.759 158.48C47.9593 157.776 47.5554 156.877 47.5471 155.784L50.3693 155.762C50.4316 156.257 50.5612 156.607 50.7581 156.814C51.106 157.183 51.7454 157.363 52.6764 157.356C53.2232 157.352 53.6555 157.268 53.9733 157.102C54.2976 156.937 54.4585 156.692 54.456 156.366C54.4537 156.054 54.3217 155.817 54.06 155.656C53.7984 155.496 52.8295 155.223 51.1534 154.838C49.9467 154.548 49.0943 154.18 48.5961 153.735C48.098 153.296 47.8458 152.66 47.8395 151.826C47.832 150.843 48.2098 149.997 48.9726 149.288C49.742 148.573 50.8265 148.21 52.2262 148.199C53.5543 148.189 54.6402 148.445 55.4841 148.966Z" fill="#FF0000"/>
</svg>
