<svg width="94" height="310" viewBox="0 0 94 310" fill="none" xmlns="http://www.w3.org/2000/svg">
<path d="M1.25469 256.255C26.2482 281.248 66.7708 281.248 91.7644 256.255" stroke="#FF0000" stroke-width="3"/>
<path d="M92.5097 53.2548C67.5162 28.2613 26.9936 28.2613 2.00005 53.2548" stroke="#FF0000" stroke-width="3"/>
<path d="M12.5095 241.127C31.3576 259.975 61.9164 259.975 80.7644 241.127" stroke="#FF0000" stroke-width="3"/>
<path d="M81.5315 68.3824C62.6834 49.5343 32.1247 49.5343 13.2766 68.3824" stroke="#FF0000" stroke-width="3"/>
<rect x="12.5" y="84.5" width="66.2039" height="141" rx="6.5" stroke="#FF0000" stroke-width="3"/>
<path d="M47.5 94C47.5 92.6193 48.6193 91.5 50 91.5H69C70.3807 91.5 71.5 92.6193 71.5 94V150C71.5 151.381 70.3807 152.5 69 152.5H56C51.3056 152.5 47.5 148.694 47.5 144V94Z" stroke="#FF0000" stroke-width="3"/>
<path d="M47.5 166C47.5 161.306 51.3056 157.5 56 157.5H69C70.3807 157.5 71.5 158.619 71.5 160V216C71.5 217.381 70.3807 218.5 69 218.5H50C48.6193 218.5 47.5 217.381 47.5 216V166Z" stroke="#FF0000" stroke-width="3"/>
<path d="M19.5 94C19.5 92.6193 20.6193 91.5 22 91.5H41C42.3807 91.5 43.5 92.6193 43.5 94V144C43.5 148.694 39.6944 152.5 35 152.5H22C20.6193 152.5 19.5 151.381 19.5 150V94Z" stroke="#FF0000" stroke-width="3"/>
<path d="M19.5 160C19.5 158.619 20.6193 157.5 22 157.5H35C39.6944 157.5 43.5 161.306 43.5 166V216C43.5 217.381 42.3807 218.5 41 218.5H22C20.6193 218.5 19.5 217.381 19.5 216V160Z" stroke="#FF0000" stroke-width="3"/>
<circle cx="45" cy="155" r="16.5" stroke="#FF0000" stroke-width="3"/>
</svg>
