<svg width="94" height="17" viewBox="0 0 94 17" fill="none" xmlns="http://www.w3.org/2000/svg">
<path d="M9.57758 15.8992C8.93469 16.119 8.16404 16.2322 7.26563 16.239C5.39068 16.2532 3.83701 15.705 2.60462 14.5945C1.11009 13.2581 0.352954 11.2846 0.333206 8.67404C0.313311 6.0439 1.05996 4.04927 2.57316 2.69012C3.8083 1.58049 5.35031 1.01868 7.19922 1.00469C9.06114 0.99061 10.628 1.56146 11.8998 2.71723C13.3683 4.05382 14.1117 5.93302 14.13 8.35482C14.1397 9.63734 13.9916 10.7127 13.6857 11.5809C13.438 12.4097 13.0689 13.0993 12.5782 13.6499L14.2501 15.19L12.6903 16.8425L10.9396 15.2151C10.4147 15.5381 9.96069 15.7661 9.57758 15.8992ZM8.91341 13.3065L7.44789 11.9309L8.98832 10.2981L10.4538 11.6737C10.6782 11.2033 10.8346 10.7919 10.923 10.4397C11.0623 9.91127 11.1292 9.29552 11.1239 8.59241C11.1117 6.97787 10.7702 5.73368 10.0996 4.85982C9.43533 3.9794 8.46846 3.54399 7.19897 3.5536C6.0076 3.56261 5.0603 3.99296 4.35709 4.84466C3.65388 5.69636 3.30865 6.96528 3.3214 8.65143C3.33632 10.624 3.85481 12.0329 4.87685 12.8781C5.53857 13.4265 6.3284 13.6972 7.24635 13.6902C7.59139 13.6876 7.92309 13.6428 8.24145 13.5558C8.41688 13.5089 8.64087 13.4258 8.91341 13.3065ZM22.5613 10.0782L19.4559 10.1017L19.4986 15.7461L16.5592 15.7683L16.4503 1.37418L23.5107 1.32077C24.5199 1.33267 25.2956 1.45051 25.8376 1.67428C26.3862 1.898 26.851 2.22978 27.2319 2.66962C27.5472 3.03183 27.7976 3.43359 27.9832 3.87491C28.1689 4.31622 28.2638 4.82008 28.2681 5.38647C28.2733 6.07004 28.1059 6.74516 27.7658 7.41181C27.4258 8.07195 26.8597 8.54174 26.0675 8.82118C26.7335 9.08308 27.2052 9.46038 27.4823 9.95309C27.766 10.4392 27.9116 11.1869 27.9192 12.1959L27.9265 13.1627C27.9315 13.8202 27.9609 14.266 28.0148 14.5C28.0957 14.8705 28.2801 15.1425 28.5678 15.3161L28.5706 15.6774L25.2601 15.7025C25.1666 15.3842 25.0995 15.1275 25.059 14.9325C24.9778 14.5295 24.9324 14.1164 24.9227 13.6933L24.893 12.3556C24.873 11.4377 24.6991 10.827 24.3713 10.5235C24.05 10.2199 23.4467 10.0715 22.5613 10.0782ZM24.3676 7.44728C24.9645 7.16932 25.2598 6.62671 25.2537 5.81944C25.2471 4.94707 24.953 4.36334 24.3713 4.06825C24.0445 3.90145 23.5556 3.82051 22.9046 3.82543L19.4086 3.85188L19.4379 7.71895L22.846 7.69317C23.523 7.68805 24.0302 7.60609 24.3676 7.44728ZM43.5422 5.40765C44.3795 5.93519 44.8649 6.84951 44.9985 8.15062L42.2154 8.17167C42.1736 7.81391 42.0705 7.53147 41.9062 7.32438C41.5974 6.9491 41.0751 6.76424 40.3395 6.76981C39.734 6.77439 39.3018 6.87206 39.0428 7.06283C38.7904 7.25354 38.6651 7.47585 38.667 7.72975C38.6694 8.04875 38.8079 8.27883 39.0824 8.41999C39.357 8.56766 40.3257 8.8175 41.9885 9.16951C43.0972 9.42155 43.9303 9.80914 44.4876 10.3323C45.0385 10.862 45.317 11.5272 45.3231 12.328C45.331 13.3826 44.9437 14.2482 44.161 14.9247C43.3848 15.5947 42.1764 15.9359 40.5359 15.9483C38.8627 15.9609 37.6231 15.6187 36.8171 14.9217C36.0174 14.2181 35.6135 13.3194 35.6052 12.2257L38.4274 12.2043C38.4897 12.6987 38.6193 13.0493 38.8162 13.2561C39.1641 13.6246 39.8035 13.8053 40.7344 13.7983C41.2813 13.7941 41.7136 13.7095 42.0314 13.5443C42.3557 13.3791 42.5166 13.1337 42.5141 12.8082C42.5118 12.4957 42.3798 12.2591 42.1181 12.0983C41.8565 11.9375 40.8876 11.6649 39.2115 11.2804C38.0048 10.9901 37.1524 10.6221 36.6542 10.1767C36.1561 9.73773 35.9039 9.1016 35.8976 8.26829C35.8901 7.28525 36.2678 6.43927 37.0307 5.73035C37.8001 5.01488 38.8846 4.65185 40.2843 4.64126C41.6124 4.63121 42.6983 4.88668 43.5422 5.40765ZM52.2756 13.5157L52.2913 15.5957L50.9734 15.6545C49.6587 15.71 48.7585 15.4889 48.273 14.9913C47.9581 14.6746 47.7981 14.1843 47.7931 13.5203L47.7435 6.96771L46.2592 6.97894L46.2442 4.99658L47.7285 4.98535L47.7061 2.01668L50.4599 1.99585L50.4824 4.96452L52.2108 4.95144L52.2258 6.93381L50.4974 6.94688L50.5399 12.5717C50.5432 13.0079 50.6006 13.2809 50.7121 13.3908C50.8236 13.4941 51.1625 13.5436 51.7289 13.5393C51.8135 13.5387 51.9014 13.538 51.9926 13.5373C52.0902 13.5301 52.1845 13.5229 52.2756 13.5157ZM54.4062 5.98955C55.1348 5.04652 56.3942 4.56823 58.1846 4.55468C59.3499 4.54587 60.3868 4.76915 61.2952 5.22453C62.2036 5.67991 62.6627 6.54886 62.6724 7.83138L62.7093 12.7141C62.7119 13.0526 62.7215 13.4627 62.7381 13.9443C62.7604 14.3088 62.8176 14.5557 62.9098 14.6852C63.0019 14.8148 63.1394 14.9211 63.3223 15.0044L63.3254 15.4145L60.2982 15.4374C60.2119 15.2232 60.1518 15.0219 60.1178 14.8333C60.0839 14.6448 60.0562 14.4301 60.0348 14.1894C59.6539 14.609 59.2139 14.9671 58.7148 15.2639C58.1185 15.6134 57.4427 15.7911 56.6875 15.7968C55.724 15.8041 54.9244 15.5367 54.2888 14.9946C53.6596 14.446 53.3412 13.6671 53.3336 12.658C53.3237 11.3495 53.8211 10.3984 54.8257 9.80485C55.3767 9.48166 56.1887 9.24765 57.2619 9.10281L58.2083 8.97846C58.7221 8.90947 59.0893 8.82531 59.3099 8.72598C59.7057 8.55371 59.9023 8.28854 59.8996 7.93048C59.8963 7.49429 59.741 7.19598 59.4338 7.03554C59.1331 6.86854 58.6897 6.78725 58.1038 6.79169C57.4463 6.79666 56.982 6.96294 56.7111 7.29052C56.5176 7.53287 56.3898 7.85937 56.3278 8.27001L53.6424 8.29032C53.6939 7.35891 53.9485 6.59199 54.4062 5.98955ZM56.5331 13.4541C56.7951 13.667 57.1149 13.772 57.4925 13.7692C58.0915 13.7646 58.6402 13.5847 59.1389 13.2294C59.644 12.874 59.9028 12.2307 59.9153 11.2996L59.9075 10.2645C59.7325 10.3765 59.5542 10.469 59.3725 10.542C59.1972 10.6084 58.9535 10.6721 58.6415 10.733L58.0174 10.855C57.4322 10.9636 57.0133 11.0937 56.7605 11.2453C56.3328 11.5025 56.1209 11.898 56.1249 12.4318C56.1285 12.9071 56.2646 13.2478 56.5331 13.4541ZM70.0681 13.3811L70.0838 15.4611L68.7658 15.5199C67.4511 15.5754 66.551 15.3543 66.0654 14.8567C65.7505 14.5401 65.5906 14.0497 65.5856 13.3857L65.536 6.83313L64.0517 6.84435L64.0367 4.86199L65.521 4.85076L65.4985 1.8821L68.2524 1.86127L68.2748 4.82993L70.0033 4.81686L70.0183 6.79922L68.2898 6.8123L68.3324 12.4371C68.3357 12.8733 68.3931 13.1463 68.5046 13.2562C68.616 13.3595 68.955 13.409 69.5214 13.4047C69.606 13.4041 69.6939 13.4034 69.785 13.4027C69.8826 13.3955 69.977 13.3883 70.0681 13.3811ZM78.6847 13.7944C78.6589 13.8272 78.5946 13.9253 78.4916 14.0889C78.3887 14.2524 78.2661 14.3966 78.1238 14.5213C77.6906 14.9152 77.2694 15.1854 76.8604 15.3317C76.4578 15.478 75.9831 15.5532 75.4362 15.5573C73.8608 15.5692 72.7953 15.0109 72.2399 13.8822C71.9292 13.2596 71.7692 12.3395 71.76 11.1221L71.7115 4.70628L74.563 4.68471L74.6115 11.1005C74.6161 11.706 74.6911 12.1612 74.8367 12.4661C75.0947 13.0045 75.5947 13.2709 76.3369 13.2653C77.2874 13.2581 77.9355 12.8691 78.2813 12.0982C78.4604 11.6802 78.5474 11.1294 78.5422 10.4458L78.4984 4.65494L81.3206 4.63359L81.4011 15.2778L78.6961 15.2983L78.6847 13.7944ZM91.3533 5.04599C92.1906 5.57353 92.6761 6.48785 92.8096 7.78896L90.0265 7.81002C89.9847 7.45225 89.8817 7.16982 89.7173 6.96272C89.4085 6.58744 88.8863 6.40258 88.1506 6.40815C87.5452 6.41273 87.1129 6.5104 86.854 6.70117C86.6015 6.89189 86.4762 7.11419 86.4781 7.36809C86.4805 7.68709 86.619 7.91717 86.8935 8.05833C87.1681 8.206 88.1368 8.45584 89.7997 8.80785C90.9084 9.05989 91.7414 9.44748 92.2988 9.97062C92.8497 10.5003 93.1281 11.1656 93.1342 11.9663C93.1422 13.021 92.7548 13.8866 91.9722 14.5631C91.196 15.233 89.9876 15.5742 88.347 15.5866C86.6739 15.5993 85.4343 15.2571 84.6282 14.56C83.8286 13.8564 83.4246 12.9578 83.4163 11.864L86.2385 11.8427C86.3009 12.337 86.4305 12.6876 86.6274 12.8945C86.9752 13.2629 87.6146 13.4437 88.5456 13.4366C89.0924 13.4325 89.5248 13.3478 89.8425 13.1827C90.1668 13.0174 90.3277 12.7721 90.3252 12.4466C90.3229 12.1341 90.1909 11.8974 89.9292 11.7366C89.6676 11.5759 88.6987 11.3032 87.0226 10.9188C85.8159 10.6284 84.9635 10.2605 84.4653 9.81503C83.9672 9.37608 83.715 8.73994 83.7087 7.90663C83.7013 6.92359 84.079 6.07761 84.8419 5.36869C85.6112 4.65322 86.6957 4.29019 88.0954 4.2796C89.4235 4.26955 90.5095 4.52502 91.3533 5.04599Z" fill="#FF0000"/>
</svg>
