<svg width="174" height="174" viewBox="0 0 174 174" fill="none" xmlns="http://www.w3.org/2000/svg">
<g filter="url(#filter0_i_471_498)">
<path d="M20 87C20 73.7486 23.9295 60.7949 31.2915 49.7768C38.6536 38.7587 49.1176 30.1711 61.3602 25.1001C73.6029 20.029 87.0743 18.7022 100.071 21.2874C113.068 23.8726 125.006 30.2537 134.376 39.6238C143.746 48.9939 150.127 60.9322 152.713 73.9289C155.298 86.9256 153.971 100.397 148.9 112.64C143.829 124.882 135.241 135.346 124.223 142.708C113.205 150.071 100.251 154 87 154L87 87L20 87Z" fill="white"/>
</g>
<g filter="url(#filter1_i_471_498)">
<path d="M87 20C100.251 20 113.205 23.9295 124.223 31.2915C135.241 38.6536 143.829 49.1175 148.9 61.3602C153.971 73.6028 155.298 87.0743 152.713 100.071C150.127 113.068 143.746 125.006 134.376 134.376C125.006 143.746 113.068 150.127 100.071 152.713C87.0744 155.298 73.6029 153.971 61.3603 148.9C49.1176 143.829 38.6537 135.241 31.2916 124.223C23.9295 113.205 20 100.251 20 87.0001L87 87L87 20Z" fill="white"/>
</g>
<g filter="url(#filter2_i_471_498)">
<path d="M20 87C20 95.7986 21.733 104.511 25.1001 112.64C28.4671 120.769 33.4023 128.155 39.6238 134.376C45.8454 140.598 53.2314 145.533 61.3602 148.9C69.489 152.267 78.2014 154 87 154L87 87L20 87Z" fill="white"/>
</g>
<g filter="url(#filter3_i_471_498)">
<path d="M154 87C154 78.2014 152.267 69.489 148.9 61.3602C145.533 53.2314 140.598 45.8454 134.376 39.6238C128.155 33.4023 120.769 28.4671 112.64 25.1001C104.511 21.733 95.7986 20 87 20L87 87L154 87Z" fill="white"/>
</g>
<g filter="url(#filter4_i_471_498)">
<path d="M154 87C154 78.2014 152.267 69.489 148.9 61.3602C145.533 53.2314 140.598 45.8454 134.376 39.6238L87 87L154 87Z" fill="white"/>
</g>
<path d="M37 87L30.444 70.9682L47.6059 73.3064L37 87ZM67.8658 40.806L67.2918 39.4202L67.2918 39.4202L67.8658 40.806ZM122.355 51.6447L121.295 52.7053L121.295 52.7053L122.355 51.6447ZM136.039 77.2455L137.51 76.9529L136.039 77.2455ZM133.194 106.134L134.58 106.708L134.58 106.708L133.194 106.134ZM114.779 128.573L113.945 127.326L113.945 127.326L114.779 128.573ZM38.8224 73.6238L37.3771 73.2225C38.8339 67.9757 41.1214 62.9647 44.1793 58.3881L45.4265 59.2215L46.6737 60.0548C43.7939 64.3648 41.6397 69.0839 40.2678 74.0251L38.8224 73.6238ZM45.4265 59.2215L44.1793 58.3881C49.8382 49.919 57.8814 43.3181 67.2918 39.4202L67.8658 40.806L68.4398 42.1918C59.5776 45.8627 52.003 52.0791 46.6737 60.0548L45.4265 59.2215ZM67.8658 40.806L67.2918 39.4202C76.7022 35.5223 87.0571 34.5024 97.0471 36.4896L96.7545 37.9607L96.4619 39.4319C87.0538 37.5605 77.3021 38.521 68.4398 42.1918L67.8658 40.806ZM96.7545 37.9607L97.0471 36.4896C107.037 38.4767 116.214 43.3816 123.416 50.584L122.355 51.6447L121.295 52.7053C114.512 45.9225 105.87 41.3033 96.4619 39.4319L96.7545 37.9607ZM122.355 51.6447L123.416 50.584C130.618 57.7864 135.523 66.9628 137.51 76.9529L136.039 77.2455L134.568 77.5381C132.697 68.13 128.078 59.4882 121.295 52.7053L122.355 51.6447ZM136.039 77.2455L137.51 76.9529C139.498 86.9429 138.478 97.2978 134.58 106.708L133.194 106.134L131.808 105.56C135.479 96.6979 136.439 86.9462 134.568 77.5381L136.039 77.2455ZM133.194 106.134L134.58 106.708C130.682 116.119 124.081 124.162 115.612 129.821L114.779 128.573L113.945 127.326C121.921 121.997 128.137 114.422 131.808 105.56L133.194 106.134ZM114.779 128.573L115.612 129.821C107.143 135.48 97.1857 138.5 87 138.5V137V135.5C96.5924 135.5 105.969 132.656 113.945 127.326L114.779 128.573Z" fill="black"/>
<line x1="87.5" y1="146" x2="87.5" y2="128" stroke="black" stroke-width="3"/>
<line x1="146" y1="87.5" x2="128" y2="87.5" stroke="black" stroke-width="3"/>
<line x1="46" y1="86.5" x2="28" y2="86.5" stroke="black" stroke-width="3"/>
<line x1="87.5" y1="46" x2="87.5" y2="28" stroke="black" stroke-width="3"/>
<line x1="115.939" y1="57.6674" x2="128.667" y2="44.9394" stroke="black" stroke-width="3"/>
<circle cx="87" cy="87" r="50" stroke="black" stroke-width="3"/>
<defs>
<filter id="filter0_i_471_498" x="20" y="20" width="134" height="134" filterUnits="userSpaceOnUse" color-interpolation-filters="sRGB">
<feFlood flood-opacity="0" result="BackgroundImageFix"/>
<feBlend mode="normal" in="SourceGraphic" in2="BackgroundImageFix" result="shape"/>
<feColorMatrix in="SourceAlpha" type="matrix" values="0 0 0 0 0 0 0 0 0 0 0 0 0 0 0 0 0 0 127 0" result="hardAlpha"/>
<feMorphology radius="14" operator="erode" in="SourceAlpha" result="effect1_innerShadow_471_498"/>
<feOffset/>
<feGaussianBlur stdDeviation="17.5"/>
<feComposite in2="hardAlpha" operator="arithmetic" k2="-1" k3="1"/>
<feColorMatrix type="matrix" values="0 0 0 0 0.38024 0 0 0 0 0.421557 0 0 0 0 1 0 0 0 1 0"/>
<feBlend mode="normal" in2="shape" result="effect1_innerShadow_471_498"/>
</filter>
<filter id="filter1_i_471_498" x="20" y="20" width="134" height="134" filterUnits="userSpaceOnUse" color-interpolation-filters="sRGB">
<feFlood flood-opacity="0" result="BackgroundImageFix"/>
<feBlend mode="normal" in="SourceGraphic" in2="BackgroundImageFix" result="shape"/>
<feColorMatrix in="SourceAlpha" type="matrix" values="0 0 0 0 0 0 0 0 0 0 0 0 0 0 0 0 0 0 127 0" result="hardAlpha"/>
<feMorphology radius="14" operator="erode" in="SourceAlpha" result="effect1_innerShadow_471_498"/>
<feOffset/>
<feGaussianBlur stdDeviation="17.5"/>
<feComposite in2="hardAlpha" operator="arithmetic" k2="-1" k3="1"/>
<feColorMatrix type="matrix" values="0 0 0 0 0.38024 0 0 0 0 0.421557 0 0 0 0 1 0 0 0 1 0"/>
<feBlend mode="normal" in2="shape" result="effect1_innerShadow_471_498"/>
</filter>
<filter id="filter2_i_471_498" x="20" y="87" width="67" height="67" filterUnits="userSpaceOnUse" color-interpolation-filters="sRGB">
<feFlood flood-opacity="0" result="BackgroundImageFix"/>
<feBlend mode="normal" in="SourceGraphic" in2="BackgroundImageFix" result="shape"/>
<feColorMatrix in="SourceAlpha" type="matrix" values="0 0 0 0 0 0 0 0 0 0 0 0 0 0 0 0 0 0 127 0" result="hardAlpha"/>
<feMorphology radius="14" operator="erode" in="SourceAlpha" result="effect1_innerShadow_471_498"/>
<feOffset/>
<feGaussianBlur stdDeviation="17.5"/>
<feComposite in2="hardAlpha" operator="arithmetic" k2="-1" k3="1"/>
<feColorMatrix type="matrix" values="0 0 0 0 1 0 0 0 0 0 0 0 0 0 0 0 0 0 1 0"/>
<feBlend mode="normal" in2="shape" result="effect1_innerShadow_471_498"/>
</filter>
<filter id="filter3_i_471_498" x="87" y="20" width="67" height="67" filterUnits="userSpaceOnUse" color-interpolation-filters="sRGB">
<feFlood flood-opacity="0" result="BackgroundImageFix"/>
<feBlend mode="normal" in="SourceGraphic" in2="BackgroundImageFix" result="shape"/>
<feColorMatrix in="SourceAlpha" type="matrix" values="0 0 0 0 0 0 0 0 0 0 0 0 0 0 0 0 0 0 127 0" result="hardAlpha"/>
<feMorphology radius="14" operator="erode" in="SourceAlpha" result="effect1_innerShadow_471_498"/>
<feOffset/>
<feGaussianBlur stdDeviation="17.5"/>
<feComposite in2="hardAlpha" operator="arithmetic" k2="-1" k3="1"/>
<feColorMatrix type="matrix" values="0 0 0 0 1 0 0 0 0 0 0 0 0 0 0 0 0 0 1 0"/>
<feBlend mode="normal" in2="shape" result="effect1_innerShadow_471_498"/>
</filter>
<filter id="filter4_i_471_498" x="87" y="39.6238" width="67" height="47.3762" filterUnits="userSpaceOnUse" color-interpolation-filters="sRGB">
<feFlood flood-opacity="0" result="BackgroundImageFix"/>
<feBlend mode="normal" in="SourceGraphic" in2="BackgroundImageFix" result="shape"/>
<feColorMatrix in="SourceAlpha" type="matrix" values="0 0 0 0 0 0 0 0 0 0 0 0 0 0 0 0 0 0 127 0" result="hardAlpha"/>
<feMorphology radius="4" operator="erode" in="SourceAlpha" result="effect1_innerShadow_471_498"/>
<feOffset/>
<feGaussianBlur stdDeviation="4.45"/>
<feComposite in2="hardAlpha" operator="arithmetic" k2="-1" k3="1"/>
<feColorMatrix type="matrix" values="0 0 0 0 1 0 0 0 0 1 0 0 0 0 0 0 0 0 1 0"/>
<feBlend mode="normal" in2="shape" result="effect1_innerShadow_471_498"/>
</filter>
</defs>
</svg>
