<svg width="106" height="102" viewBox="0 0 106 102" fill="none" xmlns="http://www.w3.org/2000/svg">
<path d="M4.55947 28.8694C4.79043 29.665 5.62261 30.1227 6.41819 29.8918L19.3829 26.1281C20.1785 25.8971 20.6362 25.065 20.4053 24.2694C20.1743 23.4738 19.3421 23.0161 18.5466 23.247L7.02234 26.5925L3.67684 15.0683C3.44588 14.2727 2.6137 13.815 1.81812 14.046C1.02254 14.2769 0.564822 15.1091 0.795781 15.9047L4.55947 28.8694ZM102.5 51C102.5 77.1533 80.0154 98.5 52.0949 98.5V101.5C81.5071 101.5 105.5 78.9706 105.5 51H102.5ZM52.0949 3.5C80.0154 3.5 102.5 24.8467 102.5 51H105.5C105.5 23.0294 81.5071 0.5 52.0949 0.5V3.5ZM52.0949 98.5C32.5787 98.5 15.69 88.0536 7.31431 72.8258L4.68569 74.2716C13.5978 90.4748 31.5039 101.5 52.0949 101.5V98.5ZM7.31431 29.1742C15.69 13.9464 32.5787 3.5 52.0949 3.5V0.5C31.5039 0.5 13.5978 11.5252 4.68569 27.7284L7.31431 29.1742Z" fill="#FF0000"/>
</svg>
