<svg width="109" height="254" viewBox="0 0 109 254" fill="none" xmlns="http://www.w3.org/2000/svg">
<path d="M9.25469 72.5095C34.2482 47.5159 74.7708 47.5159 99.7644 72.5095" stroke="#FF0000" stroke-width="3"/>
<path d="M1.99985 52.3822C30.9298 23.4523 77.8344 23.4523 106.764 52.3822" stroke="#FF0000" stroke-width="3"/>
<path d="M20.5095 92.637C39.3576 73.7889 69.9164 73.7889 88.7644 92.637" stroke="#FF0000" stroke-width="3"/>
<path d="M100.51 181.255C75.5162 206.248 34.9936 206.248 10 181.255" stroke="#FF0000" stroke-width="3"/>
<path d="M107.765 201.382C78.8346 230.312 31.93 230.312 3.00009 201.382" stroke="#FF0000" stroke-width="3"/>
<path d="M89.2549 161.127C70.4068 179.975 39.8481 179.975 21 161.127" stroke="#FF0000" stroke-width="3"/>
<path d="M44.5 117L47 115.5L49 116L51 118L52 122V125.5L50.5 128.5V130.5L45.5 132L44 128L43 123.5L44.5 117Z" fill="#FF0000"/>
<path d="M50.5 132.5L46 134V136.5L47 139L49.5 140L51 139.5L52 138V135.5L50.5 132.5Z" fill="#FF0000"/>
<path d="M65.5 116.5L63 115L61 115.5L59 117.5L58 121.5V125L59.5 128V130L64.5 131.5L66 127.5L67 123L65.5 116.5Z" fill="#FF0000"/>
<path d="M59.5 132L64 133.5V136L63 138.5L60.5 139.5L59 139L58 137.5V135L59.5 132Z" fill="#FF0000"/>
</svg>
