<svg width="150" height="231" viewBox="0 0 150 231" fill="none" xmlns="http://www.w3.org/2000/svg">
<circle cx="75" cy="115" r="23.5" stroke="#FF0000" stroke-width="3"/>
<path d="M0 115H10H20M150 115H140H130" stroke="#FF0000" stroke-width="3"/>
<path d="M10 153L18.6603 148M139.904 78L131.244 83" stroke="#FF0000" stroke-width="3"/>
<path d="M10 78L18.6603 83M139.904 153L131.244 148" stroke="#FF0000" stroke-width="3"/>
<path d="M37 179.904L42 171.244M112 50L107 58.6603" stroke="#FF0000" stroke-width="3"/>
<path d="M37 50L42 58.6603M112 179.904L107 171.244" stroke="#FF0000" stroke-width="3"/>
<path d="M75 190V180V170M75 40V50V60" stroke="#FF0000" stroke-width="3"/>
<g style="mix-blend-mode:exclusion">
<path d="M73.9393 230.061C74.5251 230.646 75.4749 230.646 76.0607 230.061L85.6066 220.515C86.1924 219.929 86.1924 218.979 85.6066 218.393C85.0208 217.808 84.0711 217.808 83.4853 218.393L75 226.879L66.5147 218.393C65.9289 217.808 64.9792 217.808 64.3934 218.393C63.8076 218.979 63.8076 219.929 64.3934 220.515L73.9393 230.061ZM76.0607 0.939346C75.4749 0.353546 74.5251 0.353546 73.9393 0.939346L64.3934 10.4853C63.8076 11.0711 63.8076 12.0208 64.3934 12.6066C64.9792 13.1924 65.9289 13.1924 66.5147 12.6066L75 4.12132L83.4853 12.6066C84.0711 13.1924 85.0208 13.1924 85.6066 12.6066C86.1924 12.0208 86.1924 11.0711 85.6066 10.4853L76.0607 0.939346ZM76.5 229L76.5 2L73.5 2L73.5 229L76.5 229Z" fill="#FF0000"/>
</g>
</svg>
