<svg width="109" height="148" viewBox="0 0 109 148" fill="none" xmlns="http://www.w3.org/2000/svg">
<path d="M61.2547 143.156C61.8353 143.747 62.785 143.756 63.3759 143.175L73.0048 133.713C73.5957 133.132 73.604 132.182 73.0233 131.591C72.4427 131.001 71.493 130.992 70.9021 131.573L62.3431 139.984L53.9322 131.425C53.3515 130.834 52.4018 130.826 51.8109 131.406C51.2201 131.987 51.2118 132.937 51.7924 133.528L61.2547 143.156ZM63.8245 142.118L65.0143 5.79385L62.0145 5.76767L60.8246 142.092L63.8245 142.118Z" fill="#FF0000"/>
<path d="M47.5843 4.7294C47.0036 4.13852 46.0539 4.13023 45.463 4.71088L35.8342 14.1731C35.2433 14.7538 35.235 15.7035 35.8156 16.2944C36.3963 16.8853 37.346 16.8936 37.9369 16.3129L46.4959 7.902L54.9068 16.461C55.4874 17.0519 56.4372 17.0602 57.028 16.4795C57.6189 15.8989 57.6272 14.9492 57.0465 14.3583L47.5843 4.7294ZM46.8245 142.118L48.0143 5.79385L45.0145 5.76767L43.8246 142.092L46.8245 142.118Z" fill="#FF0000"/>
<circle cx="54.4118" cy="74.1466" r="23.4684" transform="rotate(21.4246 54.4118 74.1466)" stroke="#FF0000" stroke-width="3"/>
</svg>
