<svg width="150" height="154" viewBox="0 0 150 154" fill="none" xmlns="http://www.w3.org/2000/svg">
<circle cx="75" cy="77" r="23.5" stroke="#FF0000" stroke-width="3"/>
<path d="M0 77H10H20M150 77H140H130" stroke="#FF0000" stroke-width="3"/>
<path d="M10 115L18.6603 110M139.904 40L131.244 45" stroke="#FF0000" stroke-width="3"/>
<path d="M10 40L18.6603 45M139.904 115L131.244 110" stroke="#FF0000" stroke-width="3"/>
<path d="M37 141.904L42 133.244M112 12L107 20.6603" stroke="#FF0000" stroke-width="3"/>
<path d="M37 12L42 20.6603M112 141.904L107 133.244" stroke="#FF0000" stroke-width="3"/>
<path d="M75 2V12V22" stroke="#FF0000" stroke-width="3"/>
<path d="M62.9174 153.038C63.4908 153.636 64.4403 153.656 65.0382 153.083L74.7819 143.739C75.3799 143.165 75.3997 142.216 74.8264 141.618C74.253 141.02 73.3034 141 72.7055 141.574L64.0444 149.879L55.7387 141.218C55.1653 140.62 54.2157 140.6 53.6178 141.174C53.0199 141.747 53 142.697 53.5734 143.295L62.9174 153.038ZM64 152L65.4997 152.032C66.4994 104.294 68.1045 67.4359 69.9995 42.2542C70.9474 29.6583 71.9658 20.0129 73.012 13.3982C73.5362 10.0845 74.0604 7.57716 74.5724 5.85513C74.8295 4.99044 75.0687 4.3751 75.2781 3.97134C75.5202 3.50435 75.6067 3.54846 75.4268 3.63775C75.2846 3.70828 75.0698 3.75449 74.8372 3.70221C74.7351 3.67926 74.6584 3.64334 74.609 3.6143C74.561 3.58608 74.5378 3.56389 74.537 3.5631C74.536 3.56221 74.5504 3.57598 74.5781 3.61249C74.6055 3.64861 74.6414 3.70112 74.6845 3.77403C74.7721 3.92189 74.875 4.12905 74.9895 4.40809C75.4603 5.55593 75.9667 7.52001 76.4803 10.4009C77.5004 16.1228 78.4855 25.0804 79.3903 37.4094C81.1984 62.0491 82.6737 99.9805 83.5002 152.024L85 152L86.4998 151.976C85.673 99.9118 84.1966 61.9142 82.3822 37.1899C81.4757 24.8368 80.4819 15.7537 79.4337 9.87434C78.9132 6.95457 78.3632 4.72789 77.7651 3.26963C77.4759 2.56451 77.1101 1.87095 76.606 1.39081C76.3393 1.1367 75.971 0.882217 75.4952 0.775264C74.9921 0.662159 74.5064 0.745403 74.0932 0.95043C73.3712 1.30872 72.9149 2.01169 72.6149 2.59026C72.282 3.23206 71.9796 4.049 71.6968 5.00014C71.129 6.90977 70.5805 9.5683 70.0489 12.9295C68.9836 19.6645 67.958 29.4049 67.008 42.029C65.1072 67.2874 63.5006 104.206 62.5003 151.969L64 152Z" fill="#FF0000"/>
</svg>
