<svg width="58" height="209" viewBox="0 0 58 209" fill="none" xmlns="http://www.w3.org/2000/svg">
<path d="M27.9501 23.56H17.0301V21.04C18.6301 20.92 20.0701 20.76 21.3501 20.56C22.6701 20.36 23.8101 19.98 24.7701 19.42C25.7701 18.86 26.5901 18.06 27.2301 17.02C27.9101 15.94 28.4101 14.5 28.7301 12.7H31.7901V55H27.9501V23.56Z" fill="#FF0000"/>
<path d="M15.7701 172.02C16.1701 174.9 17.3101 177.06 19.1901 178.5C21.1101 179.9 23.4501 180.6 26.2101 180.6C27.7701 180.6 29.1701 180.32 30.4101 179.76C31.6901 179.2 32.7701 178.44 33.6501 177.48C34.5301 176.48 35.1901 175.34 35.6301 174.06C36.1101 172.74 36.3501 171.32 36.3501 169.8C36.3501 168.24 36.0901 166.8 35.5701 165.48C35.0901 164.16 34.3901 163.02 33.4701 162.06C32.5901 161.1 31.4901 160.36 30.1701 159.84C28.8901 159.32 27.4501 159.06 25.8501 159.06C23.9301 159.06 22.2101 159.42 20.6901 160.14C19.1701 160.82 17.8301 161.92 16.6701 163.44L13.4901 163.02L16.9101 141.12H37.9101V144.36H20.1501L17.5101 158.58C18.3501 158.06 19.1101 157.62 19.7901 157.26C20.5101 156.9 21.2301 156.62 21.9501 156.42C22.6701 156.18 23.4101 156.02 24.1701 155.94C24.9701 155.86 25.8501 155.82 26.8101 155.82C28.7301 155.82 30.5101 156.14 32.1501 156.78C33.7901 157.42 35.2101 158.34 36.4101 159.54C37.6101 160.74 38.5301 162.22 39.1701 163.98C39.8501 165.7 40.1901 167.64 40.1901 169.8C40.1901 172.04 39.8101 174.04 39.0501 175.8C38.3301 177.52 37.3501 178.98 36.1101 180.18C34.8701 181.38 33.4301 182.3 31.7901 182.94C30.1901 183.54 28.5301 183.84 26.8101 183.84C24.8101 183.84 22.9301 183.64 21.1701 183.24C19.4501 182.84 17.9301 182.18 16.6101 181.26C15.2901 180.3 14.2101 179.08 13.3701 177.6C12.5701 176.08 12.0901 174.22 11.9301 172.02H15.7701Z" fill="#FF0000"/>
<path d="M-2.13604e-05 100.144L57.0204 100.423" stroke="#FF0000" stroke-width="3"/>
</svg>
