<svg width="93" height="139" viewBox="0 0 93 139" fill="none" xmlns="http://www.w3.org/2000/svg">
<circle cx="47.4135" cy="68.0695" r="23.4684" transform="rotate(21.4246 47.4135 68.0695)" stroke="#FF0000" stroke-width="3"/>
<path d="M48.7472 1.40835C48.1666 0.817478 47.2169 0.809188 46.626 1.38984L36.9971 10.8521C36.4062 11.4328 36.3979 12.3825 36.9786 12.9733C37.5593 13.5642 38.509 13.5725 39.0998 12.9919L47.6589 4.58096L56.0698 13.14C56.6504 13.7308 57.6001 13.7391 58.191 13.1585C58.7819 12.5778 58.7902 11.6281 58.2095 11.0372L48.7472 1.40835ZM47.9875 138.797L49.1773 2.47281L46.1774 2.44663L44.9876 138.771L47.9875 138.797Z" fill="#FF0000"/>
<circle cx="47.4131" cy="68.0697" r="23.4684" transform="rotate(21.4246 47.4131 68.0697)" stroke="#FF0000" stroke-width="3"/>
</svg>
