<svg width="331" height="357" viewBox="0 0 331 357" fill="none" xmlns="http://www.w3.org/2000/svg">
<path d="M167.061 60.9393C166.475 60.3536 165.525 60.3536 164.939 60.9393L155.393 70.4853C154.808 71.0711 154.808 72.0208 155.393 72.6066C155.979 73.1924 156.929 73.1924 157.515 72.6066L166 64.1213L174.485 72.6066C175.071 73.1924 176.021 73.1924 176.607 72.6066C177.192 72.0208 177.192 71.0711 176.607 70.4853L167.061 60.9393ZM164.939 296.061C165.525 296.646 166.475 296.646 167.061 296.061L176.607 286.515C177.192 285.929 177.192 284.979 176.607 284.393C176.021 283.808 175.071 283.808 174.485 284.393L166 292.879L157.515 284.393C156.929 283.808 155.979 283.808 155.393 284.393C154.808 284.979 154.808 285.929 155.393 286.515L164.939 296.061ZM166 62L164.5 62L164.5 295L166 295L167.5 295L167.5 62L166 62Z" fill="#FF0000"/>
</svg>
