<svg width="134" height="134" viewBox="0 0 134 134" fill="none" xmlns="http://www.w3.org/2000/svg">
<circle cx="67" cy="67" r="65.5" fill="black" stroke="#FF0000" stroke-width="3"/>
<path d="M40.0352 55.0977V53.75C41.3047 53.6263 42.1901 53.4212 42.6914 53.1348C43.1927 52.8418 43.5671 52.1549 43.8145 51.0742H45.2012V65H43.3262V55.0977H40.0352ZM53.8047 50.6543H55.2891L50.7383 65H49.2539L53.8047 50.6543ZM55.4453 65C55.5104 63.7956 55.7578 62.7474 56.1875 61.8555C56.6237 60.9635 57.4701 60.153 58.7266 59.4238L60.6016 58.3398C61.4414 57.8516 62.0306 57.4349 62.3691 57.0898C62.903 56.5495 63.1699 55.931 63.1699 55.2344C63.1699 54.4206 62.9258 53.776 62.4375 53.3008C61.9492 52.819 61.2982 52.5781 60.4844 52.5781C59.2799 52.5781 58.4466 53.0339 57.9844 53.9453C57.737 54.4336 57.6003 55.1107 57.5742 55.9766H55.7871C55.8066 54.7591 56.0312 53.7663 56.4609 52.998C57.2227 51.6439 58.5671 50.9668 60.4941 50.9668C62.0957 50.9668 63.2643 51.3997 64 52.2656C64.7422 53.1315 65.1133 54.0951 65.1133 55.1562C65.1133 56.276 64.7194 57.2331 63.9316 58.0273C63.4759 58.4896 62.6589 59.0495 61.4805 59.707L60.1426 60.4492C59.5046 60.8008 59.0033 61.1361 58.6387 61.4551C57.9876 62.0215 57.5775 62.6497 57.4082 63.3398H65.0449V65H55.4453ZM73.2285 50.6543H83.1797V52.4121H75.1719V56.7676H82.2129V58.4766H75.1719V65H73.2285V50.6543ZM85.084 54.541H86.7539V56.3477C86.8906 55.9961 87.2259 55.5697 87.7598 55.0684C88.2936 54.5605 88.9089 54.3066 89.6055 54.3066C89.638 54.3066 89.6934 54.3099 89.7715 54.3164C89.8496 54.3229 89.9831 54.3359 90.1719 54.3555V56.2109C90.0677 56.1914 89.9701 56.1784 89.8789 56.1719C89.7943 56.1654 89.6999 56.1621 89.5957 56.1621C88.7103 56.1621 88.0299 56.4486 87.5547 57.0215C87.0794 57.5879 86.8418 58.2422 86.8418 58.9844V65H85.084V54.541ZM91.0215 62.8711H93.0625V65H91.0215V62.8711Z" fill="#FF0000"/>
<path d="M46.1484 73.0977V71.75C47.418 71.6263 48.3034 71.4212 48.8047 71.1348C49.306 70.8418 49.6803 70.1549 49.9277 69.0742H51.3145V83H49.4395V73.0977H46.1484ZM58.0234 79.6211C58.0755 80.5911 58.4499 81.2617 59.1465 81.6328C59.5046 81.8281 59.9082 81.9258 60.3574 81.9258C61.1973 81.9258 61.9134 81.5775 62.5059 80.8809C63.0983 80.1777 63.5182 78.7552 63.7656 76.6133C63.375 77.2318 62.89 77.668 62.3105 77.9219C61.7376 78.1693 61.1191 78.293 60.4551 78.293C59.1074 78.293 58.0397 77.873 57.252 77.0332C56.4707 76.1934 56.0801 75.1126 56.0801 73.791C56.0801 72.5215 56.4674 71.4049 57.2422 70.4414C58.0169 69.4779 59.1595 68.9961 60.6699 68.9961C62.7077 68.9961 64.1139 69.9141 64.8887 71.75C65.3184 72.7591 65.5332 74.0221 65.5332 75.5391C65.5332 77.2513 65.276 78.7682 64.7617 80.0898C63.9089 82.2904 62.4635 83.3906 60.4258 83.3906C59.0586 83.3906 58.0202 83.0326 57.3105 82.3164C56.6009 81.6003 56.2461 80.7018 56.2461 79.6211H58.0234ZM60.6895 76.75C61.3861 76.75 62.0208 76.5221 62.5938 76.0664C63.1732 75.6042 63.4629 74.8001 63.4629 73.6543C63.4629 72.6257 63.2025 71.8607 62.6816 71.3594C62.1673 70.8516 61.5098 70.5977 60.709 70.5977C59.8496 70.5977 59.166 70.8874 58.6582 71.4668C58.1569 72.0397 57.9062 72.8079 57.9062 73.7715C57.9062 74.6829 58.1276 75.4089 58.5703 75.9492C59.013 76.4831 59.7194 76.75 60.6895 76.75ZM69.1562 79.6211C69.2083 80.5911 69.5827 81.2617 70.2793 81.6328C70.6374 81.8281 71.041 81.9258 71.4902 81.9258C72.3301 81.9258 73.0462 81.5775 73.6387 80.8809C74.2311 80.1777 74.651 78.7552 74.8984 76.6133C74.5078 77.2318 74.0228 77.668 73.4434 77.9219C72.8704 78.1693 72.252 78.293 71.5879 78.293C70.2402 78.293 69.1725 77.873 68.3848 77.0332C67.6035 76.1934 67.2129 75.1126 67.2129 73.791C67.2129 72.5215 67.6003 71.4049 68.375 70.4414C69.1497 69.4779 70.2923 68.9961 71.8027 68.9961C73.8405 68.9961 75.2467 69.9141 76.0215 71.75C76.4512 72.7591 76.666 74.0221 76.666 75.5391C76.666 77.2513 76.4089 78.7682 75.8945 80.0898C75.0417 82.2904 73.5964 83.3906 71.5586 83.3906C70.1914 83.3906 69.153 83.0326 68.4434 82.3164C67.7337 81.6003 67.3789 80.7018 67.3789 79.6211H69.1562ZM71.8223 76.75C72.5189 76.75 73.1536 76.5221 73.7266 76.0664C74.306 75.6042 74.5957 74.8001 74.5957 73.6543C74.5957 72.6257 74.3353 71.8607 73.8145 71.3594C73.3001 70.8516 72.6426 70.5977 71.8418 70.5977C70.9824 70.5977 70.2988 70.8874 69.791 71.4668C69.2897 72.0397 69.0391 72.8079 69.0391 73.7715C69.0391 74.6829 69.2604 75.4089 69.7031 75.9492C70.1458 76.4831 70.8522 76.75 71.8223 76.75ZM83.4824 68.957C85.0449 68.957 86.1322 69.3639 86.7441 70.1777C87.3626 70.985 87.6719 71.8184 87.6719 72.6777H85.9336C85.8294 72.1243 85.6634 71.6914 85.4355 71.3789C85.0124 70.793 84.3711 70.5 83.5117 70.5C82.5286 70.5 81.7474 70.9557 81.168 71.8672C80.5885 72.7721 80.2663 74.071 80.2012 75.7637C80.6048 75.1712 81.1126 74.7285 81.7246 74.4355C82.2845 74.1751 82.9095 74.0449 83.5996 74.0449C84.7715 74.0449 85.7936 74.4193 86.666 75.168C87.5384 75.9167 87.9746 77.0332 87.9746 78.5176C87.9746 79.7871 87.5612 80.9134 86.7344 81.8965C85.9076 82.873 84.7292 83.3613 83.1992 83.3613C81.8906 83.3613 80.7611 82.8665 79.8105 81.877C78.86 80.8809 78.3848 79.2077 78.3848 76.8574C78.3848 75.1191 78.5964 73.6445 79.0195 72.4336C79.8333 70.1159 81.321 68.957 83.4824 68.957ZM83.3555 81.7988C84.2799 81.7988 84.9701 81.4896 85.4258 80.8711C85.888 80.2461 86.1191 79.5104 86.1191 78.6641C86.1191 77.9479 85.9141 77.2676 85.5039 76.623C85.0938 75.972 84.3483 75.6465 83.2676 75.6465C82.5124 75.6465 81.8483 75.8971 81.2754 76.3984C80.709 76.8997 80.4258 77.6549 80.4258 78.6641C80.4258 79.5495 80.6829 80.2949 81.1973 80.9004C81.7181 81.4993 82.4375 81.7988 83.3555 81.7988Z" fill="#FF0000"/>
</svg>
