<svg width="203" height="243" viewBox="0 0 203 243" fill="none" xmlns="http://www.w3.org/2000/svg">
<circle cx="139.847" cy="142.847" r="38.5" transform="rotate(21.4246 139.847 142.847)" fill="black" stroke="#FF0000" stroke-width="3"/>
<circle cx="111.847" cy="71.847" r="38.5" transform="rotate(21.4246 111.847 71.847)" fill="black" stroke="#FF0000" stroke-width="3"/>
<circle cx="148.144" cy="109.744" r="38.5" transform="rotate(30.2491 148.144 109.744)" fill="black" stroke="#FF0000" stroke-width="3"/>
<circle cx="103.522" cy="124.924" r="18.5" transform="rotate(21.4246 103.522 124.924)" fill="black" stroke="#FF0000" stroke-width="3"/>
<circle cx="139.793" cy="142.847" r="38.5" transform="rotate(21.4246 139.793 142.847)" fill="black" stroke="#FF0000" stroke-width="3"/>
<path d="M106.054 98.3553C125.58 78.8291 157.238 78.8291 176.765 98.3553" stroke="#FF0000" stroke-width="3"/>
<path d="M91.0539 84.4975C118.391 57.1608 162.712 57.1608 190.049 84.4975" stroke="#FF0000" stroke-width="3"/>
<circle cx="87.793" cy="190.847" r="38.5" transform="rotate(21.4246 87.793 190.847)" fill="black" stroke="#FF0000" stroke-width="3"/>
<path d="M106.054 186.752C125.58 206.279 157.238 206.279 176.765 186.752" stroke="#FF0000" stroke-width="3"/>
<path d="M91.0539 200.61C118.391 227.947 162.712 227.947 190.049 200.61" stroke="#FF0000" stroke-width="3"/>
</svg>
