<svg width="231" height="232" viewBox="0 0 231 232" fill="none" xmlns="http://www.w3.org/2000/svg">
<circle cx="117.776" cy="115.354" r="15.5575" transform="rotate(40.4253 117.776 115.354)" stroke="#FF0000" stroke-width="3"/>
<path d="M138.091 123.388C138.517 122.678 138.287 121.756 137.577 121.33L126 114.384C125.29 113.958 124.369 114.189 123.942 114.899C123.516 115.609 123.747 116.531 124.457 116.957L134.747 123.131L128.573 133.421C128.147 134.131 128.377 135.053 129.087 135.479C129.798 135.905 130.719 135.675 131.145 134.964L138.091 123.388ZM102.745 107.073C98.694 107.884 94.5565 110.761 92.6892 114.307C91.7357 116.117 91.3277 118.203 91.9767 120.286C92.6254 122.367 94.2491 124.187 96.8423 125.632L98.3028 123.012C96.1682 121.822 95.1969 120.536 94.8409 119.393C94.4853 118.252 94.663 116.997 95.3436 115.705C96.7444 113.045 100.068 110.668 103.334 110.015L102.745 107.073ZM96.8423 125.632C103.218 129.186 112.189 128.999 119.912 127.904C127.706 126.8 134.694 124.69 137.169 124.072L136.441 121.161C133.798 121.822 127.08 123.859 119.491 124.934C111.833 126.019 103.746 126.046 98.3028 123.012L96.8423 125.632Z" fill="#FF0000"/>
<path d="M161.51 159.255C136.516 184.248 95.9936 184.248 71.0001 159.255" stroke="#FF0000" stroke-width="3"/>
<path d="M168.764 179.382C139.835 208.312 92.9299 208.312 64 179.382" stroke="#FF0000" stroke-width="3"/>
<path d="M150.255 139.127C131.407 157.975 100.848 157.975 82 139.127" stroke="#FF0000" stroke-width="3"/>
<path d="M70.2547 72.5095C95.2483 47.5159 135.771 47.5159 160.764 72.5095" stroke="#FF0000" stroke-width="3"/>
<path d="M63 52.3822C91.9299 23.4523 138.835 23.4523 167.764 52.3822" stroke="#FF0000" stroke-width="3"/>
<path d="M81.5095 92.637C100.358 73.7889 130.916 73.7889 149.764 92.637" stroke="#FF0000" stroke-width="3"/>
</svg>
